<?xml version="1.0" encoding="UTF-8"?><svg xmlns="http://www.w3.org/2000/svg" viewBox="0 0 378.35 378.35"><defs><style>.cls-1,.cls-2,.cls-3{fill-rule:evenodd;}.cls-1,.cls-4{fill:#0b2d71;}.cls-2{fill:#fff;}.cls-3{fill:#009dd9;}.cls-5{isolation:isolate;}.cls-6{fill:#ededee;mix-blend-mode:multiply;}.cls-7{fill:#0066b2;}</style></defs><g class="cls-5"><g id="Background"><circle id="Circle" class="cls-6" cx="189.18" cy="189.17" r="180"/></g><g id="Design"><g><path class="cls-2" d="m197.21,288.25v-17.9c0-3.92-3.18-7.1-7.1-7.1s-7.1,3.18-7.1,7.1v17.89c-13.74.1-27.43.52-41.03,1.27v-51.57h96.26v51.69c-13.59-.78-27.29-1.25-41.03-1.37Z"/><path class="cls-1" d="m288.18,293.98V106.44l-47.6-19.68v-19.73c0-2.49-2.01-4.5-4.5-4.5s-4.5,2.01-4.5,4.5v16l-10.43-4.31v-28.9c0-2.49-2.01-4.5-4.5-4.5s-4.5,2.01-4.5,4.5v25.18l-13.98-5.78v128.95h-17.98v-63h-90.01v158.79c-14.48,1.71-28.74,3.78-42.7,6.22,2.14,2.73,4.37,5.39,6.66,7.99,43.03-7.2,88.83-10.97,134.98-10.97s92.01,3.77,135.08,10.99c2.29-2.6,4.52-5.26,6.67-7.99-13.96-2.44-28.21-4.52-42.68-6.23Zm-189-1.03v-148.78h72.01v54h-38.23l-14.43,39.76h14.44s0,52.12,0,52.12c-11.36.75-22.64,1.71-33.8,2.9Zm98.03-4.7v-17.9c0-3.92-3.18-7.1-7.1-7.1s-7.1,3.18-7.1,7.1v17.89c-13.74.1-27.43.52-41.03,1.27v-51.57h96.26v51.69c-13.59-.78-27.29-1.25-41.03-1.37Zm81.97,4.71c-10.55-1.13-21.21-2.05-31.94-2.78v-52.25h12.57l-14.43-39.76h-38.21v-115.49l72,29.77v180.51Z"/><g><rect class="cls-4" x="111.86" y="157.09" width="21.08" height="11.07"/><rect class="cls-4" x="137.41" y="157.09" width="21.08" height="11.07"/><rect class="cls-4" x="111.86" y="174.08" width="21.08" height="11.07"/><rect class="cls-4" x="137.41" y="174.08" width="21.08" height="11.07"/></g><rect class="cls-4" x="216.17" y="117.15" width="54" height="9"/><rect class="cls-4" x="216.17" y="135.16" width="54" height="9"/><rect class="cls-4" x="216.17" y="153.17" width="54" height="9"/><rect class="cls-7" x="155.16" y="246.76" width="16.6" height="22.12"/><rect class="cls-7" x="208.46" y="246.76" width="16.6" height="22.12"/><polygon class="cls-3" points="180.2 198.17 132.96 198.17 118.55 237.94 180.2 198.17"/></g></g></g></svg>