<?xml version="1.0" encoding="utf-8"?>
<!-- Generator: Adobe Illustrator 27.1.1, SVG Export Plug-In . SVG Version: 6.00 Build 0)  -->
<svg version="1.1" xmlns="http://www.w3.org/2000/svg" xmlns:xlink="http://www.w3.org/1999/xlink" x="0px" y="0px"
	 viewBox="0 0 378 378" style="enable-background:new 0 0 378 378;" xml:space="preserve">
<style type="text/css">
	.st0{fill:#EDEDEE;}
	.st1{fill:#FFFFFF;}
	.st2{fill:#002E75;}
	.st3{fill-rule:evenodd;clip-rule:evenodd;fill:#00A0DF;}
	.st4{display:none;}
	.st5{display:inline;opacity:0.14;}
	.st6{fill:none;stroke:#B9529F;stroke-width:0.35;stroke-miterlimit:10;}
	.st7{display:inline;}
	.st8{fill:none;stroke:#9F9E9E;stroke-width:0.35;stroke-miterlimit:10;}
	.st9{display:inline;fill:#81D3F2;}
</style>
<g id="Spotlight">
	<circle id="Circle_00000054268320131119761220000005720540288678229121_" class="st0" cx="189" cy="189" r="180"/>
</g>
<g id="Icon_Art">
	<path class="st1" d="M152,257.8h73.6v0c0-24.4,8.6-48,24.5-66.5c12.3-14.2,19.7-32.7,19.6-53c-0.1-43.7-35.4-79.8-79-80.8
		c-45.6-1.1-82.9,35.6-82.9,81c0,20.2,7.4,38.7,19.7,52.9C143.4,209.8,152,233.4,152,257.8L152,257.8z"/>
	<g>
		<path class="st1" d="M188.8,310.8L188.8,310.8c-20.3,0-36.8-16.5-36.8-36.8v-16.2h73.6l0,16.2
			C225.6,294.4,209.1,310.8,188.8,310.8z"/>
	</g>
	<path class="st2" d="M220.1,147.1l13.4,0l0-14.9l-13.4,0c-0.8-3.3-2.1-6.4-3.8-9.3l9.5-9.5l-10.5-10.5l-9.5,9.5
		c-2.8-1.7-5.9-3-9.3-3.8V95.1h-14.9v13.4c-3.3,0.8-6.4,2.1-9.3,3.8l-9.5-9.5l-10.5,10.5l9.5,9.5c-1.7,2.8-3,5.9-3.8,9.3l-13.4,0
		l0,14.9l13.4,0c0.8,3.3,2.1,6.4,3.8,9.3l-9.5,9.5l10.5,10.5l9.5-9.5c2.8,1.7,5.9,3,9.3,3.8l0,13.4h14.9v-13.4
		c3.3-0.8,6.4-2.1,9.3-3.8l9.5,9.5l10.5-10.5l-9.5-9.5C218,153.5,219.3,150.4,220.1,147.1z M189,151.4c-6.5,0-11.8-5.3-11.8-11.8
		s5.3-11.8,11.8-11.8c6.5,0,11.8,5.3,11.8,11.8S195.5,151.4,189,151.4z"/>
	<path class="st3" d="M217.6,62.8c-8.4-3.2-17.4-5.1-26.8-5.3c-43.4-1-79.3,32.1-82.7,74.5L217.6,62.8z"/>
	<path class="st2" d="M190.9,53c-23.3-0.6-45.2,8.1-61.8,24.3c-16.6,16.2-25.8,37.9-25.8,61.2c0,20.5,7.4,40.3,20.7,55.8
		c14.6,16.9,22.9,38.6,23.4,61.2V274c0,20,14.2,36.7,33.1,40.5c1.4,3.2,4.7,5.5,8.4,5.5c3.8,0,7-2.3,8.5-5.6
		c18.6-4,32.6-20.6,32.6-40.4l0-11.7h0.1v-4.5c0-23.5,8.3-46,23.4-63.5c13.4-15.5,20.8-35.4,20.7-56C274.2,92.4,236.8,54.1,190.9,53
		z M196.5,305.4c-1.7-2.3-4.4-3.9-7.5-3.9c-3.1,0-5.9,1.6-7.6,4c-6.1-1.4-11.5-4.6-15.7-8.9h46.2
		C207.7,300.8,202.4,303.9,196.5,305.4z M218.1,287.6h-58.6c-1.3-2.8-2.2-5.9-2.7-9.1h64C220.3,281.7,219.4,284.8,218.1,287.6z
		 M221.1,269.5h-64.6v-7.2h64.6L221.1,269.5z M246.8,188.4c-2.4,2.8-4.7,5.8-6.8,8.8l-102.1,0.2c-2.1-3.1-4.4-6.1-6.9-9
		c-12-13.9-18.6-31.6-18.6-49.9c0-20.8,8.2-40.2,23-54.7c14.9-14.5,34.5-22.2,55.3-21.7c41.1,1,74.6,35.2,74.6,76.3
		C265.4,156.7,258.8,174.5,246.8,188.4z"/>
</g>
<g id="Artboard_Grid" class="st4">
	<g id="Grid_00000000928924568432697800000011767424513306044808_" class="st5">
		<rect y="0" class="st6" width="378" height="378"/>
		<line class="st6" x1="0" y1="369" x2="378" y2="369"/>
		<line class="st6" x1="0" y1="360" x2="378" y2="360"/>
		<line class="st6" x1="0" y1="351" x2="378" y2="351"/>
		<line class="st6" x1="0" y1="342" x2="378" y2="342"/>
		<line class="st6" x1="0" y1="333" x2="378" y2="333"/>
		<line class="st6" x1="0" y1="324" x2="378" y2="324"/>
		<line class="st6" x1="0" y1="315" x2="378" y2="315"/>
		<line class="st6" x1="0" y1="306" x2="378" y2="306"/>
		<line class="st6" x1="0" y1="297" x2="378" y2="297"/>
		<line class="st6" x1="0" y1="288" x2="378" y2="288"/>
		<line class="st6" x1="0" y1="279" x2="378" y2="279"/>
		<line class="st6" x1="0" y1="270" x2="378" y2="270"/>
		<line class="st6" x1="0" y1="261" x2="378" y2="261"/>
		<line class="st6" x1="0" y1="252" x2="378" y2="252"/>
		<line class="st6" x1="0" y1="243" x2="378" y2="243"/>
		<line class="st6" x1="0" y1="234" x2="378" y2="234"/>
		<line class="st6" x1="0" y1="225" x2="378" y2="225"/>
		<line class="st6" x1="0" y1="216" x2="378" y2="216"/>
		<line class="st6" x1="0" y1="207" x2="378" y2="207"/>
		<line class="st6" x1="0" y1="198" x2="378" y2="198"/>
		<line class="st6" x1="0" y1="189" x2="378" y2="189"/>
		<line class="st6" x1="0" y1="180" x2="378" y2="180"/>
		<line class="st6" x1="0" y1="171" x2="378" y2="171"/>
		<line class="st6" x1="0" y1="162" x2="378" y2="162"/>
		<line class="st6" x1="0" y1="153" x2="378" y2="153"/>
		<line class="st6" x1="0" y1="144" x2="378" y2="144"/>
		<line class="st6" x1="0" y1="135" x2="378" y2="135"/>
		<line class="st6" x1="0" y1="126" x2="378" y2="126"/>
		<line class="st6" x1="0" y1="117" x2="378" y2="117"/>
		<line class="st6" x1="0" y1="108" x2="378" y2="108"/>
		<line class="st6" x1="0" y1="99" x2="378" y2="99"/>
		<line class="st6" x1="0" y1="90" x2="378" y2="90"/>
		<line class="st6" x1="0" y1="81" x2="378" y2="81"/>
		<line class="st6" x1="0" y1="72" x2="378" y2="72"/>
		<line class="st6" x1="0" y1="63" x2="378" y2="63"/>
		<line class="st6" x1="0" y1="54" x2="378" y2="54"/>
		<line class="st6" x1="0" y1="45" x2="378" y2="45"/>
		<line class="st6" x1="0" y1="36" x2="378" y2="36"/>
		<line class="st6" x1="0" y1="27" x2="378" y2="27"/>
		<line class="st6" x1="0" y1="18" x2="378" y2="18"/>
		<line class="st6" x1="0" y1="9" x2="378" y2="9"/>
		<line class="st6" x1="369" y1="0" x2="369" y2="378"/>
		<line class="st6" x1="360" y1="0" x2="360" y2="378"/>
		<line class="st6" x1="351" y1="0" x2="351" y2="378"/>
		<line class="st6" x1="342" y1="0" x2="342" y2="378"/>
		<line class="st6" x1="333" y1="0" x2="333" y2="378"/>
		<line class="st6" x1="324" y1="0" x2="324" y2="378"/>
		<line class="st6" x1="315" y1="0" x2="315" y2="378"/>
		<line class="st6" x1="306" y1="0" x2="306" y2="378"/>
		<line class="st6" x1="297" y1="0" x2="297" y2="378"/>
		<line class="st6" x1="288" y1="0" x2="288" y2="378"/>
		<line class="st6" x1="279" y1="0" x2="279" y2="378"/>
		<line class="st6" x1="270" y1="0" x2="270" y2="378"/>
		<line class="st6" x1="261" y1="0" x2="261" y2="378"/>
		<line class="st6" x1="252" y1="0" x2="252" y2="378"/>
		<line class="st6" x1="243" y1="0" x2="243" y2="378"/>
		<line class="st6" x1="234" y1="0" x2="234" y2="378"/>
		<line class="st6" x1="225" y1="0" x2="225" y2="378"/>
		<line class="st6" x1="216" y1="0" x2="216" y2="378"/>
		<line class="st6" x1="207" y1="0" x2="207" y2="378"/>
		<line class="st6" x1="198" y1="0" x2="198" y2="378"/>
		<line class="st6" x1="189" y1="0" x2="189" y2="378"/>
		<line class="st6" x1="180" y1="0" x2="180" y2="378"/>
		<line class="st6" x1="171" y1="0" x2="171" y2="378"/>
		<line class="st6" x1="162" y1="0" x2="162" y2="378"/>
		<line class="st6" x1="153" y1="0" x2="153" y2="378"/>
		<line class="st6" x1="144" y1="0" x2="144" y2="378"/>
		<line class="st6" x1="135" y1="0" x2="135" y2="378"/>
		<line class="st6" x1="126" y1="0" x2="126" y2="378"/>
		<line class="st6" x1="117" y1="0" x2="117" y2="378"/>
		<line class="st6" x1="108" y1="0" x2="108" y2="378"/>
		<line class="st6" x1="99" y1="0" x2="99" y2="378"/>
		<line class="st6" x1="90" y1="0" x2="90" y2="378"/>
		<line class="st6" x1="81" y1="0" x2="81" y2="378"/>
		<line class="st6" x1="72" y1="0" x2="72" y2="378"/>
		<line class="st6" x1="63" y1="0" x2="63" y2="378"/>
		<line class="st6" x1="54" y1="0" x2="54" y2="378"/>
		<line class="st6" x1="45" y1="0" x2="45" y2="378"/>
		<line class="st6" x1="36" y1="0" x2="36" y2="378"/>
		<line class="st6" x1="27" y1="0" x2="27" y2="378"/>
		<line class="st6" x1="18" y1="0" x2="18" y2="378"/>
		<line class="st6" x1="9" y1="0" x2="9" y2="378"/>
	</g>
</g>
<g id="Spotlight_Grid_Lines" class="st4">
	<g id="Diagram_00000104680435712718062540000017058796099327717806_" class="st7">
		<g>
			<rect y="0" class="st8" width="378" height="378"/>
			<g>
				<line class="st8" x1="189" y1="0" x2="189" y2="378"/>
			</g>
			<g>
				<line class="st8" x1="378" y1="189" x2="0" y2="189"/>
			</g>
			<g>
				<line class="st8" x1="378" y1="0" x2="0" y2="378"/>
			</g>
			<g>
				<line class="st8" x1="378" y1="378" x2="0" y2="0"/>
			</g>
		</g>
		<rect x="9" y="9" class="st8" width="360" height="360"/>
		<circle class="st8" cx="189" cy="189" r="180"/>
		<circle class="st8" cx="189" cy="189" r="135"/>
	</g>
	<path id="Margin_00000046329190245216992470000003675900226303575485_" class="st9" d="M378,0H0v378h378l0,0l0,0V0z M9,369V9h360
		v360H9z"/>
</g>
</svg>
