<?xml version="1.0" encoding="utf-8"?>
<!-- Generator: Adobe Illustrator 27.2.0, SVG Export Plug-In . SVG Version: 6.00 Build 0)  -->
<svg version="1.1" xmlns="http://www.w3.org/2000/svg" xmlns:xlink="http://www.w3.org/1999/xlink" x="0px" y="0px"
	 viewBox="0 0 378.35 378.35" style="enable-background:new 0 0 378.35 378.35;" xml:space="preserve">
<style type="text/css">
	.st0{fill:#EDEDEE;}
	.st1{fill:#002E75;}
	.st2{fill:#FFFFFF;}
	.st3{fill-rule:evenodd;clip-rule:evenodd;fill:#002E75;}
	.st4{fill:none;stroke:#002E75;stroke-width:9;stroke-miterlimit:10;}
	.st5{fill-rule:evenodd;clip-rule:evenodd;fill:#00A0DF;}
	.st6{fill:none;stroke:#0068B8;stroke-width:9;stroke-linecap:square;stroke-miterlimit:10;}
	.st7{fill:#00A0DF;}
	.st8{display:none;}
	.st9{display:inline;opacity:0.14;}
	.st10{fill:none;stroke:#FE01FE;stroke-width:0.35;stroke-miterlimit:10;}
	.st11{display:inline;}
	.st12{fill:none;stroke:#9F9F9F;stroke-width:0.35;stroke-miterlimit:10;}
	.st13{display:inline;fill:#75DDFD;}
</style>
<g id="background">
	<circle id="Circle_00000178908106233243753100000013547274927706532533_" class="st0" cx="189.18" cy="189.17" r="180"/>
</g>
<g id="artwork">
	<path id="Arc_00000016038227406553516780000014360996966144335797_" class="st1" d="M47.47,300.18c2.14,2.73,4.36,5.39,6.65,7.99
		c43.05-7.21,88.89-10.96,135.06-10.96s92,3.75,135.06,10.96c2.29-2.6,4.51-5.26,6.65-7.99c-45.04-7.87-93.2-11.97-141.71-11.97
		S92.51,292.31,47.47,300.18z"/>
	<path class="st2" d="M113.03,178.06c0,0,8.55-48.93,9.15-49.62c0.61-0.69,18.29-8.67,18.84-8.85c0.55-0.17,92.6,0.92,93.91,1.14
		c1.31,0.23,18.43,9.96,18.43,9.96l4.47,32.09l6.07,23.68l13.77,12.29l3.45,6.02l-1.61,68.88l-188.4,0.96v-42.25l-0.94-27.59
		l8.86-9.3c0,0,12.52-8.39,12.7-8.91C111.92,186.04,113.03,178.06,113.03,178.06z"/>
	<g>
		<rect x="99.18" y="277.8" class="st3" width="27.08" height="17.62"/>
		<rect x="252.18" y="277.84" class="st3" width="27" height="19.33"/>
	</g>
	<g>
		<path class="st4" d="M191.86,120.46h-47.37c-11.37,0-21.02,7.66-22.68,17.99l-6.18,38.45c-1.18,7.36-5.84,13.86-12.72,17.77l0,0
			c-5.16,2.93-8.3,8.1-8.3,13.67v62.81c0,1.91,1.55,3.46,3.46,3.46h159.58"/>
		<path class="st4" d="M94.62,274.62h184.43c2.58,0,4.68-2.09,4.68-4.68v-61.6c0-5.57-3.14-10.74-8.3-13.67l0,0
			c-6.88-3.91-11.54-10.41-12.72-17.77l-6.18-38.45c-1.66-10.34-11.31-17.99-22.68-17.99h-47.37"/>
	</g>
	<g>
		<path class="st1" d="M240.36,179.36l-6.2-39.09c-0.28-4.7-3.34-8.39-6.96-8.39h-36.62h-2.81h-36.62c-3.62,0-6.68,3.68-6.96,8.39
			l-6.2,39.09c-0.15,2.52,0.52,5.03,1.83,6.89c1.32,1.86,3.19,2.92,5.13,2.92h42.81h2.81h42.81c1.94,0,3.81-1.07,5.13-2.92
			C239.84,184.39,240.51,181.88,240.36,179.36z"/>
		<path class="st5" d="M201,139.26l-53.51,29.87l4.18-28.01c0.09-1.05,1.09-1.87,2.3-1.87H201z"/>
	</g>
	<g>
		<g>
			<rect x="103.08" y="166.19" class="st3" width="13.16" height="8.59"/>
		</g>
		<g>
			<rect x="262.1" y="166.19" class="st3" width="13.16" height="8.59"/>
		</g>
	</g>
	<line class="st6" x1="157.85" y1="224.12" x2="220.5" y2="224.12"/>
	<line class="st6" x1="166.54" y1="241.4" x2="211.81" y2="241.4"/>
	<g>
		<path class="st7" d="M137.62,239.12h-18.98c-1.75,0-3.17-1.42-3.17-3.17v-12.88c0-1.75,1.42-3.17,3.17-3.17h18.98
			c1.75,0,3.17,1.42,3.17,3.17v12.88C140.79,237.7,139.37,239.12,137.62,239.12z"/>
		<path class="st7" d="M259.71,239.12h-18.98c-1.75,0-3.17-1.42-3.17-3.17v-12.88c0-1.75,1.42-3.17,3.17-3.17h18.98
			c1.75,0,3.17,1.42,3.17,3.17v12.88C262.88,237.7,261.46,239.12,259.71,239.12z"/>
	</g>
	<g>
		<path class="st1" d="M293.63,180.75h-20.09c-1.81,0-3.3-1.48-3.3-3.3v-13.92c0-1.81,1.48-3.3,3.3-3.3h20.09
			c1.81,0,3.3,1.48,3.3,3.3v13.92C296.93,179.26,295.45,180.75,293.63,180.75z"/>
		<path class="st1" d="M104.81,180.75H84.72c-1.81,0-3.3-1.48-3.3-3.3v-13.92c0-1.81,1.48-3.3,3.3-3.3h20.09
			c1.81,0,3.3,1.48,3.3,3.3v13.92C108.11,179.26,106.62,180.75,104.81,180.75z"/>
	</g>
</g>
<g id="template" class="st8">
	<g id="Grid_00000158747308554611432680000015491797605921831357_" class="st9">
		<rect x="0.17" y="0.17" class="st10" width="378" height="378"/>
		<line class="st10" x1="0.17" y1="369.17" x2="378.17" y2="369.17"/>
		<line class="st10" x1="0.17" y1="360.17" x2="378.17" y2="360.17"/>
		<line class="st10" x1="0.17" y1="351.17" x2="378.17" y2="351.17"/>
		<line class="st10" x1="0.17" y1="342.17" x2="378.17" y2="342.17"/>
		<line class="st10" x1="0.17" y1="333.17" x2="378.17" y2="333.17"/>
		<line class="st10" x1="0.17" y1="324.17" x2="378.17" y2="324.17"/>
		<line class="st10" x1="0.17" y1="315.17" x2="378.17" y2="315.17"/>
		<line class="st10" x1="0.17" y1="306.17" x2="378.17" y2="306.17"/>
		<line class="st10" x1="0.17" y1="297.17" x2="378.17" y2="297.17"/>
		<line class="st10" x1="0.17" y1="288.17" x2="378.17" y2="288.17"/>
		<line class="st10" x1="0.17" y1="279.17" x2="378.17" y2="279.17"/>
		<line class="st10" x1="0.17" y1="270.17" x2="378.17" y2="270.17"/>
		<line class="st10" x1="0.17" y1="261.17" x2="378.17" y2="261.17"/>
		<line class="st10" x1="0.17" y1="252.17" x2="378.17" y2="252.17"/>
		<line class="st10" x1="0.17" y1="243.17" x2="378.17" y2="243.17"/>
		<line class="st10" x1="0.17" y1="234.17" x2="378.17" y2="234.17"/>
		<line class="st10" x1="0.17" y1="225.17" x2="378.17" y2="225.17"/>
		<line class="st10" x1="0.17" y1="216.17" x2="378.17" y2="216.17"/>
		<line class="st10" x1="0.17" y1="207.17" x2="378.17" y2="207.17"/>
		<line class="st10" x1="0.17" y1="198.17" x2="378.17" y2="198.17"/>
		<line class="st10" x1="0.17" y1="189.17" x2="378.17" y2="189.17"/>
		<line class="st10" x1="0.17" y1="180.17" x2="378.17" y2="180.17"/>
		<line class="st10" x1="0.17" y1="171.17" x2="378.17" y2="171.17"/>
		<line class="st10" x1="0.17" y1="162.17" x2="378.17" y2="162.17"/>
		<line class="st10" x1="0.17" y1="153.17" x2="378.17" y2="153.17"/>
		<line class="st10" x1="0.17" y1="144.17" x2="378.17" y2="144.17"/>
		<line class="st10" x1="0.17" y1="135.17" x2="378.17" y2="135.17"/>
		<line class="st10" x1="0.17" y1="126.17" x2="378.17" y2="126.17"/>
		<line class="st10" x1="0.17" y1="117.17" x2="378.17" y2="117.17"/>
		<line class="st10" x1="0.17" y1="108.17" x2="378.17" y2="108.17"/>
		<line class="st10" x1="0.17" y1="99.17" x2="378.17" y2="99.17"/>
		<line class="st10" x1="0.17" y1="90.17" x2="378.17" y2="90.17"/>
		<line class="st10" x1="0.17" y1="81.17" x2="378.17" y2="81.17"/>
		<line class="st10" x1="0.17" y1="72.17" x2="378.17" y2="72.17"/>
		<line class="st10" x1="0.17" y1="63.17" x2="378.17" y2="63.17"/>
		<line class="st10" x1="0.17" y1="54.17" x2="378.17" y2="54.17"/>
		<line class="st10" x1="0.17" y1="45.17" x2="378.17" y2="45.17"/>
		<line class="st10" x1="0.17" y1="36.17" x2="378.17" y2="36.17"/>
		<line class="st10" x1="0.17" y1="27.17" x2="378.17" y2="27.17"/>
		<line class="st10" x1="0.17" y1="18.17" x2="378.17" y2="18.17"/>
		<line class="st10" x1="0.17" y1="9.17" x2="378.17" y2="9.17"/>
		<line class="st10" x1="369.17" y1="0.17" x2="369.17" y2="378.17"/>
		<line class="st10" x1="360.17" y1="0.17" x2="360.17" y2="378.17"/>
		<line class="st10" x1="351.17" y1="0.17" x2="351.17" y2="378.17"/>
		<line class="st10" x1="342.17" y1="0.17" x2="342.17" y2="378.17"/>
		<line class="st10" x1="333.17" y1="0.17" x2="333.17" y2="378.17"/>
		<line class="st10" x1="324.17" y1="0.17" x2="324.17" y2="378.17"/>
		<line class="st10" x1="315.17" y1="0.17" x2="315.17" y2="378.17"/>
		<line class="st10" x1="306.17" y1="0.17" x2="306.17" y2="378.17"/>
		<line class="st10" x1="297.17" y1="0.17" x2="297.17" y2="378.17"/>
		<line class="st10" x1="288.17" y1="0.17" x2="288.17" y2="378.17"/>
		<line class="st10" x1="279.17" y1="0.17" x2="279.17" y2="378.17"/>
		<line class="st10" x1="270.17" y1="0.17" x2="270.17" y2="378.17"/>
		<line class="st10" x1="261.17" y1="0.17" x2="261.17" y2="378.17"/>
		<line class="st10" x1="252.18" y1="0.17" x2="252.18" y2="378.17"/>
		<line class="st10" x1="243.18" y1="0.17" x2="243.18" y2="378.17"/>
		<line class="st10" x1="234.18" y1="0.17" x2="234.18" y2="378.17"/>
		<line class="st10" x1="225.18" y1="0.17" x2="225.18" y2="378.17"/>
		<line class="st10" x1="216.18" y1="0.17" x2="216.18" y2="378.17"/>
		<line class="st10" x1="207.18" y1="0.17" x2="207.18" y2="378.17"/>
		<line class="st10" x1="198.18" y1="0.17" x2="198.18" y2="378.17"/>
		<line class="st10" x1="189.18" y1="0.17" x2="189.18" y2="378.17"/>
		<line class="st10" x1="180.18" y1="0.17" x2="180.18" y2="378.17"/>
		<line class="st10" x1="171.18" y1="0.17" x2="171.18" y2="378.17"/>
		<line class="st10" x1="162.18" y1="0.17" x2="162.18" y2="378.17"/>
		<line class="st10" x1="153.18" y1="0.17" x2="153.18" y2="378.17"/>
		<line class="st10" x1="144.18" y1="0.17" x2="144.18" y2="378.17"/>
		<line class="st10" x1="135.18" y1="0.17" x2="135.18" y2="378.17"/>
		<line class="st10" x1="126.18" y1="0.17" x2="126.18" y2="378.17"/>
		<line class="st10" x1="117.18" y1="0.17" x2="117.18" y2="378.17"/>
		<line class="st10" x1="108.18" y1="0.17" x2="108.18" y2="378.17"/>
		<line class="st10" x1="99.18" y1="0.17" x2="99.18" y2="378.17"/>
		<line class="st10" x1="90.18" y1="0.17" x2="90.18" y2="378.17"/>
		<line class="st10" x1="81.18" y1="0.17" x2="81.18" y2="378.17"/>
		<line class="st10" x1="72.18" y1="0.17" x2="72.18" y2="378.17"/>
		<line class="st10" x1="63.17" y1="0.17" x2="63.17" y2="378.17"/>
		<line class="st10" x1="54.17" y1="0.17" x2="54.17" y2="378.17"/>
		<line class="st10" x1="45.17" y1="0.17" x2="45.17" y2="378.17"/>
		<line class="st10" x1="36.17" y1="0.17" x2="36.17" y2="378.17"/>
		<line class="st10" x1="27.17" y1="0.17" x2="27.17" y2="378.17"/>
		<line class="st10" x1="18.17" y1="0.17" x2="18.17" y2="378.17"/>
		<line class="st10" x1="9.18" y1="0.17" x2="9.18" y2="378.17"/>
	</g>
	<g id="Diagram_00000142868289833484360840000006713646652304520894_" class="st11">
		<g>
			<rect x="0.17" y="0.17" class="st12" width="378" height="378"/>
			<g>
				<line class="st12" x1="189.17" y1="0.17" x2="189.17" y2="378.17"/>
			</g>
			<g>
				<line class="st12" x1="378.17" y1="189.17" x2="0.18" y2="189.17"/>
			</g>
			<g>
				<line class="st12" x1="378.17" y1="0.17" x2="0.18" y2="378.17"/>
			</g>
			<g>
				<line class="st12" x1="378.17" y1="378.17" x2="0.18" y2="0.17"/>
			</g>
		</g>
		<rect x="9.18" y="9.17" class="st12" width="360" height="360"/>
		<circle class="st12" cx="189.18" cy="189.17" r="180"/>
		<circle class="st12" cx="189.18" cy="189.17" r="135"/>
	</g>
	<path id="Margin_00000013900856115240766890000014170563336902908801_" class="st13" d="M378.17,0.17h-378v378h378l0,0l0,0V0.17z
		 M9.18,369.17v-360h360v360H9.18z"/>
</g>
</svg>
