<?xml version="1.0" encoding="utf-8"?>
<!-- Generator: Adobe Illustrator 27.0.1, SVG Export Plug-In . SVG Version: 6.00 Build 0)  -->
<svg version="1.1" xmlns="http://www.w3.org/2000/svg" xmlns:xlink="http://www.w3.org/1999/xlink" x="0px" y="0px"
	 viewBox="0 0 378 378" style="enable-background:new 0 0 378 378;" xml:space="preserve">
<style type="text/css">
	.st0{fill:#EDEDEE;}
	.st1{fill:none;}
	.st2{fill:#FFFFFF;}
	.st3{fill:#00A0DE;}
	.st4{fill:#233670;}
	.st5{display:none;}
	.st6{display:inline;}
	.st7{opacity:0.14;}
	.st8{fill:none;stroke:#B9529F;stroke-width:0.35;stroke-miterlimit:10;}
	.st9{fill:none;stroke:#9F9E9E;stroke-width:0.35;stroke-miterlimit:10;}
	.st10{fill:#81D3F2;}
</style>
<g id="Background">
	<circle id="Circle_00000156570300777174252350000007178186824679620228_" class="st0" cx="189" cy="189" r="180"/>
</g>
<g id="Art">
	<g>
		<path class="st1" d="M81.3,289.3c0,4.1,3.4,7.5,7.5,7.5h11.4c4.1,0,7.5-3.4,7.5-7.5v-37.4H81.3V289.3z"/>
		<path class="st1" d="M63.2,265.4v9c0,2.5,2,4.5,4.5,4.5h4.6v-18h-4.6C65.2,260.9,63.2,262.9,63.2,265.4z"/>
		<path class="st1" d="M270.3,180.1c0-29.5-15.7-56.1-41.2-70.6l-4,8.1c11.7,6.7,21.3,16.6,27.7,28.5c0.3,0.4,0.6,0.7,0.8,1.1
			l-0.2,0.1c5,9.8,7.9,21,7.9,32.8c0,39.8-32.4,72.1-72.1,72.1c-10.1,0-19.8-2.1-28.5-5.9l-4,8c10.2,4.5,21.2,6.8,32.5,6.8
			C233.9,261.2,270.3,224.8,270.3,180.1z"/>
		<path class="st2" d="M188.8,288.3l-13.4,8.8h49.3v-5.3c-6.5-1.2-20.9-3.5-35.7-3.5C188.9,288.2,188.9,288.3,188.8,288.3z"/>
		<path class="st3" d="M153.1,291.7v5.3h22.3l13.4-8.8C174,288.3,159.6,290.5,153.1,291.7z"/>
		<path class="st2" d="M230.6,225.7c-2.2,1.5-3.2,2.3-3.6,3.9c-0.1,0.4-0.2,0.9-0.2,1.3c15.5-11.5,25.5-29.9,25.5-50.7
			c0-1.2,0-2.3-0.1-3.4c-9-2.4-17.8-1.2-22.1,3.2c0,0-3.9,4.2-3.4,8.5c0.1,1.1,0.5,1.6,1.7,3.4c0.5,0.7,1,1.4,1.5,2.3
			c4.3,6.9,9.7,15.4,7.3,23.3C236.1,221.8,232.9,224,230.6,225.7z"/>
		<path class="st2" d="M139.4,190.4c1.8,1.6,3.7,3.3,5.2,5c2.1,2.3,4.4,4.4,6.9,6.3c2.3,1.8,3.9,3.8,5,6.2c1.4,3.2,1.2,5.8,1.1,7.7
			c-0.1,1.2-0.1,1.9,0.1,2.6c0.4,1,4.3,3.6,7.6,5.8c4.6,3.1,7.9,5.3,9.7,5.4c3,0.3,6.6-0.6,7.2-1.9c-0.1-0.5-0.7-1.7-1.1-2.7
			c-1.2-2.6-2.9-6.2-3.8-11.8c-0.6-3.6-0.6-6.1-0.6-7.9c0-2.3-0.1-2.4-0.5-3c-0.7-0.9-1.3-1.1-4.2-1.6c-2.1-0.4-4.7-0.8-7.9-2
			c-10-3.8-20.8-12.8-21-23.8c-0.1-6.5,2.6-14.6,9-17.3c6-2.5,12,0.8,19,4.6c2,1.1,3.7,2.1,5,3c-0.2-2.6-0.4-5.9-0.2-10.1
			c0.1-2.4,0.3-4.7,1.5-7.4c1.8-3.8,4.4-5.8,6.8-7.5c0.5-0.3,0.9-0.7,1.4-1c4.7-3.6,7.4-7,7.7-8.4c0.3-1.9-4.9-7.3-15.3-12.7
			c-24.4,4.3-44,22.6-50.1,46.3c-0.9,4.4,0.4,11.2,3.3,17.3C132.9,184.5,136.2,187.5,139.4,190.4z"/>
		<path class="st2" d="M218.6,236c-0.9-3-1.1-5.9-0.4-8.7c1.3-5,4.7-7.4,7.2-9.1c1.9-1.3,3-2.1,3.3-3.4c1.2-3.9-3.3-11.1-6.3-15.9
			c-0.5-0.8-1-1.5-1.4-2.1c-1.5-2.2-2.8-4.1-3.2-7.3c-1.2-8.5,5.1-15.2,5.8-16c5.9-6.1,16.3-8.4,27.3-6.4
			c-1.2-5.7-3.2-11.1-5.8-16.1c-2.2-2.6-5.1-3.2-9.1-2.3c-2.2,0.6-3.6,2-5.3,3.8c-2.1,2.3-4.8,5.1-9.5,5.7c-0.5,0.1-1.1,0.1-1.6,0.1
			c-4.8,0-10.3-2.5-12.2-7.2c-2.1-5,1-10.6,2.2-12.9c0.7-1.2,1.2-2,1.7-2.6c0.4-0.6,0.5-0.7,0.6-1.1c0.3-0.9,0.2-1.6,0-3.1
			c-0.1-0.7-0.2-1.4-0.2-2.2c-0.2-2.5,0.1-5.1,0.6-7.8c-5.9-2.3-12.2-3.8-18.8-4.3c5.4,4.3,9.5,9.4,8.5,15
			c-0.9,5.2-6.5,10.5-11.1,14c-0.5,0.4-1.1,0.8-1.6,1.2c-2.1,1.5-3.2,2.3-3.9,4c-0.5,1.1-0.6,2.1-0.7,4c-0.2,4.9,0.1,8.5,0.4,11.2
			c0.4,3.8,0.7,7.3-2.5,9.4c-3.4,2.2-6.7,0-9.5-2c-1.6-1.1-3.7-2.5-6.5-4c-4.8-2.6-9.2-5-11.3-4.2c-2.1,0.9-3.5,5.3-3.5,8.8
			c0.1,6.4,7.9,12.8,15.2,15.6c2.4,0.9,4.3,1.2,6.2,1.6c3.3,0.6,7,1.2,9.9,5c2.3,3,2.3,5.8,2.3,8.4c0,1.7,0,3.6,0.5,6.4
			c0.7,4.3,2.1,7.2,3.1,9.5c1.4,3,3,6.5,1,10.5c-2.8,5.4-9.5,6.9-14.2,6.9c-0.7,0-1.4,0-1.9-0.1c-4.1-0.4-7.8-2.9-13.8-6.9
			c-6.4-4.3-9.9-6.7-11.2-10.5c-0.8-2.4-0.6-4.4-0.5-6c0.1-1.4,0.2-2.2-0.3-3.3c-0.5-1-1.2-1.9-2.2-2.8c-2.8-2.2-5.6-4.6-8-7.3
			c-1.3-1.4-2.9-2.8-4.6-4.4c-2.2-1.9-4.5-4-6.5-6.3c5.1,29.7,31,52.4,62.2,52.4C199.8,243.3,209.8,240.7,218.6,236z"/>
		<path class="st2" d="M220.3,149.4c1.3-0.2,2.2-0.9,4-2.9c2-2.2,4.8-5.1,9.7-6.3c1.2-0.3,2.3-0.5,3.5-0.6
			c-4.6-5.5-10.2-10.2-16.5-13.9c-0.1,1-0.2,2-0.1,3c0,0.6,0.1,1.2,0.2,1.7c0.2,1.9,0.5,4.1-0.4,6.9c-0.6,1.9-1.3,2.9-1.9,3.7
			c-0.3,0.5-0.6,0.9-1,1.6c-2,3.8-1.9,4.9-1.8,5.2C216.2,148.5,218.3,149.6,220.3,149.4z"/>
		<path class="st4" d="M99,324H81h-9H70c3.6,3.1,7.3,6.2,11.1,9v0H99v11.9c2.9,1.7,5.9,3.3,9,4.9V333h162v16.8
			c3.1-1.5,6.1-3.2,9-4.9V333h18v0c3.8-2.9,7.5-5.9,11-9H108H99z"/>
		<path class="st4" d="M233.7,297v-9c0-2.1-1.5-3.9-3.5-4.4c-0.8-0.2-17.6-3.8-36.6-4.3v-9.2c47.7-2.2,85.8-41.7,85.8-90
			c0-32.9-17.6-62.6-46.2-78.6l4.8-9.6c1.1-2.2,0.2-4.8-2-5.9c-2.2-1.1-4.8-0.2-5.9,2l-12.8,25.7c-8.6-3.7-18.1-5.7-28-5.7
			c-33.6,0-61.9,23.1-69.9,54.3l0,0c0,0,0,0.1,0,0.1c-1.4,5.7-2.2,11.6-2.2,17.8c0,26.5,14.4,49.7,35.8,62.3L140.1,268
			c-1.1,2.2-0.2,4.8,2,5.9c0.6,0.3,1.3,0.5,2,0.5c1.6,0,3.1-0.9,3.9-2.4l4.8-9.5c10.1,4.5,20.8,7.1,31.8,7.6v9.2
			c-19.1,0.5-36.1,4.1-36.9,4.3c-2.1,0.4-3.6,2.3-3.6,4.4v9h-29.3c1.2-2.3,1.9-4.9,1.9-7.7v-46.4H72.3v9h-4.6
			c-7.4,0-13.5,6.1-13.5,13.5v9c0,7.4,6.1,13.5,13.5,13.5h4.6v1.4c0,2.8,0.7,5.4,1.9,7.7H45c2.3,3.1,4.7,6.1,7.2,9h273.5
			c2.5-2.9,4.9-5.9,7.2-9H233.7z M72.3,279h-4.6c-2.5,0-4.5-2-4.5-4.5v-9c0-2.5,2-4.5,4.5-4.5h4.6V279z M107.7,289.3
			c0,4.1-3.4,7.5-7.5,7.5H88.8c-4.1,0-7.5-3.4-7.5-7.5v-37.4h26.4V289.3z M224.7,297h-49.3h-22.3v-5.3c6.5-1.2,21-3.4,35.7-3.5
			c0.1,0,0.1,0,0.2,0c14.8,0,29.2,2.3,35.7,3.5V297z M217.7,142.6c0.4-0.7,0.7-1.1,1-1.6c0.6-0.8,1.4-1.9,1.9-3.7
			c0.9-2.8,0.6-5,0.4-6.9c-0.1-0.5-0.1-1.1-0.2-1.7c-0.1-1,0-2,0.1-3c6.2,3.7,11.8,8.4,16.5,13.9c-1.1,0.1-2.3,0.3-3.5,0.6
			c-4.8,1.2-7.6,4.2-9.7,6.3c-1.9,2-2.7,2.8-4,2.9c-2,0.3-4.1-0.9-4.4-1.5C215.8,147.6,215.7,146.4,217.7,142.6z M128.1,164.3
			c6.2-23.7,25.8-42,50.1-46.3c10.3,5.3,15.6,10.8,15.3,12.7c-0.2,1.4-3,4.8-7.7,8.4c-0.5,0.4-0.9,0.7-1.4,1c-2.4,1.7-5,3.6-6.8,7.5
			c-1.2,2.7-1.4,5-1.5,7.4c-0.2,4.1,0,7.5,0.2,10.1c-1.4-0.9-3-1.9-5-3c-7-3.8-13-7-19-4.6c-6.4,2.6-9.2,10.8-9,17.3
			c0.2,11,11,20,21,23.8c3.2,1.2,5.8,1.7,7.9,2c2.9,0.5,3.6,0.7,4.2,1.6c0.4,0.5,0.5,0.7,0.5,3c0,1.8,0,4.3,0.6,7.9
			c0.9,5.5,2.6,9.1,3.8,11.8c0.4,0.9,1,2.2,1.1,2.7c-0.7,1.2-4.2,2.2-7.2,1.9c-1.8-0.2-5.1-2.4-9.7-5.4c-3.4-2.3-7.2-4.8-7.6-5.8
			c-0.2-0.7-0.2-1.3-0.1-2.6c0.1-1.9,0.3-4.5-1.1-7.7c-1.1-2.4-2.7-4.4-5-6.2c-2.5-1.9-4.8-4-6.9-6.3c-1.6-1.7-3.4-3.4-5.2-5
			c-3.2-2.9-6.6-5.9-8-8.9C128.5,175.5,127.2,168.7,128.1,164.3z M127,190.9c2,2.3,4.3,4.4,6.5,6.3c1.7,1.5,3.3,3,4.6,4.4
			c2.5,2.7,5.2,5.1,8,7.3c1,0.8,1.8,1.7,2.2,2.8c0.5,1.1,0.4,1.9,0.3,3.3c-0.1,1.6-0.3,3.6,0.5,6c1.3,3.9,4.8,6.2,11.2,10.5
			c6.1,4.1,9.8,6.5,13.8,6.9c0.6,0.1,1.2,0.1,1.9,0.1c4.7,0,11.4-1.4,14.2-6.9c2.1-4.1,0.5-7.5-1-10.5c-1.1-2.3-2.4-5.1-3.1-9.5
			c-0.5-2.8-0.5-4.7-0.5-6.4c0-2.6,0-5.4-2.3-8.4c-2.9-3.8-6.6-4.4-9.9-5c-1.9-0.3-3.9-0.7-6.2-1.6c-7.3-2.8-15.1-9.1-15.2-15.6
			c-0.1-3.5,1.3-7.9,3.5-8.8c2-0.8,6.5,1.6,11.3,4.2c2.8,1.5,4.8,2.9,6.5,4c2.9,2,6.1,4.2,9.5,2c3.3-2.1,2.9-5.6,2.5-9.4
			c-0.3-2.6-0.6-6.3-0.4-11.2c0.1-1.9,0.2-2.9,0.7-4c0.7-1.6,1.9-2.5,3.9-4c0.5-0.4,1.1-0.8,1.6-1.2c4.6-3.5,10.2-8.8,11.1-14
			c1-5.5-3.2-10.7-8.5-15c6.6,0.5,12.9,2,18.8,4.3c-0.6,2.6-0.8,5.2-0.6,7.8c0.1,0.8,0.1,1.5,0.2,2.2c0.2,1.5,0.3,2.2,0,3.1
			c-0.1,0.4-0.2,0.5-0.6,1.1c-0.4,0.6-1,1.4-1.7,2.6c-1.3,2.4-4.3,7.9-2.2,12.9c1.9,4.7,7.4,7.2,12.2,7.2c0.6,0,1.1,0,1.6-0.1
			c4.7-0.6,7.3-3.4,9.5-5.7c1.7-1.8,3-3.2,5.3-3.8c4-1,6.8-0.3,9.1,2.3c2.6,5,4.6,10.4,5.8,16.1c-10.9-2-21.3,0.3-27.3,6.4
			c-0.7,0.7-7,7.5-5.8,16c0.4,3.2,1.7,5.1,3.2,7.3c0.4,0.6,0.9,1.3,1.4,2.1c3,4.7,7.5,11.9,6.3,15.9c-0.4,1.3-1.4,2-3.3,3.4
			c-2.5,1.7-6,4.1-7.2,9.1c-0.7,2.8-0.6,5.7,0.4,8.7c-8.8,4.6-18.8,7.3-29.4,7.3C158,243.3,132.1,220.6,127,190.9z M230.1,194.2
			c-0.6-0.9-1.1-1.7-1.5-2.3c-1.2-1.8-1.6-2.4-1.7-3.4c-0.6-4.3,3.3-8.5,3.4-8.5c4.3-4.4,13.1-5.6,22.1-3.2c0.1,1.1,0.1,2.3,0.1,3.4
			c0,20.7-10.1,39.2-25.5,50.7c0-0.5,0.1-0.9,0.2-1.3c0.4-1.6,1.5-2.4,3.6-3.9c2.3-1.6,5.5-3.8,6.9-8.2
			C239.8,209.6,234.4,201.1,230.1,194.2z M156.7,254.4l4-8c8.8,3.8,18.4,5.9,28.5,5.9c39.8,0,72.1-32.4,72.1-72.1
			c0-11.8-2.9-22.9-7.9-32.8l0.2-0.1c-0.3-0.4-0.5-0.8-0.8-1.1c-6.4-11.9-16-21.8-27.7-28.5l4-8.1c25.5,14.4,41.2,41.1,41.2,70.6
			c0,44.7-36.4,81.1-81.1,81.1C177.9,261.2,166.9,258.9,156.7,254.4z"/>
	</g>
</g>
<g id="Template_00000137826499921186087030000005737136165589515152_" class="st5">
	<g id="Margin" class="st6">
		<g id="Grid_00000025405613908455753680000013595087154757878659_" class="st7">
			<rect class="st8" width="378" height="378"/>
			<line class="st8" x1="0" y1="369" x2="378" y2="369"/>
			<line class="st8" x1="0" y1="360" x2="378" y2="360"/>
			<line class="st8" x1="0" y1="351" x2="378" y2="351"/>
			<line class="st8" x1="0" y1="342" x2="378" y2="342"/>
			<line class="st8" x1="0" y1="333" x2="378" y2="333"/>
			<line class="st8" x1="0" y1="324" x2="378" y2="324"/>
			<line class="st8" x1="0" y1="315" x2="378" y2="315"/>
			<line class="st8" x1="0" y1="306" x2="378" y2="306"/>
			<line class="st8" x1="0" y1="297" x2="378" y2="297"/>
			<line class="st8" x1="0" y1="288" x2="378" y2="288"/>
			<line class="st8" x1="0" y1="279" x2="378" y2="279"/>
			<line class="st8" x1="0" y1="270" x2="378" y2="270"/>
			<line class="st8" x1="0" y1="261" x2="378" y2="261"/>
			<line class="st8" x1="0" y1="252" x2="378" y2="252"/>
			<line class="st8" x1="0" y1="243" x2="378" y2="243"/>
			<line class="st8" x1="0" y1="234" x2="378" y2="234"/>
			<line class="st8" x1="0" y1="225" x2="378" y2="225"/>
			<line class="st8" x1="0" y1="216" x2="378" y2="216"/>
			<line class="st8" x1="0" y1="207" x2="378" y2="207"/>
			<line class="st8" x1="0" y1="198" x2="378" y2="198"/>
			<line class="st8" x1="0" y1="189" x2="378" y2="189"/>
			<line class="st8" x1="0" y1="180" x2="378" y2="180"/>
			<line class="st8" x1="0" y1="171" x2="378" y2="171"/>
			<line class="st8" x1="0" y1="162" x2="378" y2="162"/>
			<line class="st8" x1="0" y1="153" x2="378" y2="153"/>
			<line class="st8" x1="0" y1="144" x2="378" y2="144"/>
			<line class="st8" x1="0" y1="135" x2="378" y2="135"/>
			<line class="st8" x1="0" y1="126" x2="378" y2="126"/>
			<line class="st8" x1="0" y1="117" x2="378" y2="117"/>
			<line class="st8" x1="0" y1="108" x2="378" y2="108"/>
			<line class="st8" x1="0" y1="99" x2="378" y2="99"/>
			<line class="st8" x1="0" y1="90" x2="378" y2="90"/>
			<line class="st8" x1="0" y1="81" x2="378" y2="81"/>
			<line class="st8" x1="0" y1="72" x2="378" y2="72"/>
			<line class="st8" x1="0" y1="63" x2="378" y2="63"/>
			<line class="st8" x1="0" y1="54" x2="378" y2="54"/>
			<line class="st8" x1="0" y1="45" x2="378" y2="45"/>
			<line class="st8" x1="0" y1="36" x2="378" y2="36"/>
			<line class="st8" x1="0" y1="27" x2="378" y2="27"/>
			<line class="st8" x1="0" y1="18" x2="378" y2="18"/>
			<line class="st8" x1="0" y1="9" x2="378" y2="9"/>
			<line class="st8" x1="369" y1="0" x2="369" y2="378"/>
			<line class="st8" x1="360" y1="0" x2="360" y2="378"/>
			<line class="st8" x1="351" y1="0" x2="351" y2="378"/>
			<line class="st8" x1="342" y1="0" x2="342" y2="378"/>
			<line class="st8" x1="333" y1="0" x2="333" y2="378"/>
			<line class="st8" x1="324" y1="0" x2="324" y2="378"/>
			<line class="st8" x1="315" y1="0" x2="315" y2="378"/>
			<line class="st8" x1="306" y1="0" x2="306" y2="378"/>
			<line class="st8" x1="297" y1="0" x2="297" y2="378"/>
			<line class="st8" x1="288" y1="0" x2="288" y2="378"/>
			<line class="st8" x1="279" y1="0" x2="279" y2="378"/>
			<line class="st8" x1="270" y1="0" x2="270" y2="378"/>
			<line class="st8" x1="261" y1="0" x2="261" y2="378"/>
			<line class="st8" x1="252" y1="0" x2="252" y2="378"/>
			<line class="st8" x1="243" y1="0" x2="243" y2="378"/>
			<line class="st8" x1="234" y1="0" x2="234" y2="378"/>
			<line class="st8" x1="225" y1="0" x2="225" y2="378"/>
			<line class="st8" x1="216" y1="0" x2="216" y2="378"/>
			<line class="st8" x1="207" y1="0" x2="207" y2="378"/>
			<line class="st8" x1="198" y1="0" x2="198" y2="378"/>
			<line class="st8" x1="189" y1="0" x2="189" y2="378"/>
			<line class="st8" x1="180" y1="0" x2="180" y2="378"/>
			<line class="st8" x1="171" y1="0" x2="171" y2="378"/>
			<line class="st8" x1="162" y1="0" x2="162" y2="378"/>
			<line class="st8" x1="153" y1="0" x2="153" y2="378"/>
			<line class="st8" x1="144" y1="0" x2="144" y2="378"/>
			<line class="st8" x1="135" y1="0" x2="135" y2="378"/>
			<line class="st8" x1="126" y1="0" x2="126" y2="378"/>
			<line class="st8" x1="117" y1="0" x2="117" y2="378"/>
			<line class="st8" x1="108" y1="0" x2="108" y2="378"/>
			<line class="st8" x1="99" y1="0" x2="99" y2="378"/>
			<line class="st8" x1="90" y1="0" x2="90" y2="378"/>
			<line class="st8" x1="81" y1="0" x2="81" y2="378"/>
			<line class="st8" x1="72" y1="0" x2="72" y2="378"/>
			<line class="st8" x1="63" y1="0" x2="63" y2="378"/>
			<line class="st8" x1="54" y1="0" x2="54" y2="378"/>
			<line class="st8" x1="45" y1="0" x2="45" y2="378"/>
			<line class="st8" x1="36" y1="0" x2="36" y2="378"/>
			<line class="st8" x1="27" y1="0" x2="27" y2="378"/>
			<line class="st8" x1="18" y1="0" x2="18" y2="378"/>
			<line class="st8" x1="9" y1="0" x2="9" y2="378"/>
		</g>
		<g id="Diagram_00000116205305582871270980000000579715642606744713_">
			<g>
				<rect x="0" y="0" class="st9" width="378" height="378"/>
				<g>
					<line class="st9" x1="189" y1="0" x2="189" y2="378"/>
				</g>
				<g>
					<line class="st9" x1="378" y1="189" x2="0" y2="189"/>
				</g>
				<g>
					<line class="st9" x1="378" y1="0" x2="0" y2="378"/>
				</g>
				<g>
					<line class="st9" x1="378" y1="378" x2="0" y2="0"/>
				</g>
			</g>
			<rect x="9" y="9" class="st9" width="360" height="360"/>
			<circle class="st9" cx="189" cy="189" r="180"/>
			<circle class="st9" cx="189" cy="189" r="135"/>
		</g>
		<path id="Margin_00000076597246754779345710000001878603233358316456_" class="st10" d="M378,0H0v378h378l0,0l0,0V0z M9,369V9h360
			v360H9z"/>
	</g>
</g>
<g id="Assets">
	<g>
		<defs>
			<circle id="Circle_00000103963617816260476000000009772965560955764879_" cx="189" cy="189" r="180"/>
		</defs>
		<clipPath id="Circle_00000011019341624739088020000011533025184467341748_">
			<use xlink:href="#Circle_00000103963617816260476000000009772965560955764879_"  style="overflow:visible;"/>
		</clipPath>
	</g>
</g>
</svg>
