<?xml version="1.0" encoding="utf-8"?>
<!-- Generator: Adobe Illustrator 27.1.1, SVG Export Plug-In . SVG Version: 6.00 Build 0)  -->
<svg version="1.1" xmlns="http://www.w3.org/2000/svg" xmlns:xlink="http://www.w3.org/1999/xlink" x="0px" y="0px"
	 viewBox="0 0 378 378" style="enable-background:new 0 0 378 378;" xml:space="preserve">
<style type="text/css">
	.st0{fill:#EDEDEE;}
	.st1{fill:#FFFFFF;}
	.st2{fill:#00A0DE;}
	.st3{fill:#233670;}
	.st4{display:none;}
	.st5{display:inline;}
	.st6{opacity:0.14;}
	.st7{fill:none;stroke:#B9529F;stroke-width:0.35;stroke-miterlimit:10;}
	.st8{fill:none;stroke:#9F9E9E;stroke-width:0.35;stroke-miterlimit:10;}
	.st9{fill:#81D3F2;}
</style>
<g id="Background">
	<circle id="Circle_00000156570300777174252350000007178186824679620228_" class="st0" cx="189" cy="189" r="180"/>
</g>
<g id="Art">
	<g>
		<path class="st1" d="M189,288c37,0,73.9,2.4,109.3,7l-65.1-133.4l-8.8,12c-0.9,1.2-2.3,1.9-3.9,1.8c-1.5-0.1-2.9-0.9-3.6-2.2
			l-9.5-16.2l-65.1,41.8l-61,96C116.2,290.4,152.5,288,189,288z"/>
		<polygon class="st2" points="188.9,125.6 142.3,198.9 207.4,157.1 		"/>
		<path class="st3" d="M47.3,300c2.1,2.7,4.4,5.4,6.7,8c43-7.2,88.9-11,135-11s92,3.8,135,11c2.3-2.6,4.5-5.3,6.7-8
			c-7.2-1.2-14.4-2.4-21.7-3.5l-28.1-57.7l25.1-33.4l43.3,65.5c1.6-3.1,3.1-6.3,4.5-9.5L310,195.2c-0.8-1.2-2.2-2-3.6-2
			c-1.5,0-2.9,0.6-3.7,1.8l-26.2,34.9L238,151c-0.7-1.4-2.1-2.4-3.6-2.5c-1.6-0.1-3.1,0.5-4,1.8l-9.2,12.5l-27.7-47.1V103l3.2-1.2
			c4.8-1.8,10.1-1.8,14.9,0c4.8,1.8,10.1,1.8,14.9,0l7.7-2.9V72l-7.6,2.8c-4.8,1.8-10.1,1.8-14.9,0l0,0c-4.8-1.8-10.1-1.8-14.9,0
			l-3.2,1.2v-4c0-2.5-2-4.5-4.5-4.5s-4.5,2-4.5,4.5v43.7l-65,102.2l-31.7-42.8c-0.8-1.1-2.2-1.8-3.6-1.8c0,0,0,0,0,0
			c-1.4,0-2.8,0.7-3.6,1.9l-58.6,81c1.3,3.2,2.7,6.4,4.2,9.6l58.1-80.3l30.1,40.6l-44.7,70.4C62.1,297.5,54.7,298.7,47.3,300z
			 M142.3,198.9l46.6-73.3l18.5,31.5l9.5,16.2c0.8,1.3,2.1,2.1,3.6,2.2c1.5,0.1,3-0.6,3.9-1.8l8.8-12l65.1,133.4
			c-35.4-4.6-72.2-7-109.3-7c-36.5,0-72.8,2.3-107.7,6.8L142.3,198.9z"/>
	</g>
</g>
<g id="Template_00000137826499921186087030000005737136165589515152_" class="st4">
	<g id="Margin" class="st5">
		<g id="Grid_00000025405613908455753680000013595087154757878659_" class="st6">
			<rect class="st7" width="378" height="378"/>
			<line class="st7" x1="0" y1="369" x2="378" y2="369"/>
			<line class="st7" x1="0" y1="360" x2="378" y2="360"/>
			<line class="st7" x1="0" y1="351" x2="378" y2="351"/>
			<line class="st7" x1="0" y1="342" x2="378" y2="342"/>
			<line class="st7" x1="0" y1="333" x2="378" y2="333"/>
			<line class="st7" x1="0" y1="324" x2="378" y2="324"/>
			<line class="st7" x1="0" y1="315" x2="378" y2="315"/>
			<line class="st7" x1="0" y1="306" x2="378" y2="306"/>
			<line class="st7" x1="0" y1="297" x2="378" y2="297"/>
			<line class="st7" x1="0" y1="288" x2="378" y2="288"/>
			<line class="st7" x1="0" y1="279" x2="378" y2="279"/>
			<line class="st7" x1="0" y1="270" x2="378" y2="270"/>
			<line class="st7" x1="0" y1="261" x2="378" y2="261"/>
			<line class="st7" x1="0" y1="252" x2="378" y2="252"/>
			<line class="st7" x1="0" y1="243" x2="378" y2="243"/>
			<line class="st7" x1="0" y1="234" x2="378" y2="234"/>
			<line class="st7" x1="0" y1="225" x2="378" y2="225"/>
			<line class="st7" x1="0" y1="216" x2="378" y2="216"/>
			<line class="st7" x1="0" y1="207" x2="378" y2="207"/>
			<line class="st7" x1="0" y1="198" x2="378" y2="198"/>
			<line class="st7" x1="0" y1="189" x2="378" y2="189"/>
			<line class="st7" x1="0" y1="180" x2="378" y2="180"/>
			<line class="st7" x1="0" y1="171" x2="378" y2="171"/>
			<line class="st7" x1="0" y1="162" x2="378" y2="162"/>
			<line class="st7" x1="0" y1="153" x2="378" y2="153"/>
			<line class="st7" x1="0" y1="144" x2="378" y2="144"/>
			<line class="st7" x1="0" y1="135" x2="378" y2="135"/>
			<line class="st7" x1="0" y1="126" x2="378" y2="126"/>
			<line class="st7" x1="0" y1="117" x2="378" y2="117"/>
			<line class="st7" x1="0" y1="108" x2="378" y2="108"/>
			<line class="st7" x1="0" y1="99" x2="378" y2="99"/>
			<line class="st7" x1="0" y1="90" x2="378" y2="90"/>
			<line class="st7" x1="0" y1="81" x2="378" y2="81"/>
			<line class="st7" x1="0" y1="72" x2="378" y2="72"/>
			<line class="st7" x1="0" y1="63" x2="378" y2="63"/>
			<line class="st7" x1="0" y1="54" x2="378" y2="54"/>
			<line class="st7" x1="0" y1="45" x2="378" y2="45"/>
			<line class="st7" x1="0" y1="36" x2="378" y2="36"/>
			<line class="st7" x1="0" y1="27" x2="378" y2="27"/>
			<line class="st7" x1="0" y1="18" x2="378" y2="18"/>
			<line class="st7" x1="0" y1="9" x2="378" y2="9"/>
			<line class="st7" x1="369" y1="0" x2="369" y2="378"/>
			<line class="st7" x1="360" y1="0" x2="360" y2="378"/>
			<line class="st7" x1="351" y1="0" x2="351" y2="378"/>
			<line class="st7" x1="342" y1="0" x2="342" y2="378"/>
			<line class="st7" x1="333" y1="0" x2="333" y2="378"/>
			<line class="st7" x1="324" y1="0" x2="324" y2="378"/>
			<line class="st7" x1="315" y1="0" x2="315" y2="378"/>
			<line class="st7" x1="306" y1="0" x2="306" y2="378"/>
			<line class="st7" x1="297" y1="0" x2="297" y2="378"/>
			<line class="st7" x1="288" y1="0" x2="288" y2="378"/>
			<line class="st7" x1="279" y1="0" x2="279" y2="378"/>
			<line class="st7" x1="270" y1="0" x2="270" y2="378"/>
			<line class="st7" x1="261" y1="0" x2="261" y2="378"/>
			<line class="st7" x1="252" y1="0" x2="252" y2="378"/>
			<line class="st7" x1="243" y1="0" x2="243" y2="378"/>
			<line class="st7" x1="234" y1="0" x2="234" y2="378"/>
			<line class="st7" x1="225" y1="0" x2="225" y2="378"/>
			<line class="st7" x1="216" y1="0" x2="216" y2="378"/>
			<line class="st7" x1="207" y1="0" x2="207" y2="378"/>
			<line class="st7" x1="198" y1="0" x2="198" y2="378"/>
			<line class="st7" x1="189" y1="0" x2="189" y2="378"/>
			<line class="st7" x1="180" y1="0" x2="180" y2="378"/>
			<line class="st7" x1="171" y1="0" x2="171" y2="378"/>
			<line class="st7" x1="162" y1="0" x2="162" y2="378"/>
			<line class="st7" x1="153" y1="0" x2="153" y2="378"/>
			<line class="st7" x1="144" y1="0" x2="144" y2="378"/>
			<line class="st7" x1="135" y1="0" x2="135" y2="378"/>
			<line class="st7" x1="126" y1="0" x2="126" y2="378"/>
			<line class="st7" x1="117" y1="0" x2="117" y2="378"/>
			<line class="st7" x1="108" y1="0" x2="108" y2="378"/>
			<line class="st7" x1="99" y1="0" x2="99" y2="378"/>
			<line class="st7" x1="90" y1="0" x2="90" y2="378"/>
			<line class="st7" x1="81" y1="0" x2="81" y2="378"/>
			<line class="st7" x1="72" y1="0" x2="72" y2="378"/>
			<line class="st7" x1="63" y1="0" x2="63" y2="378"/>
			<line class="st7" x1="54" y1="0" x2="54" y2="378"/>
			<line class="st7" x1="45" y1="0" x2="45" y2="378"/>
			<line class="st7" x1="36" y1="0" x2="36" y2="378"/>
			<line class="st7" x1="27" y1="0" x2="27" y2="378"/>
			<line class="st7" x1="18" y1="0" x2="18" y2="378"/>
			<line class="st7" x1="9" y1="0" x2="9" y2="378"/>
		</g>
		<g id="Diagram_00000116205305582871270980000000579715642606744713_">
			<g>
				<rect x="0" y="0" class="st8" width="378" height="378"/>
				<g>
					<line class="st8" x1="189" y1="0" x2="189" y2="378"/>
				</g>
				<g>
					<line class="st8" x1="378" y1="189" x2="0" y2="189"/>
				</g>
				<g>
					<line class="st8" x1="378" y1="0" x2="0" y2="378"/>
				</g>
				<g>
					<line class="st8" x1="378" y1="378" x2="0" y2="0"/>
				</g>
			</g>
			<rect x="9" y="9" class="st8" width="360" height="360"/>
			<circle class="st8" cx="189" cy="189" r="180"/>
			<circle class="st8" cx="189" cy="189" r="135"/>
		</g>
		<path id="Margin_00000076597246754779345710000001878603233358316456_" class="st9" d="M378,0H0v378h378l0,0l0,0V0z M9,369V9h360
			v360H9z"/>
	</g>
</g>
<g id="Assets">
	<g>
		<defs>
			<circle id="Circle_00000103963617816260476000000009772965560955764879_" cx="189" cy="189" r="180"/>
		</defs>
		<clipPath id="Circle_00000111157059462798928050000000310901855739158974_">
			<use xlink:href="#Circle_00000103963617816260476000000009772965560955764879_"  style="overflow:visible;"/>
		</clipPath>
	</g>
</g>
</svg>
