<?xml version="1.0" encoding="utf-8"?>
<!-- Generator: Adobe Illustrator 27.0.1, SVG Export Plug-In . SVG Version: 6.00 Build 0)  -->
<svg version="1.1" xmlns="http://www.w3.org/2000/svg" xmlns:xlink="http://www.w3.org/1999/xlink" x="0px" y="0px"
	 viewBox="0 0 378 378" style="enable-background:new 0 0 378 378;" xml:space="preserve">
<style type="text/css">
	.st0{fill:#EDEDEE;}
	.st1{fill:#FFFFFF;}
	.st2{fill:#00A0DE;}
	.st3{fill:#233670;}
	.st4{display:none;}
	.st5{display:inline;}
	.st6{opacity:0.14;}
	.st7{fill:none;stroke:#B9529F;stroke-width:0.35;stroke-miterlimit:10;}
	.st8{fill:none;stroke:#9F9E9E;stroke-width:0.35;stroke-miterlimit:10;}
	.st9{fill:#81D3F2;}
</style>
<g id="Background">
	<circle id="Circle_00000156570300777174252350000007178186824679620228_" class="st0" cx="189" cy="189" r="180"/>
</g>
<g id="Art">
	<g>
		<path class="st0" d="M189,9C89.6,9,9,89.6,9,189c0,99.4,80.6,180,180,180s180-80.6,180-180C369,89.6,288.4,9,189,9z M243,259.3
			V293h-36v-20c-5.8,1-11.9,1.6-18,1.6s-12.2-0.5-18-1.6v20h-36v-33.7c-29.7-18.2-49.5-51-49.5-88.3c0-26.9,10.3-51.5,27.2-69.9
			l-2.8-2.8H102c-2.4,0-4.7-0.9-6.4-2.6L82,82c-0.6-0.6-0.2-1.7,0.7-1.7l15.6,0l0-15.6c0-0.9,1.1-1.3,1.7-0.7l13.7,13.7
			c1.7,1.7,2.6,4,2.6,6.4v7.9l2.8,2.8c18.4-16.9,43-27.2,69.9-27.2c57.1,0,103.5,46.4,103.5,103.5C292.5,208.3,272.7,241,243,259.3z
			"/>
		<path class="st1" d="M189,265.5c52.1,0,94.5-42.4,94.5-94.5S241.1,76.5,189,76.5c-24.4,0-46.7,9.3-63.5,24.6l18.9,18.9
			c12-10.5,27.7-17,44.9-17c37.5,0,68,30.5,68,68s-30.5,68-68,68s-68-30.5-68-68c0-17.1,6.3-32.7,16.8-44.6l-18.9-18.9
			c-15.3,16.8-24.6,39.1-24.6,63.5C94.5,223.1,136.9,265.5,189,265.5z"/>
		<path class="st1" d="M189.2,230c32.5,0,59-26.5,59-59s-26.5-59-59-59c-14.7,0-28.1,5.4-38.5,14.3l20.2,20.2c5-3.7,11.3-6,18-6
			c16.8,0,30.4,13.6,30.4,30.4s-13.6,30.4-30.4,30.4s-30.4-13.6-30.4-30.4c0-6.8,2.2-13,6-18l-20.2-20.2
			c-8.8,10.3-14.1,23.7-14.1,38.3C130.2,203.5,156.7,230,189.2,230z"/>
		<path class="st2" d="M169.2,183.8l16-10.2l-15.8-15.8c-2.5,3.8-4,8.3-4,13.2C165.4,175.7,166.8,180.1,169.2,183.8z"/>
		<path class="st2" d="M189,147.4c-4.9,0-9.4,1.5-13.2,4l16.4,16.4c0.3,0.3,0.5,0.6,0.7,0.9l16.1-10.3
			C204.8,151.8,197.4,147.4,189,147.4z"/>
		<path class="st3" d="M189,67.5c-26.9,0-51.5,10.3-69.9,27.2l-2.8-2.8V84c0-2.4-0.9-4.7-2.6-6.4L100,64c-0.6-0.6-1.7-0.2-1.7,0.7
			l0,15.6l-15.6,0c-0.9,0-1.3,1.1-0.7,1.7l13.7,13.7c1.7,1.7,4,2.6,6.4,2.6h7.9l2.8,2.8c-16.9,18.4-27.2,43-27.2,69.9
			c0,37.3,19.8,70,49.5,88.3V293h36v-20c5.8,1,11.9,1.6,18,1.6s12.2-0.5,18-1.6v20h36v-33.7c29.7-18.2,49.5-51,49.5-88.3
			C292.5,113.9,246.1,67.5,189,67.5z M130.2,171c0-14.6,5.3-28,14.1-38.3l20.2,20.2c-3.7,5-6,11.3-6,18c0,16.8,13.6,30.4,30.4,30.4
			s30.4-13.6,30.4-30.4s-13.6-30.4-30.4-30.4c-6.8,0-13,2.2-18,6l-20.2-20.2c10.3-8.9,23.8-14.3,38.5-14.3c32.5,0,59,26.5,59,59
			s-26.5,59-59,59S130.2,203.5,130.2,171z M185.2,173.6l-16,10.2c-2.4-3.7-3.8-8.1-3.8-12.8c0-4.9,1.5-9.4,4-13.2L185.2,173.6z
			 M192.9,168.7c-0.2-0.3-0.4-0.6-0.7-0.9l-16.4-16.4c3.8-2.5,8.3-4,13.2-4c8.4,0,15.8,4.4,20,11L192.9,168.7z M138,126.4
			c-10.4,12-16.8,27.6-16.8,44.6c0,37.5,30.5,68,68,68s68-30.5,68-68s-30.5-68-68-68c-17.2,0-32.9,6.4-44.9,17l-18.9-18.9
			c16.8-15.3,39.1-24.6,63.5-24.6c52.1,0,94.5,42.4,94.5,94.5s-42.4,94.5-94.5,94.5S94.5,223.1,94.5,171c0-24.4,9.3-46.7,24.6-63.5
			L138,126.4z"/>
	</g>
</g>
<g id="Template_00000137826499921186087030000005737136165589515152_" class="st4">
	<g id="Margin" class="st5">
		<g id="Grid_00000025405613908455753680000013595087154757878659_" class="st6">
			<rect class="st7" width="378" height="378"/>
			<line class="st7" x1="0" y1="369" x2="378" y2="369"/>
			<line class="st7" x1="0" y1="360" x2="378" y2="360"/>
			<line class="st7" x1="0" y1="351" x2="378" y2="351"/>
			<line class="st7" x1="0" y1="342" x2="378" y2="342"/>
			<line class="st7" x1="0" y1="333" x2="378" y2="333"/>
			<line class="st7" x1="0" y1="324" x2="378" y2="324"/>
			<line class="st7" x1="0" y1="315" x2="378" y2="315"/>
			<line class="st7" x1="0" y1="306" x2="378" y2="306"/>
			<line class="st7" x1="0" y1="297" x2="378" y2="297"/>
			<line class="st7" x1="0" y1="288" x2="378" y2="288"/>
			<line class="st7" x1="0" y1="279" x2="378" y2="279"/>
			<line class="st7" x1="0" y1="270" x2="378" y2="270"/>
			<line class="st7" x1="0" y1="261" x2="378" y2="261"/>
			<line class="st7" x1="0" y1="252" x2="378" y2="252"/>
			<line class="st7" x1="0" y1="243" x2="378" y2="243"/>
			<line class="st7" x1="0" y1="234" x2="378" y2="234"/>
			<line class="st7" x1="0" y1="225" x2="378" y2="225"/>
			<line class="st7" x1="0" y1="216" x2="378" y2="216"/>
			<line class="st7" x1="0" y1="207" x2="378" y2="207"/>
			<line class="st7" x1="0" y1="198" x2="378" y2="198"/>
			<line class="st7" x1="0" y1="189" x2="378" y2="189"/>
			<line class="st7" x1="0" y1="180" x2="378" y2="180"/>
			<line class="st7" x1="0" y1="171" x2="378" y2="171"/>
			<line class="st7" x1="0" y1="162" x2="378" y2="162"/>
			<line class="st7" x1="0" y1="153" x2="378" y2="153"/>
			<line class="st7" x1="0" y1="144" x2="378" y2="144"/>
			<line class="st7" x1="0" y1="135" x2="378" y2="135"/>
			<line class="st7" x1="0" y1="126" x2="378" y2="126"/>
			<line class="st7" x1="0" y1="117" x2="378" y2="117"/>
			<line class="st7" x1="0" y1="108" x2="378" y2="108"/>
			<line class="st7" x1="0" y1="99" x2="378" y2="99"/>
			<line class="st7" x1="0" y1="90" x2="378" y2="90"/>
			<line class="st7" x1="0" y1="81" x2="378" y2="81"/>
			<line class="st7" x1="0" y1="72" x2="378" y2="72"/>
			<line class="st7" x1="0" y1="63" x2="378" y2="63"/>
			<line class="st7" x1="0" y1="54" x2="378" y2="54"/>
			<line class="st7" x1="0" y1="45" x2="378" y2="45"/>
			<line class="st7" x1="0" y1="36" x2="378" y2="36"/>
			<line class="st7" x1="0" y1="27" x2="378" y2="27"/>
			<line class="st7" x1="0" y1="18" x2="378" y2="18"/>
			<line class="st7" x1="0" y1="9" x2="378" y2="9"/>
			<line class="st7" x1="369" y1="0" x2="369" y2="378"/>
			<line class="st7" x1="360" y1="0" x2="360" y2="378"/>
			<line class="st7" x1="351" y1="0" x2="351" y2="378"/>
			<line class="st7" x1="342" y1="0" x2="342" y2="378"/>
			<line class="st7" x1="333" y1="0" x2="333" y2="378"/>
			<line class="st7" x1="324" y1="0" x2="324" y2="378"/>
			<line class="st7" x1="315" y1="0" x2="315" y2="378"/>
			<line class="st7" x1="306" y1="0" x2="306" y2="378"/>
			<line class="st7" x1="297" y1="0" x2="297" y2="378"/>
			<line class="st7" x1="288" y1="0" x2="288" y2="378"/>
			<line class="st7" x1="279" y1="0" x2="279" y2="378"/>
			<line class="st7" x1="270" y1="0" x2="270" y2="378"/>
			<line class="st7" x1="261" y1="0" x2="261" y2="378"/>
			<line class="st7" x1="252" y1="0" x2="252" y2="378"/>
			<line class="st7" x1="243" y1="0" x2="243" y2="378"/>
			<line class="st7" x1="234" y1="0" x2="234" y2="378"/>
			<line class="st7" x1="225" y1="0" x2="225" y2="378"/>
			<line class="st7" x1="216" y1="0" x2="216" y2="378"/>
			<line class="st7" x1="207" y1="0" x2="207" y2="378"/>
			<line class="st7" x1="198" y1="0" x2="198" y2="378"/>
			<line class="st7" x1="189" y1="0" x2="189" y2="378"/>
			<line class="st7" x1="180" y1="0" x2="180" y2="378"/>
			<line class="st7" x1="171" y1="0" x2="171" y2="378"/>
			<line class="st7" x1="162" y1="0" x2="162" y2="378"/>
			<line class="st7" x1="153" y1="0" x2="153" y2="378"/>
			<line class="st7" x1="144" y1="0" x2="144" y2="378"/>
			<line class="st7" x1="135" y1="0" x2="135" y2="378"/>
			<line class="st7" x1="126" y1="0" x2="126" y2="378"/>
			<line class="st7" x1="117" y1="0" x2="117" y2="378"/>
			<line class="st7" x1="108" y1="0" x2="108" y2="378"/>
			<line class="st7" x1="99" y1="0" x2="99" y2="378"/>
			<line class="st7" x1="90" y1="0" x2="90" y2="378"/>
			<line class="st7" x1="81" y1="0" x2="81" y2="378"/>
			<line class="st7" x1="72" y1="0" x2="72" y2="378"/>
			<line class="st7" x1="63" y1="0" x2="63" y2="378"/>
			<line class="st7" x1="54" y1="0" x2="54" y2="378"/>
			<line class="st7" x1="45" y1="0" x2="45" y2="378"/>
			<line class="st7" x1="36" y1="0" x2="36" y2="378"/>
			<line class="st7" x1="27" y1="0" x2="27" y2="378"/>
			<line class="st7" x1="18" y1="0" x2="18" y2="378"/>
			<line class="st7" x1="9" y1="0" x2="9" y2="378"/>
		</g>
		<g id="Diagram_00000116205305582871270980000000579715642606744713_">
			<g>
				<rect x="0" y="0" class="st8" width="378" height="378"/>
				<g>
					<line class="st8" x1="189" y1="0" x2="189" y2="378"/>
				</g>
				<g>
					<line class="st8" x1="378" y1="189" x2="0" y2="189"/>
				</g>
				<g>
					<line class="st8" x1="378" y1="0" x2="0" y2="378"/>
				</g>
				<g>
					<line class="st8" x1="378" y1="378" x2="0" y2="0"/>
				</g>
			</g>
			<rect x="9" y="9" class="st8" width="360" height="360"/>
			<circle class="st8" cx="189" cy="189" r="180"/>
			<circle class="st8" cx="189" cy="189" r="135"/>
		</g>
		<path id="Margin_00000076597246754779345710000001878603233358316456_" class="st9" d="M378,0H0v378h378l0,0l0,0V0z M9,369V9h360
			v360H9z"/>
	</g>
</g>
<g id="Assets">
	<g>
		<defs>
			<circle id="Circle_00000103963617816260476000000009772965560955764879_" cx="189" cy="189" r="180"/>
		</defs>
		<clipPath id="Circle_00000067213375075408854300000000015695542443784884_">
			<use xlink:href="#Circle_00000103963617816260476000000009772965560955764879_"  style="overflow:visible;"/>
		</clipPath>
	</g>
	<path class="st3" d="M47.3,300c2.1,2.7,4.4,5.4,6.7,8c43-7.2,88.9-11,135-11s92,3.8,135,11c2.3-2.6,4.5-5.3,6.7-8
		c-45-7.9-93.2-12-141.7-12S92.3,292.2,47.3,300z"/>
</g>
</svg>
