<?xml version="1.0" encoding="utf-8"?>
<!-- Generator: Adobe Illustrator 27.3.1, SVG Export Plug-In . SVG Version: 6.00 Build 0)  -->
<svg version="1.1" xmlns="http://www.w3.org/2000/svg" xmlns:xlink="http://www.w3.org/1999/xlink" x="0px" y="0px"
	 viewBox="0 0 378.35 378.35" style="enable-background:new 0 0 378.35 378.35;" xml:space="preserve">
<style type="text/css">
	.st0{fill:#EDEDEE;}
	.st1{fill:#FFFFFF;}
	.st2{clip-path:url(#SVGID_00000047025652796028339360000007192262974925411516_);}
	.st3{fill:#002E75;}
	.st4{fill:#00A0DF;}
	.st5{display:none;}
	.st6{display:inline;opacity:0.14;}
	.st7{fill:none;stroke:#FE01FE;stroke-width:0.35;stroke-miterlimit:10;}
	.st8{display:inline;}
	.st9{fill:none;stroke:#9F9F9F;stroke-width:0.35;stroke-miterlimit:10;}
	.st10{display:inline;fill:#75DDFD;}
</style>
<g id="background">
	<circle id="Circle_00000132807872634772586270000003876296651704150697_" class="st0" cx="189.18" cy="189.17" r="180"/>
</g>
<g id="artwork">
	<g>
		<path class="st1" d="M252.48,284.2H125.87c-6.93,0-12.55-5.62-12.55-12.55V145.04c0-6.93,5.62-12.55,12.55-12.55h126.61
			c6.93,0,12.55,5.62,12.55,12.55v126.61C265.03,278.58,259.41,284.2,252.48,284.2z"/>
	</g>
	<g>
		<defs>
			<circle id="SVGID_1_" cx="189.18" cy="189.17" r="180"/>
		</defs>
		<clipPath id="SVGID_00000086686355028231386330000000276218723348969396_">
			<use xlink:href="#SVGID_1_"  style="overflow:visible;"/>
		</clipPath>
		<g style="clip-path:url(#SVGID_00000086686355028231386330000000276218723348969396_);">
			<rect x="23.67" y="297.33" class="st3" width="331.01" height="9"/>
		</g>
		<g style="clip-path:url(#SVGID_00000086686355028231386330000000276218723348969396_);">
			<rect x="23.67" y="324.33" class="st3" width="331.01" height="9"/>
		</g>
		<g style="clip-path:url(#SVGID_00000086686355028231386330000000276218723348969396_);">
			<rect x="72.21" y="324.33" class="st3" width="9" height="85.1"/>
		</g>
		<g style="clip-path:url(#SVGID_00000086686355028231386330000000276218723348969396_);">
			<polygon class="st3" points="306.18,324.33 297.18,324.33 297.18,409.43 306.18,409.43 306.18,324.33 			"/>
		</g>
		<g style="clip-path:url(#SVGID_00000086686355028231386330000000276218723348969396_);">
			<rect x="99.14" y="324.33" class="st3" width="9" height="85.1"/>
		</g>
		<g style="clip-path:url(#SVGID_00000086686355028231386330000000276218723348969396_);">
			<polygon class="st3" points="279.18,324.33 270.18,324.33 270.18,409.43 279.18,409.43 279.18,324.33 			"/>
		</g>
	</g>
	<g>
		<circle class="st1" cx="189.18" cy="207.27" r="58.64"/>
		<path class="st3" d="M189.17,270.41c-34.82,0-63.14-28.33-63.14-63.14c0-34.82,28.33-63.14,63.14-63.14s63.14,28.33,63.14,63.14
			C252.32,242.09,223.99,270.41,189.17,270.41z M189.17,153.13c-29.85,0-54.14,24.29-54.14,54.14s24.29,54.14,54.14,54.14
			s54.14-24.29,54.14-54.14S219.03,153.13,189.17,153.13z"/>
	</g>
	<g>
		<path class="st3" d="M189.17,215.85c-2.49,0-4.5-2.01-4.5-4.5v-35.87c0-2.49,2.01-4.5,4.5-4.5s4.5,2.01,4.5,4.5v35.87
			C193.67,213.84,191.66,215.85,189.17,215.85z"/>
	</g>
	<g>
		<path class="st3" d="M212.94,229.74c-0.76,0-1.54-0.19-2.25-0.6l-23.84-13.76c-2.15-1.24-2.89-3.99-1.65-6.15
			c1.24-2.15,4-2.89,6.15-1.65l23.84,13.76c2.15,1.24,2.89,3.99,1.65,6.15C216,228.93,214.49,229.74,212.94,229.74z"/>
	</g>
	<g>
		<path class="st4" d="M128.79,201.9L128.79,201.9l75.28-48.66l-26.64,0.01C150.56,153.25,128.79,175.03,128.79,201.9z"/>
	</g>
	<g>
		<path class="st3" d="M253.55,288.7H124.8c-9.4,0-17.05-7.65-17.05-17.05V142.9c0-9.4,7.65-17.05,17.05-17.05h128.75
			c9.4,0,17.05,7.65,17.05,17.05v128.75C270.6,281.05,262.95,288.7,253.55,288.7z M124.8,134.85c-4.44,0-8.05,3.61-8.05,8.05v128.75
			c0,4.44,3.61,8.05,8.05,8.05h128.75c4.44,0,8.05-3.61,8.05-8.05V142.9c0-4.44-3.61-8.05-8.05-8.05H124.8z"/>
	</g>
	<g>
		<path class="st3" d="M189.17,270.41c-34.82,0-63.14-28.33-63.14-63.14c0-34.82,28.33-63.14,63.14-63.14s63.14,28.33,63.14,63.14
			C252.32,242.09,223.99,270.41,189.17,270.41z M189.17,153.13c-29.85,0-54.14,24.29-54.14,54.14s24.29,54.14,54.14,54.14
			s54.14-24.29,54.14-54.14S219.03,153.13,189.17,153.13z"/>
	</g>
	<g>
		<rect x="126.17" y="288.41" class="st3" width="126" height="9"/>
	</g>
</g>
<g id="template" class="st5">
	<g id="Grid_00000067200233831699721130000018270524158483171491_" class="st6">
		<rect x="0.17" y="0.17" class="st7" width="378" height="378"/>
		<line class="st7" x1="0.17" y1="369.17" x2="378.17" y2="369.17"/>
		<line class="st7" x1="0.17" y1="360.17" x2="378.17" y2="360.17"/>
		<line class="st7" x1="0.17" y1="351.17" x2="378.17" y2="351.17"/>
		<line class="st7" x1="0.17" y1="342.17" x2="378.17" y2="342.17"/>
		<line class="st7" x1="0.17" y1="333.17" x2="378.17" y2="333.17"/>
		<line class="st7" x1="0.17" y1="324.17" x2="378.17" y2="324.17"/>
		<line class="st7" x1="0.17" y1="315.17" x2="378.17" y2="315.17"/>
		<line class="st7" x1="0.17" y1="306.17" x2="378.17" y2="306.17"/>
		<line class="st7" x1="0.17" y1="297.17" x2="378.17" y2="297.17"/>
		<line class="st7" x1="0.17" y1="288.17" x2="378.17" y2="288.17"/>
		<line class="st7" x1="0.17" y1="279.17" x2="378.17" y2="279.17"/>
		<line class="st7" x1="0.17" y1="270.17" x2="378.17" y2="270.17"/>
		<line class="st7" x1="0.17" y1="261.17" x2="378.17" y2="261.17"/>
		<line class="st7" x1="0.17" y1="252.17" x2="378.17" y2="252.17"/>
		<line class="st7" x1="0.17" y1="243.17" x2="378.17" y2="243.17"/>
		<line class="st7" x1="0.17" y1="234.17" x2="378.17" y2="234.17"/>
		<line class="st7" x1="0.17" y1="225.17" x2="378.17" y2="225.17"/>
		<line class="st7" x1="0.17" y1="216.17" x2="378.17" y2="216.17"/>
		<line class="st7" x1="0.17" y1="207.17" x2="378.17" y2="207.17"/>
		<line class="st7" x1="0.17" y1="198.17" x2="378.17" y2="198.17"/>
		<line class="st7" x1="0.17" y1="189.17" x2="378.17" y2="189.17"/>
		<line class="st7" x1="0.17" y1="180.17" x2="378.17" y2="180.17"/>
		<line class="st7" x1="0.17" y1="171.17" x2="378.17" y2="171.17"/>
		<line class="st7" x1="0.17" y1="162.17" x2="378.17" y2="162.17"/>
		<line class="st7" x1="0.17" y1="153.17" x2="378.17" y2="153.17"/>
		<line class="st7" x1="0.17" y1="144.17" x2="378.17" y2="144.17"/>
		<line class="st7" x1="0.17" y1="135.17" x2="378.17" y2="135.17"/>
		<line class="st7" x1="0.17" y1="126.17" x2="378.17" y2="126.17"/>
		<line class="st7" x1="0.17" y1="117.17" x2="378.17" y2="117.17"/>
		<line class="st7" x1="0.17" y1="108.17" x2="378.17" y2="108.17"/>
		<line class="st7" x1="0.17" y1="99.17" x2="378.17" y2="99.17"/>
		<line class="st7" x1="0.17" y1="90.17" x2="378.17" y2="90.17"/>
		<line class="st7" x1="0.17" y1="81.17" x2="378.17" y2="81.17"/>
		<line class="st7" x1="0.17" y1="72.17" x2="378.17" y2="72.17"/>
		<line class="st7" x1="0.17" y1="63.17" x2="378.17" y2="63.17"/>
		<line class="st7" x1="0.17" y1="54.17" x2="378.17" y2="54.17"/>
		<line class="st7" x1="0.17" y1="45.17" x2="378.17" y2="45.17"/>
		<line class="st7" x1="0.17" y1="36.17" x2="378.17" y2="36.17"/>
		<line class="st7" x1="0.17" y1="27.17" x2="378.17" y2="27.17"/>
		<line class="st7" x1="0.17" y1="18.17" x2="378.17" y2="18.17"/>
		<line class="st7" x1="0.17" y1="9.17" x2="378.17" y2="9.17"/>
		<line class="st7" x1="369.17" y1="0.17" x2="369.17" y2="378.17"/>
		<line class="st7" x1="360.17" y1="0.17" x2="360.17" y2="378.17"/>
		<line class="st7" x1="351.17" y1="0.17" x2="351.17" y2="378.17"/>
		<line class="st7" x1="342.17" y1="0.17" x2="342.17" y2="378.17"/>
		<line class="st7" x1="333.17" y1="0.17" x2="333.17" y2="378.17"/>
		<line class="st7" x1="324.17" y1="0.17" x2="324.17" y2="378.17"/>
		<line class="st7" x1="315.17" y1="0.17" x2="315.17" y2="378.17"/>
		<line class="st7" x1="306.17" y1="0.17" x2="306.17" y2="378.17"/>
		<line class="st7" x1="297.17" y1="0.17" x2="297.17" y2="378.17"/>
		<line class="st7" x1="288.17" y1="0.17" x2="288.17" y2="378.17"/>
		<line class="st7" x1="279.17" y1="0.17" x2="279.17" y2="378.17"/>
		<line class="st7" x1="270.17" y1="0.17" x2="270.17" y2="378.17"/>
		<line class="st7" x1="261.17" y1="0.17" x2="261.17" y2="378.17"/>
		<line class="st7" x1="252.18" y1="0.17" x2="252.18" y2="378.17"/>
		<line class="st7" x1="243.18" y1="0.17" x2="243.18" y2="378.17"/>
		<line class="st7" x1="234.18" y1="0.17" x2="234.18" y2="378.17"/>
		<line class="st7" x1="225.18" y1="0.17" x2="225.18" y2="378.17"/>
		<line class="st7" x1="216.18" y1="0.17" x2="216.18" y2="378.17"/>
		<line class="st7" x1="207.18" y1="0.17" x2="207.18" y2="378.17"/>
		<line class="st7" x1="198.18" y1="0.17" x2="198.18" y2="378.17"/>
		<line class="st7" x1="189.18" y1="0.17" x2="189.18" y2="378.17"/>
		<line class="st7" x1="180.18" y1="0.17" x2="180.18" y2="378.17"/>
		<line class="st7" x1="171.18" y1="0.17" x2="171.18" y2="378.17"/>
		<line class="st7" x1="162.18" y1="0.17" x2="162.18" y2="378.17"/>
		<line class="st7" x1="153.18" y1="0.17" x2="153.18" y2="378.17"/>
		<line class="st7" x1="144.18" y1="0.17" x2="144.18" y2="378.17"/>
		<line class="st7" x1="135.18" y1="0.17" x2="135.18" y2="378.17"/>
		<line class="st7" x1="126.18" y1="0.17" x2="126.18" y2="378.17"/>
		<line class="st7" x1="117.18" y1="0.17" x2="117.18" y2="378.17"/>
		<line class="st7" x1="108.18" y1="0.17" x2="108.18" y2="378.17"/>
		<line class="st7" x1="99.18" y1="0.17" x2="99.18" y2="378.17"/>
		<line class="st7" x1="90.18" y1="0.17" x2="90.18" y2="378.17"/>
		<line class="st7" x1="81.18" y1="0.17" x2="81.18" y2="378.17"/>
		<line class="st7" x1="72.18" y1="0.17" x2="72.18" y2="378.17"/>
		<line class="st7" x1="63.17" y1="0.17" x2="63.17" y2="378.17"/>
		<line class="st7" x1="54.17" y1="0.17" x2="54.17" y2="378.17"/>
		<line class="st7" x1="45.17" y1="0.17" x2="45.17" y2="378.17"/>
		<line class="st7" x1="36.17" y1="0.17" x2="36.17" y2="378.17"/>
		<line class="st7" x1="27.17" y1="0.17" x2="27.17" y2="378.17"/>
		<line class="st7" x1="18.17" y1="0.17" x2="18.17" y2="378.17"/>
		<line class="st7" x1="9.18" y1="0.17" x2="9.18" y2="378.17"/>
	</g>
	<g id="Diagram_00000022542386108908214960000013700877933858011304_" class="st8">
		<g>
			<rect x="0.17" y="0.17" class="st9" width="378" height="378"/>
			<g>
				<line class="st9" x1="189.17" y1="0.17" x2="189.17" y2="378.17"/>
			</g>
			<g>
				<line class="st9" x1="378.17" y1="189.17" x2="0.18" y2="189.17"/>
			</g>
			<g>
				<line class="st9" x1="378.17" y1="0.17" x2="0.18" y2="378.17"/>
			</g>
			<g>
				<line class="st9" x1="378.17" y1="378.17" x2="0.18" y2="0.17"/>
			</g>
		</g>
		<rect x="9.18" y="9.17" class="st9" width="360" height="360"/>
		<circle class="st9" cx="189.18" cy="189.17" r="180"/>
		<circle class="st9" cx="189.18" cy="189.17" r="135"/>
	</g>
	<path id="Margin_00000143613757159736013770000005859637133986846382_" class="st10" d="M378.17,0.17h-378v378h378l0,0l0,0V0.17z
		 M9.18,369.17v-360h360v360H9.18z"/>
</g>
</svg>
