<?xml version="1.0" encoding="utf-8"?>
<!-- Generator: Adobe Illustrator 27.5.0, SVG Export Plug-In . SVG Version: 6.00 Build 0)  -->
<svg version="1.1" xmlns="http://www.w3.org/2000/svg" xmlns:xlink="http://www.w3.org/1999/xlink" x="0px" y="0px"
	 viewBox="0 0 378 378" style="enable-background:new 0 0 378 378;" xml:space="preserve">
<style type="text/css">
	.st0{fill:#EDEDEE;}
	.st1{fill:#0B2D71;}
	.st2{fill:#0066B2;}
	.st3{fill:none;}
	.st4{fill:#FFFFFF;}
	.st5{fill:#009DD9;}
	.st6{display:none;}
	.st7{display:inline;opacity:0.14;}
	.st8{fill:none;stroke:#FE01FE;stroke-width:0.35;stroke-miterlimit:10;}
	.st9{display:inline;}
	.st10{fill:none;stroke:#9F9F9F;stroke-width:0.35;stroke-miterlimit:10;}
	.st11{display:inline;fill:#75DDFD;}
</style>
<g id="background">
	<circle id="Circle_00000021085964926068802830000008103766877091176120_" class="st0" cx="189" cy="189" r="180"/>
</g>
<g id="artwork">
	<g>
		<path class="st1" d="M278.97,247.64c-0.29,0-0.59,0-0.88-0.01c-5.33-0.17-10.35-1.8-14.9-4.86l5.01-7.48
			c3.13,2.1,6.56,3.22,10.18,3.34c4.12,0.13,8.03-1.05,11.62-3.5l5.07,7.44C290.19,245.9,284.64,247.64,278.97,247.64z"/>
	</g>
	<path class="st2" d="M313.44,252.13c0,0-3.27-3.95-6.78-8.99c-2.63-3.78-5.95-8.52-1.92-16.5c3.67-6.53,5.83-14.55,5.83-23.22
		c0-21.73-13.56-39.38-30.39-39.7h-2.36c-16.83,0.32-30.39,17.97-30.39,39.7c0,8.67,2.17,16.69,5.83,23.22
		c4.02,7.98,0.71,12.72-1.92,16.5c-3.51,5.04-6.78,8.99-6.78,8.99s12.1,11.06,33.26,11.32h2.36
		C301.34,263.19,313.44,252.13,313.44,252.13z"/>
	<g>
		<path class="st0" d="M279,228.2c-10.14,0-18.39-11.2-18.39-24.96c0-5.77,1.46-11.27,4.15-15.72h28.48
			c2.69,4.45,4.15,9.95,4.15,15.72C297.39,217,289.14,228.2,279,228.2z"/>
	</g>
	<path class="st1" d="M141.18,244.42c-0.05-36.44-0.12-37.45-0.16-37.93c-0.45-5.86-1.83-23.68-15.7-34.67
		c-6.52-5.17-13.7-7.8-21.33-7.83c-0.04,0-0.08,0-0.12,0c-7.81,0-15.62,2.94-21.99,8.27c-12.83,10.73-14.07,27.9-14.54,34.36
		c-0.1,1.4-0.14,22.47-0.15,39.89l0,3.34l2.84,1.13c0.74,0.3,1.54,0.43,2.37,0.43c8.83,0,22.03-15.19,23.76-17.99l1.29-2.08
		l-9.54-20.04c-0.75-4.42-0.17-8.91,1.67-13.01l0.51-1.13l9.13,1.54c3.25,0.55,6.55,0.59,9.82,0.13l9.37-1.32
		c2.03,3.55,2.89,7.71,2.41,11.79l-9.97,21.21l0.31,1.48c1.07,5.07,13.55,14.04,16.99,16.13c4.35,2.64,7.27,3.47,9.77,2.77l3.3-0.92
		L141.18,244.42z"/>
	<ellipse class="st0" cx="105.18" cy="200.31" rx="23.37" ry="30.08"/>
	<path class="st1" d="M105.18,234.39c-15.09,0-27.37-15.29-27.37-34.08s12.28-34.08,27.37-34.08s27.37,15.29,27.37,34.08
		S120.27,234.39,105.18,234.39z M105.18,174.23c-10.68,0-19.37,11.7-19.37,26.08s8.69,26.08,19.37,26.08s19.37-11.7,19.37-26.08
		S115.86,174.23,105.18,174.23z"/>
	<path class="st1" d="M126.71,178.73l-5.42-5.36c-1.03-1.01-2.14-1.95-3.32-2.78c-2.37-1.67-5.01-2.85-7.83-3.52l-0.61-0.14
		c-3.71-0.87-7.57-0.69-11.19,0.52l-0.44,0.15c-3.73,1.25-7.1,3.44-9.75,6.34l-1.55,1.7c-2.81,3.07-5.01,6.58-6.56,10.44l-0.9,2.25
		c-0.52,1.29-0.41,2.76,0.3,3.96c0.71,1.2,1.93,2.01,3.32,2.18c4.58,0.57,8.73,0.83,12.49,0.83c18.47,0,27.53-6.1,31.54-10.22
		C128.5,183.29,128.47,180.47,126.71,178.73z"/>
	<g>
		<path class="st3" d="M154.94,305.62v39.9c-2.53-0.61-5.03-1.29-7.5-2.04v-37.86c0-2.07,1.68-3.75,3.75-3.75
			C153.26,301.88,154.94,303.55,154.94,305.62z"/>
	</g>
	<g>
		<path class="st1" d="M305.1,290.19c-2.25,0-4.08,1.83-4.08,4.08v35.65c3.1-2.54,4.91-4.11,8.16-6.96v-28.7
			C309.18,292.02,307.36,290.19,305.1,290.19z"/>
	</g>
	<g>
		<path class="st1" d="M295.65,183.02h-33.29c-3.87,5.28-6.25,12.39-6.25,20.22c0,16.27,10.25,29.46,22.89,29.46
			c12.64,0,22.89-13.19,22.89-29.46C301.89,195.41,299.52,188.3,295.65,183.02z M279,223.7c-7.53,0-13.89-9.37-13.89-20.46
			c0-4.04,0.82-7.9,2.35-11.22h23.08c1.53,3.32,2.35,7.18,2.35,11.22C292.89,214.33,286.53,223.7,279,223.7z"/>
		<path class="st1" d="M328.43,302.48c-0.37-17.86-1.25-38.1-2.8-41.87c-1.28-3.1-3.91-5.38-6.9-7.22l0.9-0.83l-2.73-3.3
			c-0.03-0.04-3.2-3.88-6.56-8.7c-2.45-3.51-4.38-6.29-1.63-11.81c4.16-7.45,6.36-16.21,6.36-25.33c0-24.41-15.29-43.82-34.89-44.2
			l-2.45,0c-19.51,0.38-34.8,19.79-34.8,44.2c0,9.13,2.2,17.88,6.36,25.33c2.75,5.52,0.82,8.3-1.64,11.82
			c-3.35,4.81-6.52,8.65-6.56,8.69l-2.73,3.3l3.16,2.89c0.55,0.5,13.62,12.22,36.3,12.5l2.42,0c15.18-0.18,26.05-5.52,31.74-9.17
			c2.8,1.35,5.25,2.85,6.11,4.93c1.54,3.76,2.32,26.77,2.36,47.91c0,0.12,0,0.35,0,0.35l4.15-4.59l3.84-4.55
			C328.44,302.84,328.43,302.6,328.43,302.48z M280.18,258.95l-2.31,0c-12.94-0.16-22.23-4.75-26.89-7.7
			c1.17-1.53,2.59-3.44,4.06-5.55c0.92-1.33,2.05-2.95,2.96-4.9c6.82,6.88,14.29,10.35,21.09,12.8c5.21,1.88,10.59,2.72,16,3.06
			C290.88,257.94,285.89,258.88,280.18,258.95z M302.97,245.71c0.52,0.74,1.02,1.45,1.52,2.13c-7.75,0.11-15.47-0.23-22.35-2.71
			c-8.37-3.02-17.07-7.4-24.06-18.78c-0.24-0.57-0.5-1.15-0.8-1.74l-0.09-0.18c-3.44-6.13-5.26-13.4-5.26-21.02
			c0-19.13,11.65-34.92,25.89-35.2l2.28,0c14.32,0.28,25.98,16.07,25.98,35.2c0,7.62-1.82,14.89-5.26,21.02l-0.09,0.18
			C295.49,234.98,300.17,241.69,302.97,245.71z"/>
	</g>
	<g>
		<path class="st1" d="M358.03,251.03l-0.17-0.11l-1.57-1.02l-4.09-6.21c1.8-1.5,3.49-3.36,5.01-5.57c3.95-5.72,6.21-12.9,6.21-19.7
			c0-14.18-10.1-25.72-22.51-25.72c-12.41,0-22.51,11.54-22.51,25.72c0,6.79,2.26,13.97,6.21,19.7c1.4,2.03,2.94,3.77,4.58,5.21
			l-4.32,6.31c-4.29,1.85-5.76,2.39-8.84,4.6c1.34,1.75,0.19,5.24,0.8,7.42c2.58-2.01,5.71-3.82,9.51-5.53l11.02,10.54v8.3
			c0,1.81,1.47,3.27,3.27,3.27c1.81,0,3.27-1.47,3.27-3.27v-7.82l10.48-10.69l1.06,0.69l0.16,0.1L358.03,251.03z M335.67,210.83
			c6.21,4.48,13.91,6.87,21.57,6.68c0.52-0.01,1.06-0.04,1.5-0.32c1.02-0.65,0.89-2.17,0.54-3.33c-1.15-3.81-3.25-7.25-5.33-10.65
			c-0.89-1.45-1.81-2.94-3.22-3.9c-1.56-1.07-3.51-1.34-5.38-1.59c-2.16-0.28-4.34-0.57-6.52-0.45s-4.38,0.66-6.17,1.91
			c-2.37,1.65-3.78,4.32-5,6.94c-0.86,1.86-1.68,3.74-2.44,5.64c-0.73,1.81-1.74,3.8-2.11,5.72c-0.4,2.07,2.57,0.37,3.49-0.04
			c1.61-0.71,3.14-1.58,4.57-2.59C332.82,213.69,334.34,212.34,335.67,210.83z M324.94,218.43c0-1.13,0.09-2.24,0.24-3.31
			c4.97,0.42,8.16-14.37,11.96-14.82c7.53-0.9,14.05,11.47,17.71,8.83c1.28,2.76,2.01,5.93,2.01,9.31c0,10.4-7.37,23.11-15.97,23.11
			C332.31,241.54,324.94,228.83,324.94,218.43z M340.84,260.95l-9.53-9.12l3.43-5.01c2,0.82,4.07,1.26,6.18,1.26
			c1.92,0,3.82-0.36,5.65-1.04l3.18,4.83L340.84,260.95z"/>
	</g>
	<path class="st1" d="M63.49,202.98c0.02-0.26,0.24-1.01,0.38-1.51c0.56-1.95,1.32-4.63,0.31-7.28c0,0,0,0,0,0
		c-0.87-2.29-2.91-3.78-4.88-5.23c-0.67-0.49-1.79-1.31-2.06-1.66c-0.37-0.51-0.66-0.94-0.92-1.33c-1.47-2.19-2.61-3.64-6.14-5.28
		c-2.12-0.99-4.27-1-5.99-1c-0.79,0-1.54-0.01-2.06-0.11c-0.37-0.07-0.86-0.19-1.35-0.32c-2.6-0.69-5.32-0.67-7.87,0.03
		c-0.4,0.11-0.8,0.21-1.21,0.29c-0.52,0.1-1.27,0.1-2.06,0.11c-1.72,0.01-3.87,0.01-5.99,1c-3.53,1.64-4.68,3.09-6.15,5.28
		c-0.26,0.39-0.55,0.82-0.91,1.32c-0.28,0.36-1.4,1.18-2.07,1.67c-1.97,1.44-4.01,2.94-4.88,5.23c-0.2,0.53-0.32,1.19-0.39,1.71
		l0.07,3.67c0.15,0.66,0.48,1.34,0.63,1.9c0.14,0.5,0.36,1.25,0.38,1.43c0,0.24-0.19,0.87-0.32,1.33c-0.07,0.24-0.15,0.51-0.22,0.78
		l0.04,0.62l0.67,6.34c1.06,1.84,2.49,2.98,3.69,3.92c0.5,0.39,0.97,0.76,1.38,1.16c0.17,0.16,0.45,0.7,0.7,1.16
		c1.13,2.12,3.22,6.06,10.05,6.54c2.3,0.17,18.69,0.01,20.89,0.01c0.11,0,0.21,0,0.32-0.01c6.83-0.48,8.92-4.42,10.05-6.54
		c0.25-0.47,0.53-1,0.7-1.16c0.41-0.4,0.88-0.77,1.38-1.16c1.44-1.13,3.22-2.53,4.27-5.09c1.06-2.59,0.36-4.99-0.1-6.58
		C63.68,203.77,63.5,203.14,63.49,202.98z"/>
	<g>
		<path class="st0" d="M56.12,216.83c-0.02,11.22-8.31,24.71-19.29,24.71c-10.98,0-19.25-13.5-19.29-24.71
			c-0.02-6.83,3.01-12.06,4.8-14.63c1.71-1.24,6.94-4.7,14.48-4.69c7.57,0.01,12.8,3.5,14.5,4.74
			C53.11,204.83,56.14,210.03,56.12,216.83z"/>
	</g>
	<g>
		<path class="st1" d="M76.94,290.19c-2.07,0-3.75,1.68-3.75,3.75v32.89c2.75,2.43,4.63,3.57,7.5,5.95v-38.84
			C80.69,291.87,79.01,290.19,76.94,290.19z"/>
		<path class="st1" d="M159.17,290.99c0.09-21.33-4.61-34.68-14.37-40.79c-2.61-1.63-5.5-2.66-8.29-3.66
			c-4.73-1.69-9.63-3.44-13.95-8.31c-2.18-2.45-3.91-5.35-5.16-8.6l-7,2.68c0.84,2.2,1.87,4.26,3.06,6.19
			c-2.95,1.43-6.06,2.11-9.31,2.01c-2.95-0.09-5.78-0.84-8.43-2.2c1.15-2.06,2.11-4.26,2.84-6.62l-7.16-2.23
			c-1.05,3.37-2.64,6.34-4.73,8.85c-4.17,4.99-8.58,6.76-13.25,8.64c-2.07,0.83-4.2,1.71-6.27,2.85c-0.01-0.01-0.02-0.02-0.03-0.04
			c-4.63,2.45-9.28,5.14-11.59,10.77c-1.64,4-2.47,28.21-2.7,45.89c0,0.15-0.01,0.29-0.01,0.29l3.23,3.61l4.26,4.52
			c0,0,0-0.31,0-0.47c-0.14-21,0.56-47.12,2.15-50.99c1.24-3.02,3.95-4.74,7.43-6.61l0.04,0.06c1.87-1.16,4.01-2.02,6.28-2.93
			c4.72-1.89,10.02-4.02,15.06-9.48c3.93,2.22,8.17,3.43,12.64,3.57c0.29,0.01,0.57,0.01,0.86,0.01c4.65,0,9.22-1.22,13.39-3.53
			c5.29,5.34,11.1,7.42,15.83,9.11c2.53,0.9,4.91,1.75,6.83,2.95c7.28,4.56,10.93,16.14,10.85,34.45l0.27,36.28l7.5-0.06
			L159.17,290.99z"/>
	</g>
	<path class="st4" d="M202.06,196.74c11.02-6.69,18.69-21.52,18.69-38.75c0-23.5-14.25-42.55-31.84-42.55s-31.84,19.05-31.84,42.55
		c0,17.21,7.65,32.02,18.65,38.72l-4.7,11.81l-7.67,10.1l25.33,19.83l27.78-20.34l-13.11-16.36L202.06,196.74z"/>
	<path class="st4" d="M189,369.05c25.38,0,48.73-4.76,70.55-14.41l-1.59-73.79c0,0,0.06-43.68-19.25-51.19
		c-17.83-6.93-22.25-11.54-22.25-11.54l-27.32,21.62l-25.79-21.11c0,0-6.46,4.37-23.69,11.03c-6.34,2.45-13.87,12.12-17.11,25.88
		c-1.51,6.42-3.17,69.05-4.1,99.12C140.43,364.16,162.29,369.05,189,369.05z"/>
	<path class="st2" d="M228,348.49c-12.17,3.01-24.67,4.57-37.2,4.65c-13.12,0.1-26.5-1.53-39.23-4.65v16.56
		c-0.13-0.03,0.28,0.03,0.62,0.09c24.96,4.86,49.29,5.44,73.7,0.14c1.61-0.35,2.08-0.47,2.08-0.47L228,348.49z"/>
	<path class="st1" d="M147.63,295.46c-2.17,0-3.92,1.76-3.92,3.92v63.84c0.99,0.3,6.22,1.44,7.86,1.84v-40.17v-25.5
		C151.57,297.21,149.81,295.46,147.63,295.46z"/>
	<path class="st1" d="M231.63,295.46c-2.17,0-3.92,1.76-3.92,3.92v25.42v40.08c1.89-0.48,7.11-1.74,7.85-1.97v-63.54
		C235.55,297.21,233.8,295.46,231.63,295.46z"/>
	<path class="st1" d="M263.68,281.62c0.13-29.23-6.27-47.49-19.55-55.81c-3.54-2.22-7.32-3.57-11.33-5
		c-6.62-2.36-13.47-4.81-19.57-11.67c-2.23-2.51-4.12-5.35-5.67-8.48c12.08-8.27,20.3-24.36,20.3-42.8
		c0-26.87-17.44-48.73-38.87-48.73s-38.87,21.86-38.87,48.73c0,18.23,8.03,34.14,19.88,42.5c-1.38,3.29-3.17,6.27-5.36,8.88
		c-5.68,6.8-12.48,9.25-19.05,11.61c-3.75,1.35-7.64,2.75-11.13,4.91c-13.44,8.32-20.04,26.59-20.2,55.86l-0.33,71.02l4.18,1.86
		l4.82,1.94l0.33-74.78c0.14-25.56,5.5-41.79,15.94-48.25c2.69-1.67,5.97-2.85,9.44-4.09c4.29-1.54,8.91-3.21,13.45-6.06
		l26.88,20.67l27.11-20.75c4.67,2.88,9.35,4.56,13.68,6.1c3.53,1.26,6.86,2.45,9.58,4.15c10.28,6.44,15.44,22.64,15.32,48.18
		l0.35,75.01l8.98-3.98L263.68,281.62z M159.13,157.87c0-3.55,0.36-6.99,1.02-10.27c5.15,0.53,9.91,0.77,14.28,0.77
		c20.91,0,33.29-5.41,40.34-10.54c2.6,5.89,4.1,12.74,4.1,20.05c0,21.91-13.4,39.73-29.87,39.73S159.13,179.77,159.13,157.87z
		 M189,232.6l-19.67-15.12c0.76-0.77,1.5-1.58,2.24-2.46c2.59-3.1,4.73-6.6,6.41-10.42c3.5,1.3,7.19,2.01,11.02,2.01
		c3.66,0,7.2-0.65,10.55-1.84c1.89,3.8,4.21,7.27,6.95,10.36c0.75,0.84,1.5,1.61,2.26,2.35L189,232.6z"/>
	<g>
		<polygon class="st5" points="216,255.3 205.58,251.91 205.58,266.6 205.58,266.6 216,269.99 226.42,266.6 226.42,251.91 
			216,255.31 		"/>
	</g>
	<path class="st1" d="M60.72,253.76c-5.14-2.71-10-5.31-12.23-13.06c1.78-1.43,3.43-3.18,4.93-5.25c3.87-5.36,6.19-12.31,6.2-18.61
		c0.01-5.72-1.86-11.45-5.42-16.58l-0.34-0.48l-0.47-0.35c-2.76-2.02-8.59-5.41-16.56-5.42c-0.01,0-0.02,0-0.03,0
		c-7.93,0-13.75,3.35-16.5,5.35l-0.48,0.35l-0.34,0.49c-3.57,5.15-5.45,10.9-5.43,16.64c0.02,6.29,2.34,13.24,6.2,18.6
		c1.98,2.75,4.24,4.94,6.69,6.54c-0.73,1.86-1.91,4.35-3.53,6.15c-1.01,1.13-2.09,2.05-3.18,2.82c-0.07,0.05-0.2,0.14-0.2,0.14
		l0.75,1.94l0.9,2.33l0.84,2.18c0,0,0.12-0.1,0.18-0.14c0.22-0.18,0.44-0.35,0.65-0.52l13.89,10.68l14.89-11.4
		c0.17,0.12,0.34,0.24,0.52,0.36c1.66,1.07,3.73,2.37,5.03,3.05c1.42,0.75,2.73,1.44,3.87,2.18c1.14-1.89,2.67-3.55,4.45-4.89
		C64.32,255.66,62.51,254.7,60.72,253.76z M21.04,216.82c-0.02-5.11,2-9.34,3.84-12.13c2.23-1.51,6.38-3.68,11.91-3.68
		c0.01,0,0.02,0,0.03,0c5.56,0.01,9.74,2.2,11.96,3.73c1.83,2.77,3.85,6.98,3.84,12.08c-0.02,9.61-7.07,21.22-15.79,21.22
		C28.12,238.04,21.07,226.43,21.04,216.82z M37.24,258.79l-8.86-6.81c1.66-1.96,3.11-4.1,4.23-6.42c0.17-0.35,0.31-0.66,0.43-0.95
		c1.24,0.28,2.51,0.44,3.79,0.44c0,0,0,0,0,0c1.99,0,3.95-0.35,5.83-1.03c0.13,0.36,0.28,0.74,0.45,1.14
		c0.97,2.24,2.29,4.31,3.84,6.2L37.24,258.79z"/>
</g>
<g id="grid" class="st6">
	<g id="Grid_00000043456823262682711200000000773504779048806301_" class="st7">
		<rect class="st8" width="378" height="378"/>
		<line class="st8" x1="0" y1="369" x2="378" y2="369"/>
		<line class="st8" x1="0" y1="360" x2="378" y2="360"/>
		<line class="st8" x1="0" y1="351" x2="378" y2="351"/>
		<line class="st8" x1="0" y1="342" x2="378" y2="342"/>
		<line class="st8" x1="0" y1="333" x2="378" y2="333"/>
		<line class="st8" x1="0" y1="324" x2="378" y2="324"/>
		<line class="st8" x1="0" y1="315" x2="378" y2="315"/>
		<line class="st8" x1="0" y1="306" x2="378" y2="306"/>
		<line class="st8" x1="0" y1="297" x2="378" y2="297"/>
		<line class="st8" x1="0" y1="288" x2="378" y2="288"/>
		<line class="st8" x1="0" y1="279" x2="378" y2="279"/>
		<line class="st8" x1="0" y1="270" x2="378" y2="270"/>
		<line class="st8" x1="0" y1="261" x2="378" y2="261"/>
		<line class="st8" x1="0" y1="252" x2="378" y2="252"/>
		<line class="st8" x1="0" y1="243" x2="378" y2="243"/>
		<line class="st8" x1="0" y1="234" x2="378" y2="234"/>
		<line class="st8" x1="0" y1="225" x2="378" y2="225"/>
		<line class="st8" x1="0" y1="216" x2="378" y2="216"/>
		<line class="st8" x1="0" y1="207" x2="378" y2="207"/>
		<line class="st8" x1="0" y1="198" x2="378" y2="198"/>
		<line class="st8" x1="0" y1="189" x2="378" y2="189"/>
		<line class="st8" x1="0" y1="180" x2="378" y2="180"/>
		<line class="st8" x1="0" y1="171" x2="378" y2="171"/>
		<line class="st8" x1="0" y1="162" x2="378" y2="162"/>
		<line class="st8" x1="0" y1="153" x2="378" y2="153"/>
		<line class="st8" x1="0" y1="144" x2="378" y2="144"/>
		<line class="st8" x1="0" y1="135" x2="378" y2="135"/>
		<line class="st8" x1="0" y1="126" x2="378" y2="126"/>
		<line class="st8" x1="0" y1="117" x2="378" y2="117"/>
		<line class="st8" x1="0" y1="108" x2="378" y2="108"/>
		<line class="st8" x1="0" y1="99" x2="378" y2="99"/>
		<line class="st8" x1="0" y1="90" x2="378" y2="90"/>
		<line class="st8" x1="0" y1="81" x2="378" y2="81"/>
		<line class="st8" x1="0" y1="72" x2="378" y2="72"/>
		<line class="st8" x1="0" y1="63" x2="378" y2="63"/>
		<line class="st8" x1="0" y1="54" x2="378" y2="54"/>
		<line class="st8" x1="0" y1="45" x2="378" y2="45"/>
		<line class="st8" x1="0" y1="36" x2="378" y2="36"/>
		<line class="st8" x1="0" y1="27" x2="378" y2="27"/>
		<line class="st8" x1="0" y1="18" x2="378" y2="18"/>
		<line class="st8" x1="0" y1="9" x2="378" y2="9"/>
		<line class="st8" x1="369" y1="0" x2="369" y2="378"/>
		<line class="st8" x1="360" y1="0" x2="360" y2="378"/>
		<line class="st8" x1="351" y1="0" x2="351" y2="378"/>
		<line class="st8" x1="342" y1="0" x2="342" y2="378"/>
		<line class="st8" x1="333" y1="0" x2="333" y2="378"/>
		<line class="st8" x1="324" y1="0" x2="324" y2="378"/>
		<line class="st8" x1="315" y1="0" x2="315" y2="378"/>
		<line class="st8" x1="306" y1="0" x2="306" y2="378"/>
		<line class="st8" x1="297" y1="0" x2="297" y2="378"/>
		<line class="st8" x1="288" y1="0" x2="288" y2="378"/>
		<line class="st8" x1="279" y1="0" x2="279" y2="378"/>
		<line class="st8" x1="270" y1="0" x2="270" y2="378"/>
		<line class="st8" x1="261" y1="0" x2="261" y2="378"/>
		<line class="st8" x1="252" y1="0" x2="252" y2="378"/>
		<line class="st8" x1="243" y1="0" x2="243" y2="378"/>
		<line class="st8" x1="234" y1="0" x2="234" y2="378"/>
		<line class="st8" x1="225" y1="0" x2="225" y2="378"/>
		<line class="st8" x1="216" y1="0" x2="216" y2="378"/>
		<line class="st8" x1="207" y1="0" x2="207" y2="378"/>
		<line class="st8" x1="198" y1="0" x2="198" y2="378"/>
		<line class="st8" x1="189" y1="0" x2="189" y2="378"/>
		<line class="st8" x1="180" y1="0" x2="180" y2="378"/>
		<line class="st8" x1="171" y1="0" x2="171" y2="378"/>
		<line class="st8" x1="162" y1="0" x2="162" y2="378"/>
		<line class="st8" x1="153" y1="0" x2="153" y2="378"/>
		<line class="st8" x1="144" y1="0" x2="144" y2="378"/>
		<line class="st8" x1="135" y1="0" x2="135" y2="378"/>
		<line class="st8" x1="126" y1="0" x2="126" y2="378"/>
		<line class="st8" x1="117" y1="0" x2="117" y2="378"/>
		<line class="st8" x1="108" y1="0" x2="108" y2="378"/>
		<line class="st8" x1="99" y1="0" x2="99" y2="378"/>
		<line class="st8" x1="90" y1="0" x2="90" y2="378"/>
		<line class="st8" x1="81" y1="0" x2="81" y2="378"/>
		<line class="st8" x1="72" y1="0" x2="72" y2="378"/>
		<line class="st8" x1="63" y1="0" x2="63" y2="378"/>
		<line class="st8" x1="54" y1="0" x2="54" y2="378"/>
		<line class="st8" x1="45" y1="0" x2="45" y2="378"/>
		<line class="st8" x1="36" y1="0" x2="36" y2="378"/>
		<line class="st8" x1="27" y1="0" x2="27" y2="378"/>
		<line class="st8" x1="18" y1="0" x2="18" y2="378"/>
		<line class="st8" x1="9" y1="0" x2="9" y2="378"/>
	</g>
	<g id="Diagram_00000142167580138256863360000016861931541329795464_" class="st9">
		<g>
			<rect y="0" class="st10" width="378" height="378"/>
			<g>
				<line class="st10" x1="189" y1="0" x2="189" y2="378"/>
			</g>
			<g>
				<line class="st10" x1="378" y1="189" x2="0" y2="189"/>
			</g>
			<g>
				<line class="st10" x1="378" y1="0" x2="0" y2="378"/>
			</g>
			<g>
				<line class="st10" x1="378" y1="378" x2="0" y2="0"/>
			</g>
		</g>
		<rect x="9" y="9" class="st10" width="360" height="360"/>
		<circle class="st10" cx="189" cy="189" r="180"/>
		<circle class="st10" cx="189" cy="189" r="135"/>
	</g>
	<path id="Margin_00000021093299810534215200000010667111313960764044_" class="st11" d="M378,0H0v378h378l0,0l0,0V0z M9,369V9h360
		v360H9z"/>
</g>
</svg>
