<?xml version="1.0" encoding="utf-8"?>
<!-- Generator: Adobe Illustrator 27.4.1, SVG Export Plug-In . SVG Version: 6.00 Build 0)  -->
<svg version="1.1" xmlns="http://www.w3.org/2000/svg" xmlns:xlink="http://www.w3.org/1999/xlink" x="0px" y="0px"
	 viewBox="0 0 378 378" style="enable-background:new 0 0 378 378;" xml:space="preserve">
<style type="text/css">
	.st0{fill:#EDEDEE;}
	.st1{clip-path:url(#Circle_00000055704515281078469160000015505517783023183512_);fill:#002E75;}
	.st2{fill:#FFFFFF;}
	.st3{fill:#00A0DF;}
	.st4{fill:#002E75;}
	.st5{fill:none;stroke:#002E75;stroke-width:9;stroke-miterlimit:10;}
	.st6{fill:#0068B8;}
	.st7{display:none;}
	.st8{display:inline;opacity:0.14;}
	.st9{fill:none;stroke:#FE01FE;stroke-width:0.35;stroke-miterlimit:10;}
	.st10{display:inline;}
	.st11{fill:none;stroke:#9F9F9F;stroke-width:0.35;stroke-miterlimit:10;}
	.st12{display:inline;fill:#75DDFD;}
</style>
<g id="Spotlight">
	<circle id="Circle_00000119105139596830861110000003736632875619277203_" class="st0" cx="189" cy="189" r="180"/>
</g>
<g id="Grounding_Arc">
	<g>
		<defs>
			<circle id="Circle_00000116921291972937223960000000370915639881298837_" cx="189" cy="189" r="180"/>
		</defs>
		<clipPath id="Circle_00000128459326266384669390000000357204109505166512_">
			<use xlink:href="#Circle_00000116921291972937223960000000370915639881298837_"  style="overflow:visible;"/>
		</clipPath>
		<path style="clip-path:url(#Circle_00000128459326266384669390000000357204109505166512_);fill:#002E75;" d="M376.6,318.8
			c-57.2-14.3-122.1-21.9-187.6-21.9S58.5,304.5,1.4,318.8l-2.2-8.7c57.9-14.5,123.5-22.2,189.8-22.2c66.3,0,131.9,7.7,189.8,22.2
			L376.6,318.8z"/>
	</g>
</g>
<g id="Icon_Art">
	<path class="st2" d="M254.2,76c9.3,2.7,15.6,11.3,15.6,20.9l0,169.3c0,4.6-3.3,8.4-7.3,8.4H115.4c-4,0-7.3-3.8-7.3-8.4L108,97
		c0-9.7,6.3-18.2,15.6-20.9c13-3.8,34.4-8.1,65.4-8.1C220,67.9,241.3,72.1,254.2,76z"/>
	<g>
		<path class="st3" d="M257.5,238.9h-20.3c-1.7,0-3.1-1.4-3.1-3.1V224c0-1.7,1.4-3.1,3.1-3.1h20.3c1.7,0,3.1,1.4,3.1,3.1v11.7
			C260.6,237.4,259.2,238.9,257.5,238.9z"/>
	</g>
	<g>
		<path class="st3" d="M140.6,237.6h-20.3c-1.7,0-3.1-1.4-3.1-3.1v-11.7c0-1.7,1.4-3.1,3.1-3.1h20.3c1.7,0,3.1,1.4,3.1,3.1v11.7
			C143.7,236.2,142.3,237.6,140.6,237.6z"/>
	</g>
	<path class="st4" d="M232.5,84.9c-11.5-2.4-27-3.7-43.5-3.7s-32,1.3-43.5,3.7c-15.5,3.2-23,8.2-23,15.2v78.8
		c0,5.2,4.6,9.4,10.2,9.4h112.7c5.6,0,10.2-4.2,10.2-9.4v-78.8C255.5,93,248,88.1,232.5,84.9z"/>
	<path class="st5" d="M245.3,183.8H132.7c-3.1,0-5.7-2.2-5.7-4.9l0-78.8c0-19.2,124-19.2,124,0l0,78.8
		C251,181.6,248.5,183.8,245.3,183.8z"/>
	<path class="st3" d="M189,90.2c-15.3,0-29.6,1.2-40.5,3.3c-15.5,3-17,6.6-17,6.7l0,30.2l59.6-40.1C190.4,90.2,189.7,90.2,189,90.2z
		"/>
	<path class="st4" d="M292.1,133.5h-9.6c-2.5,0-4.5,2-4.5,4.5v0.7h-3.8V96.9c0-11.6-7.7-22-18.8-25.3c-12.7-3.8-34.5-8.3-66.4-8.3
		c-32,0-53.9,4.5-66.7,8.3C111.3,75,103.5,85.4,103.5,97v41.7h-4.3V138c0-2.5-2-4.5-4.5-4.5h-9.6c-2.5,0-4.5,2-4.5,4.5v27.5
		c0,2.5,2,4.5,4.5,4.5h9.6c2.5,0,4.5-2,4.5-4.5v-17.9h4.3v118.5c0,7.1,5.3,12.9,11.8,12.9h2.2v14.8h27.1v-14.8h88.9v14.8h27v-14.8
		h1.9c6.5,0,11.8-5.8,11.8-12.9V147.7h3.8v17.9c0,2.5,2,4.5,4.5,4.5h9.6c2.5,0,4.5-2,4.5-4.5V138
		C296.6,135.5,294.6,133.5,292.1,133.5z M265.3,266.2c0,2.1-1.3,3.9-2.8,3.9H115.4c-1.5,0-2.8-1.8-2.8-3.9V97
		c0-7.6,5.1-14.5,12.4-16.6c12.2-3.6,33.2-7.9,64.1-7.9c30.8,0,51.8,4.3,63.9,7.9v0c7.3,2.2,12.4,9,12.4,16.6V266.2z"/>
	<path class="st6" d="M215.6,252.4h-53.2v-9h53.2V252.4z M224.6,224.4h-71.2v9h71.2V224.4z M216.4,206.5h-54.8v9h54.8V206.5z"/>
</g>
<g id="Artboard_Grid" class="st7">
	<g id="Grid_00000180325571578828283110000013291193697487643572_" class="st8">
		<rect class="st9" width="378" height="378"/>
		<line class="st9" x1="0" y1="369" x2="378" y2="369"/>
		<line class="st9" x1="0" y1="360" x2="378" y2="360"/>
		<line class="st9" x1="0" y1="351" x2="378" y2="351"/>
		<line class="st9" x1="0" y1="342" x2="378" y2="342"/>
		<line class="st9" x1="0" y1="333" x2="378" y2="333"/>
		<line class="st9" x1="0" y1="324" x2="378" y2="324"/>
		<line class="st9" x1="0" y1="315" x2="378" y2="315"/>
		<line class="st9" x1="0" y1="306" x2="378" y2="306"/>
		<line class="st9" x1="0" y1="297" x2="378" y2="297"/>
		<line class="st9" x1="0" y1="288" x2="378" y2="288"/>
		<line class="st9" x1="0" y1="279" x2="378" y2="279"/>
		<line class="st9" x1="0" y1="270" x2="378" y2="270"/>
		<line class="st9" x1="0" y1="261" x2="378" y2="261"/>
		<line class="st9" x1="0" y1="252" x2="378" y2="252"/>
		<line class="st9" x1="0" y1="243" x2="378" y2="243"/>
		<line class="st9" x1="0" y1="234" x2="378" y2="234"/>
		<line class="st9" x1="0" y1="225" x2="378" y2="225"/>
		<line class="st9" x1="0" y1="216" x2="378" y2="216"/>
		<line class="st9" x1="0" y1="207" x2="378" y2="207"/>
		<line class="st9" x1="0" y1="198" x2="378" y2="198"/>
		<line class="st9" x1="0" y1="189" x2="378" y2="189"/>
		<line class="st9" x1="0" y1="180" x2="378" y2="180"/>
		<line class="st9" x1="0" y1="171" x2="378" y2="171"/>
		<line class="st9" x1="0" y1="162" x2="378" y2="162"/>
		<line class="st9" x1="0" y1="153" x2="378" y2="153"/>
		<line class="st9" x1="0" y1="144" x2="378" y2="144"/>
		<line class="st9" x1="0" y1="135" x2="378" y2="135"/>
		<line class="st9" x1="0" y1="126" x2="378" y2="126"/>
		<line class="st9" x1="0" y1="117" x2="378" y2="117"/>
		<line class="st9" x1="0" y1="108" x2="378" y2="108"/>
		<line class="st9" x1="0" y1="99" x2="378" y2="99"/>
		<line class="st9" x1="0" y1="90" x2="378" y2="90"/>
		<line class="st9" x1="0" y1="81" x2="378" y2="81"/>
		<line class="st9" x1="0" y1="72" x2="378" y2="72"/>
		<line class="st9" x1="0" y1="63" x2="378" y2="63"/>
		<line class="st9" x1="0" y1="54" x2="378" y2="54"/>
		<line class="st9" x1="0" y1="45" x2="378" y2="45"/>
		<line class="st9" x1="0" y1="36" x2="378" y2="36"/>
		<line class="st9" x1="0" y1="27" x2="378" y2="27"/>
		<line class="st9" x1="0" y1="18" x2="378" y2="18"/>
		<line class="st9" x1="0" y1="9" x2="378" y2="9"/>
		<line class="st9" x1="369" y1="0" x2="369" y2="378"/>
		<line class="st9" x1="360" y1="0" x2="360" y2="378"/>
		<line class="st9" x1="351" y1="0" x2="351" y2="378"/>
		<line class="st9" x1="342" y1="0" x2="342" y2="378"/>
		<line class="st9" x1="333" y1="0" x2="333" y2="378"/>
		<line class="st9" x1="324" y1="0" x2="324" y2="378"/>
		<line class="st9" x1="315" y1="0" x2="315" y2="378"/>
		<line class="st9" x1="306" y1="0" x2="306" y2="378"/>
		<line class="st9" x1="297" y1="0" x2="297" y2="378"/>
		<line class="st9" x1="288" y1="0" x2="288" y2="378"/>
		<line class="st9" x1="279" y1="0" x2="279" y2="378"/>
		<line class="st9" x1="270" y1="0" x2="270" y2="378"/>
		<line class="st9" x1="261" y1="0" x2="261" y2="378"/>
		<line class="st9" x1="252" y1="0" x2="252" y2="378"/>
		<line class="st9" x1="243" y1="0" x2="243" y2="378"/>
		<line class="st9" x1="234" y1="0" x2="234" y2="378"/>
		<line class="st9" x1="225" y1="0" x2="225" y2="378"/>
		<line class="st9" x1="216" y1="0" x2="216" y2="378"/>
		<line class="st9" x1="207" y1="0" x2="207" y2="378"/>
		<line class="st9" x1="198" y1="0" x2="198" y2="378"/>
		<line class="st9" x1="189" y1="0" x2="189" y2="378"/>
		<line class="st9" x1="180" y1="0" x2="180" y2="378"/>
		<line class="st9" x1="171" y1="0" x2="171" y2="378"/>
		<line class="st9" x1="162" y1="0" x2="162" y2="378"/>
		<line class="st9" x1="153" y1="0" x2="153" y2="378"/>
		<line class="st9" x1="144" y1="0" x2="144" y2="378"/>
		<line class="st9" x1="135" y1="0" x2="135" y2="378"/>
		<line class="st9" x1="126" y1="0" x2="126" y2="378"/>
		<line class="st9" x1="117" y1="0" x2="117" y2="378"/>
		<line class="st9" x1="108" y1="0" x2="108" y2="378"/>
		<line class="st9" x1="99" y1="0" x2="99" y2="378"/>
		<line class="st9" x1="90" y1="0" x2="90" y2="378"/>
		<line class="st9" x1="81" y1="0" x2="81" y2="378"/>
		<line class="st9" x1="72" y1="0" x2="72" y2="378"/>
		<line class="st9" x1="63" y1="0" x2="63" y2="378"/>
		<line class="st9" x1="54" y1="0" x2="54" y2="378"/>
		<line class="st9" x1="45" y1="0" x2="45" y2="378"/>
		<line class="st9" x1="36" y1="0" x2="36" y2="378"/>
		<line class="st9" x1="27" y1="0" x2="27" y2="378"/>
		<line class="st9" x1="18" y1="0" x2="18" y2="378"/>
		<line class="st9" x1="9" y1="0" x2="9" y2="378"/>
	</g>
</g>
<g id="Spotlight_Grid_Lines" class="st7">
	<g id="Diagram_00000049902005933522276930000002270759677204902534_" class="st10">
		<g>
			<rect y="0" class="st11" width="378" height="378"/>
			<g>
				<line class="st11" x1="189" y1="0" x2="189" y2="378"/>
			</g>
			<g>
				<line class="st11" x1="378" y1="189" x2="0" y2="189"/>
			</g>
			<g>
				<line class="st11" x1="378" y1="0" x2="0" y2="378"/>
			</g>
			<g>
				<line class="st11" x1="378" y1="378" x2="0" y2="0"/>
			</g>
		</g>
		<rect x="9" y="9" class="st11" width="360" height="360"/>
		<circle class="st11" cx="189" cy="189" r="180"/>
		<circle class="st11" cx="189" cy="189" r="135"/>
	</g>
	<path id="Margin_00000149359410197928589840000002490222318637264798_" class="st12" d="M378,0H0v378h378l0,0l0,0V0z M9,369V9h360
		v360H9z"/>
</g>
</svg>
