<?xml version="1.0" encoding="utf-8"?>
<!-- Generator: Adobe Illustrator 27.2.0, SVG Export Plug-In . SVG Version: 6.00 Build 0)  -->
<svg version="1.1" xmlns="http://www.w3.org/2000/svg" xmlns:xlink="http://www.w3.org/1999/xlink" x="0px" y="0px"
	 viewBox="0 0 378 378" style="enable-background:new 0 0 378 378;" xml:space="preserve">
<style type="text/css">
	.st0{fill:#EDEDEE;}
	.st1{fill:#0068B8;}
	.st2{fill:#002E75;}
	.st3{fill:#FFFFFF;}
	.st4{fill:#00A0DF;}
	.st5{fill:none;stroke:#002E75;stroke-width:9;stroke-linecap:round;stroke-linejoin:round;stroke-miterlimit:10;}
	.st6{clip-path:url(#Circle_00000005225932933436563690000006835146009396799676_);fill:#002E75;}
	.st7{display:none;}
	.st8{display:inline;opacity:0.14;}
	.st9{fill:none;stroke:#FE01FE;stroke-width:0.35;stroke-miterlimit:10;}
	.st10{display:inline;}
	.st11{fill:none;stroke:#9F9F9F;stroke-width:0.35;stroke-miterlimit:10;}
	.st12{display:inline;fill:#75DDFD;}
</style>
<g id="Spotlight">
	<circle id="Circle_00000141445074186660306670000000939946056736871840_" class="st0" cx="189" cy="189" r="180"/>
</g>
<g id="Icon_Art">
	<path class="st1" d="M188.8,63.2c-36.4,33.2-54.7,56.6-60.7,93.3c-6,36.8,12,89.9,58.9,91.3c0.7,0,1.4,0,2.1,0c0.7,0,1.3,0,2,0
		c13.9-0.4,26.2-5.3,35.9-13c28.7-22.7,30-65.8,3.6-91.1C205,119.3,190.5,92.6,188.8,63.2z"/>
	<g>
		<path class="st2" d="M189.1,252.4c-0.8,0-1.5,0-2.3,0c-17.8-0.5-33.2-8.2-44.7-22.1c-15.3-18.6-22.7-48.5-18.5-74.4
			c6.4-39,26-62.9,62.2-95.9c1.3-1.2,3.1-1.5,4.7-0.8c1.6,0.7,2.7,2.2,2.8,3.9c1.6,27.3,15.2,53.4,40.4,77.6
			c13.7,13.2,21.1,31.6,20.2,50.7c-0.9,18.6-9.7,35.8-24.1,47.2c-11,8.7-24.3,13.5-38.6,13.9C190.5,252.4,189.8,252.4,189.1,252.4z
			 M185.3,72.6c-30.5,28.6-47.2,50.7-52.8,84.6c-3.2,19.6,0.6,47.9,16.5,67.2c9.9,12.1,22.7,18.4,38,18.9c1.3,0,2.6,0,3.9,0
			c12.3-0.4,23.8-4.5,33.3-12c12.4-9.8,20-24.6,20.7-40.6c0.8-16.4-5.6-32.4-17.4-43.7C203.3,123.9,189.2,98.9,185.3,72.6z"/>
	</g>
	<path class="st3" d="M187.8,130c23.2,21.2,34.9,36.1,38.8,59.6s-7.7,57.4-37.6,58.3c-0.4,0-0.9,0-1.4,0c-0.4,0-0.9,0-1.3,0
		c-8.9-0.3-16.7-3.4-22.9-8.3c-18.3-14.5-19.1-42-2.3-58.2C177.4,165.8,186.7,148.7,187.8,130z"/>
	<g>
		<path class="st2" d="M187.6,252.4c-0.5,0-0.9,0-1.4,0c-9.5-0.3-18.3-3.5-25.6-9.2c-9.6-7.6-15.4-19-16-31.4
			c-0.6-12.6,4.3-24.9,13.4-33.6c15.8-15.1,24.3-31.4,25.3-48.4c0.1-1.7,1.2-3.3,2.8-3.9c1.6-0.7,3.4-0.3,4.7,0.8
			c13.2,12.1,21.4,21,27.4,29.7c6.8,10,10.8,20.3,12.8,32.4c2.8,17.2-1.9,36.4-12.1,48.8c-7.6,9.3-17.9,14.4-29.8,14.7
			C188.6,252.4,188.1,252.4,187.6,252.4z M191.2,139.3c-3.1,16-12.2,31.3-26.9,45.4c-7.2,6.9-11.1,16.7-10.6,26.7
			c0.5,9.7,5.1,18.8,12.6,24.7c5.8,4.6,12.8,7.1,20.3,7.3c0.8,0,1.6,0,2.4,0c9.3-0.3,17.1-4.1,23.1-11.5
			c9.8-11.9,12.2-29.5,10.2-41.6C218.8,169.9,209,156.3,191.2,139.3z"/>
	</g>
	<path class="st2" d="M189.4,208.2c-0.8-2.5-3.9-3.3-5.8-1.4c-5.9,6-9.1,11.2-10.3,18.5c-1.5,9.1,3,22.2,14.5,22.6
		c0.2,0,0.3,0,0.5,0c0.2,0,0.3,0,0.5,0c4-0.1,7.4-1.7,10-4.2c6.1-5.8,5.8-15.8-0.3-21.6C194.1,217.8,191,213.1,189.4,208.2z"/>
	<g>
		<path class="st2" d="M247.8,296.3c-2.5,0-4.5-2-4.5-4.5v-13.2c0-4.8-3.9-8.6-8.6-8.6h-24.1c-2.5,0-4.5-2-4.5-4.5s2-4.5,4.5-4.5
			h24.1c9.7,0,17.6,7.9,17.6,17.6v13.2C252.3,294.3,250.3,296.3,247.8,296.3z"/>
		<path class="st2" d="M130.2,296.3c-2.5,0-4.5-2-4.5-4.5v-13.2c0-9.7,7.9-17.6,17.6-17.6h24.1c2.5,0,4.5,2,4.5,4.5s-2,4.5-4.5,4.5
			h-24.1c-4.8,0-8.6,3.9-8.6,8.6v13.2C134.7,294.3,132.7,296.3,130.2,296.3z"/>
	</g>
	<path class="st2" d="M215.2,277.3h-52.3c-5.3,0-9.7,4.7-9.7,10.4v3.7h4.5v0l58.2,0.5v0h9v-4.2C224.8,282,220.5,277.3,215.2,277.3z"
		/>
	<path class="st4" d="M209.8,152.7c-5.7-7.2-13-14.4-22-22.7c-1.1,18.7-10.4,35.8-26.7,51.4c-1.7,1.6-3.2,3.3-4.5,5.1L209.8,152.7z"
		/>
	<path class="st5" d="M187.8,130c23.2,21.2,34.9,36.1,38.8,59.6s-7.7,57.4-37.6,58.3c-0.4,0-0.9,0-1.4,0c-0.4,0-0.9,0-1.3,0
		c-8.9-0.3-16.7-3.4-22.9-8.3c-18.3-14.5-19.1-42-2.3-58.2C177.4,165.8,186.7,148.7,187.8,130z"/>
</g>
<g id="Grounding_Arc">
	<g>
		<defs>
			<circle id="Circle_00000127749541282540604650000000101859793445019563_" cx="189" cy="189" r="180"/>
		</defs>
		<clipPath id="Circle_00000075874205127412085420000005210043951110471812_">
			<use xlink:href="#Circle_00000127749541282540604650000000101859793445019563_"  style="overflow:visible;"/>
		</clipPath>
		<path style="clip-path:url(#Circle_00000075874205127412085420000005210043951110471812_);fill:#002E75;" d="M376.6,318.8
			c-57.2-14.3-122.1-21.9-187.6-21.9S58.5,304.5,1.4,318.8l-2.2-8.7c57.9-14.5,123.5-22.2,189.8-22.2c66.3,0,131.9,7.7,189.8,22.2
			L376.6,318.8z"/>
	</g>
</g>
<g id="Artboard_Grid" class="st7">
	<g id="Grid_00000128477040727856003190000002151487826573461384_" class="st8">
		<rect x="0" class="st9" width="378" height="378"/>
		<line class="st9" x1="0" y1="369" x2="378" y2="369"/>
		<line class="st9" x1="0" y1="360" x2="378" y2="360"/>
		<line class="st9" x1="0" y1="351" x2="378" y2="351"/>
		<line class="st9" x1="0" y1="342" x2="378" y2="342"/>
		<line class="st9" x1="0" y1="333" x2="378" y2="333"/>
		<line class="st9" x1="0" y1="324" x2="378" y2="324"/>
		<line class="st9" x1="0" y1="315" x2="378" y2="315"/>
		<line class="st9" x1="0" y1="306" x2="378" y2="306"/>
		<line class="st9" x1="0" y1="297" x2="378" y2="297"/>
		<line class="st9" x1="0" y1="288" x2="378" y2="288"/>
		<line class="st9" x1="0" y1="279" x2="378" y2="279"/>
		<line class="st9" x1="0" y1="270" x2="378" y2="270"/>
		<line class="st9" x1="0" y1="261" x2="378" y2="261"/>
		<line class="st9" x1="0" y1="252" x2="378" y2="252"/>
		<line class="st9" x1="0" y1="243" x2="378" y2="243"/>
		<line class="st9" x1="0" y1="234" x2="378" y2="234"/>
		<line class="st9" x1="0" y1="225" x2="378" y2="225"/>
		<line class="st9" x1="0" y1="216" x2="378" y2="216"/>
		<line class="st9" x1="0" y1="207" x2="378" y2="207"/>
		<line class="st9" x1="0" y1="198" x2="378" y2="198"/>
		<line class="st9" x1="0" y1="189" x2="378" y2="189"/>
		<line class="st9" x1="0" y1="180" x2="378" y2="180"/>
		<line class="st9" x1="0" y1="171" x2="378" y2="171"/>
		<line class="st9" x1="0" y1="162" x2="378" y2="162"/>
		<line class="st9" x1="0" y1="153" x2="378" y2="153"/>
		<line class="st9" x1="0" y1="144" x2="378" y2="144"/>
		<line class="st9" x1="0" y1="135" x2="378" y2="135"/>
		<line class="st9" x1="0" y1="126" x2="378" y2="126"/>
		<line class="st9" x1="0" y1="117" x2="378" y2="117"/>
		<line class="st9" x1="0" y1="108" x2="378" y2="108"/>
		<line class="st9" x1="0" y1="99" x2="378" y2="99"/>
		<line class="st9" x1="0" y1="90" x2="378" y2="90"/>
		<line class="st9" x1="0" y1="81" x2="378" y2="81"/>
		<line class="st9" x1="0" y1="72" x2="378" y2="72"/>
		<line class="st9" x1="0" y1="63" x2="378" y2="63"/>
		<line class="st9" x1="0" y1="54" x2="378" y2="54"/>
		<line class="st9" x1="0" y1="45" x2="378" y2="45"/>
		<line class="st9" x1="0" y1="36" x2="378" y2="36"/>
		<line class="st9" x1="0" y1="27" x2="378" y2="27"/>
		<line class="st9" x1="0" y1="18" x2="378" y2="18"/>
		<line class="st9" x1="0" y1="9" x2="378" y2="9"/>
		<line class="st9" x1="369" y1="0" x2="369" y2="378"/>
		<line class="st9" x1="360" y1="0" x2="360" y2="378"/>
		<line class="st9" x1="351" y1="0" x2="351" y2="378"/>
		<line class="st9" x1="342" y1="0" x2="342" y2="378"/>
		<line class="st9" x1="333" y1="0" x2="333" y2="378"/>
		<line class="st9" x1="324" y1="0" x2="324" y2="378"/>
		<line class="st9" x1="315" y1="0" x2="315" y2="378"/>
		<line class="st9" x1="306" y1="0" x2="306" y2="378"/>
		<line class="st9" x1="297" y1="0" x2="297" y2="378"/>
		<line class="st9" x1="288" y1="0" x2="288" y2="378"/>
		<line class="st9" x1="279" y1="0" x2="279" y2="378"/>
		<line class="st9" x1="270" y1="0" x2="270" y2="378"/>
		<line class="st9" x1="261" y1="0" x2="261" y2="378"/>
		<line class="st9" x1="252" y1="0" x2="252" y2="378"/>
		<line class="st9" x1="243" y1="0" x2="243" y2="378"/>
		<line class="st9" x1="234" y1="0" x2="234" y2="378"/>
		<line class="st9" x1="225" y1="0" x2="225" y2="378"/>
		<line class="st9" x1="216" y1="0" x2="216" y2="378"/>
		<line class="st9" x1="207" y1="0" x2="207" y2="378"/>
		<line class="st9" x1="198" y1="0" x2="198" y2="378"/>
		<line class="st9" x1="189" y1="0" x2="189" y2="378"/>
		<line class="st9" x1="180" y1="0" x2="180" y2="378"/>
		<line class="st9" x1="171" y1="0" x2="171" y2="378"/>
		<line class="st9" x1="162" y1="0" x2="162" y2="378"/>
		<line class="st9" x1="153" y1="0" x2="153" y2="378"/>
		<line class="st9" x1="144" y1="0" x2="144" y2="378"/>
		<line class="st9" x1="135" y1="0" x2="135" y2="378"/>
		<line class="st9" x1="126" y1="0" x2="126" y2="378"/>
		<line class="st9" x1="117" y1="0" x2="117" y2="378"/>
		<line class="st9" x1="108" y1="0" x2="108" y2="378"/>
		<line class="st9" x1="99" y1="0" x2="99" y2="378"/>
		<line class="st9" x1="90" y1="0" x2="90" y2="378"/>
		<line class="st9" x1="81" y1="0" x2="81" y2="378"/>
		<line class="st9" x1="72" y1="0" x2="72" y2="378"/>
		<line class="st9" x1="63" y1="0" x2="63" y2="378"/>
		<line class="st9" x1="54" y1="0" x2="54" y2="378"/>
		<line class="st9" x1="45" y1="0" x2="45" y2="378"/>
		<line class="st9" x1="36" y1="0" x2="36" y2="378"/>
		<line class="st9" x1="27" y1="0" x2="27" y2="378"/>
		<line class="st9" x1="18" y1="0" x2="18" y2="378"/>
		<line class="st9" x1="9" y1="0" x2="9" y2="378"/>
	</g>
</g>
<g id="Spotlight_Grid_Lines" class="st7">
	<g id="Diagram_00000160878721958658375800000000497324142140604554_" class="st10">
		<g>
			<rect x="0" y="0" class="st11" width="378" height="378"/>
			<g>
				<line class="st11" x1="189" y1="0" x2="189" y2="378"/>
			</g>
			<g>
				<line class="st11" x1="378" y1="189" x2="0" y2="189"/>
			</g>
			<g>
				<line class="st11" x1="378" y1="0" x2="0" y2="378"/>
			</g>
			<g>
				<line class="st11" x1="378" y1="378" x2="0" y2="0"/>
			</g>
		</g>
		<rect x="9" y="9" class="st11" width="360" height="360"/>
		<circle class="st11" cx="189" cy="189" r="180"/>
		<circle class="st11" cx="189" cy="189" r="135"/>
	</g>
	<path id="Margin_00000134940349473762709070000006587948581862733975_" class="st12" d="M378,0H0v378h378l0,0l0,0V0z M9,369V9h360
		v360H9z"/>
</g>
</svg>
