<?xml version="1.0" encoding="utf-8"?>
<!-- Generator: Adobe Illustrator 27.1.1, SVG Export Plug-In . SVG Version: 6.00 Build 0)  -->
<svg version="1.1" xmlns="http://www.w3.org/2000/svg" xmlns:xlink="http://www.w3.org/1999/xlink" x="0px" y="0px"
	 viewBox="0 0 378 378" style="enable-background:new 0 0 378 378;" xml:space="preserve">
<style type="text/css">
	.st0{fill:#EDEDEE;}
	.st1{fill:none;}
	.st2{fill:#FFFFFF;}
	.st3{fill:#00A0DF;}
	.st4{fill:#002E75;}
	.st5{fill:#0068B8;}
	.st6{clip-path:url(#Circle_00000116223784519308019360000010015417711856443818_);fill:#002E75;}
	.st7{display:none;}
	.st8{display:inline;opacity:0.14;}
	.st9{fill:none;stroke:#FE01FE;stroke-width:0.35;stroke-miterlimit:10;}
	.st10{display:inline;}
	.st11{fill:none;stroke:#9F9F9F;stroke-width:0.35;stroke-miterlimit:10;}
	.st12{display:inline;fill:#75DDFD;}
</style>
<g id="Spotlight">
	<circle id="Circle_00000011033214561200163840000001232303115237214619_" class="st0" cx="189" cy="189" r="180"/>
</g>
<g id="Icon_Art">
	<rect x="-0.8" y="9.3" class="st1" width="379.6" height="359.5"/>
	<path class="st2" d="M189,287.9c16.7,0,33.3,0.5,49.8,1.4v-64.2c0-27.4-22.2-49.6-49.6-49.6c-27.4,0-49.6,22.2-49.6,49.6v64.1
		C156,288.4,172.5,287.9,189,287.9z"/>
	<path class="st3" d="M218.1,184.6l-78.4,50v-9.5c0-27.4,22.2-49.7,49.7-49.7C200.1,175.5,210,178.8,218.1,184.6"/>
	<rect x="-0.8" y="9.3" class="st1" width="379.6" height="359.5"/>
	<path class="st4" d="M224.9,140.6c0-3,2.5-5.5,5.5-5.5h43.5c3,0,5.5,2.5,5.5,5.5v152.1c3,0.3,6,0.6,9,1V140.6
		c0-6.2-4-11.5-9.5-13.6v-4.6c0-2.8-2.2-5-5-5h-43.8c-2.8,0-5,2.2-5,5v4.7c-5.4,2.1-9.2,7.4-9.2,13.5v37.5c3.2,1.8,6.2,4,9,6.4
		V140.6z"/>
	<path class="st5" d="M140.5,81.3H179c3,0,5.5,2.5,5.5,5.5v84.6c1.6-0.1,3.2-0.2,4.8-0.2c1.4,0,2.8,0.1,4.2,0.2V86.8
		c0-8-6.5-14.5-14.5-14.5h-38.5c-8,0-14.5,6.5-14.5,14.5v12.4h9V86.8C135,83.7,137.5,81.3,140.5,81.3z"/>
	<path class="st5" d="M72.3,296v-39.2c0-2.5,2-4.5,4.5-4.5h13.8l0-9H76.8c-7.4,0-13.5,6.1-13.5,13.5v40.5
		C66.3,296.8,69.3,296.4,72.3,296z"/>
	<path class="st5" d="M305.8,220.6V296c3,0.4,6,0.9,9,1.3v-76.7c0-7.4-6.1-13.5-13.5-13.5h-12.9v9h12.9
		C303.7,216.1,305.8,218.1,305.8,220.6z"/>
	<path class="st4" d="M99.6,292.6l0.1-122.3c0-4.1,1.6-8,4.6-11l13.5-13.4l-0.1-37.8h26.1l0.1,37.8l13.6,13.3
		c2.9,2.9,4.6,6.9,4.6,11l0,8.1c2.8-1.7,5.9-3.1,9-4.2v-3.9c0-6.5-2.7-12.9-7.3-17.5l-10.9-10.7l-0.1-34.1h7.3c1.1,0,2-0.9,2-2v-5
		c0-1.1-0.9-2-2-2h-58.9c-1.1,0-2,0.9-2,2v5c0,1.1,0.9,2,2,2h7.5l0.1,34.1L97.9,153c-4.6,4.6-7.2,10.8-7.2,17.3l-0.1,123.3
		C93.6,293.2,96.6,292.9,99.6,292.6z"/>
	<path class="st4" d="M144.2,289.1v-63.9c0-24.8,20.2-45.1,45.1-45.1s45.1,20.2,45.1,45.1v63.9c3,0.2,6,0.3,9,0.5v-64.4
		c0-29.8-24.2-54.1-54.1-54.1s-54.1,24.2-54.1,54.1v64.4C138.2,289.4,141.2,289.2,144.2,289.1z"/>
</g>
<g id="Grounding_Arc">
	<g>
		<defs>
			<circle id="Circle_00000147916965159317290260000015478334964131358646_" cx="189" cy="189" r="180"/>
		</defs>
		<clipPath id="Circle_00000170240787627738964850000017449142636390465972_">
			<use xlink:href="#Circle_00000147916965159317290260000015478334964131358646_"  style="overflow:visible;"/>
		</clipPath>
		<path style="clip-path:url(#Circle_00000170240787627738964850000017449142636390465972_);fill:#002E75;" d="M376.6,318.8
			c-57.2-14.3-122.1-21.9-187.6-21.9S58.5,304.5,1.4,318.8l-2.2-8.7c57.9-14.5,123.5-22.2,189.8-22.2c66.3,0,131.9,7.7,189.8,22.2
			L376.6,318.8z"/>
	</g>
</g>
<g id="Artboard_Grid" class="st7">
	<g id="Grid_00000138541585311779898700000016796164777751414174_" class="st8">
		<rect x="0" y="0" class="st9" width="378" height="378"/>
		<line class="st9" x1="0" y1="369" x2="378" y2="369"/>
		<line class="st9" x1="0" y1="360" x2="378" y2="360"/>
		<line class="st9" x1="0" y1="351" x2="378" y2="351"/>
		<line class="st9" x1="0" y1="342" x2="378" y2="342"/>
		<line class="st9" x1="0" y1="333" x2="378" y2="333"/>
		<line class="st9" x1="0" y1="324" x2="378" y2="324"/>
		<line class="st9" x1="0" y1="315" x2="378" y2="315"/>
		<line class="st9" x1="0" y1="306" x2="378" y2="306"/>
		<line class="st9" x1="0" y1="297" x2="378" y2="297"/>
		<line class="st9" x1="0" y1="288" x2="378" y2="288"/>
		<line class="st9" x1="0" y1="279" x2="378" y2="279"/>
		<line class="st9" x1="0" y1="270" x2="378" y2="270"/>
		<line class="st9" x1="0" y1="261" x2="378" y2="261"/>
		<line class="st9" x1="0" y1="252" x2="378" y2="252"/>
		<line class="st9" x1="0" y1="243" x2="378" y2="243"/>
		<line class="st9" x1="0" y1="234" x2="378" y2="234"/>
		<line class="st9" x1="0" y1="225" x2="378" y2="225"/>
		<line class="st9" x1="0" y1="216" x2="378" y2="216"/>
		<line class="st9" x1="0" y1="207" x2="378" y2="207"/>
		<line class="st9" x1="0" y1="198" x2="378" y2="198"/>
		<line class="st9" x1="0" y1="189" x2="378" y2="189"/>
		<line class="st9" x1="0" y1="180" x2="378" y2="180"/>
		<line class="st9" x1="0" y1="171" x2="378" y2="171"/>
		<line class="st9" x1="0" y1="162" x2="378" y2="162"/>
		<line class="st9" x1="0" y1="153" x2="378" y2="153"/>
		<line class="st9" x1="0" y1="144" x2="378" y2="144"/>
		<line class="st9" x1="0" y1="135" x2="378" y2="135"/>
		<line class="st9" x1="0" y1="126" x2="378" y2="126"/>
		<line class="st9" x1="0" y1="117" x2="378" y2="117"/>
		<line class="st9" x1="0" y1="108" x2="378" y2="108"/>
		<line class="st9" x1="0" y1="99" x2="378" y2="99"/>
		<line class="st9" x1="0" y1="90" x2="378" y2="90"/>
		<line class="st9" x1="0" y1="81" x2="378" y2="81"/>
		<line class="st9" x1="0" y1="72" x2="378" y2="72"/>
		<line class="st9" x1="0" y1="63" x2="378" y2="63"/>
		<line class="st9" x1="0" y1="54" x2="378" y2="54"/>
		<line class="st9" x1="0" y1="45" x2="378" y2="45"/>
		<line class="st9" x1="0" y1="36" x2="378" y2="36"/>
		<line class="st9" x1="0" y1="27" x2="378" y2="27"/>
		<line class="st9" x1="0" y1="18" x2="378" y2="18"/>
		<line class="st9" x1="0" y1="9" x2="378" y2="9"/>
		<line class="st9" x1="369" y1="0" x2="369" y2="378"/>
		<line class="st9" x1="360" y1="0" x2="360" y2="378"/>
		<line class="st9" x1="351" y1="0" x2="351" y2="378"/>
		<line class="st9" x1="342" y1="0" x2="342" y2="378"/>
		<line class="st9" x1="333" y1="0" x2="333" y2="378"/>
		<line class="st9" x1="324" y1="0" x2="324" y2="378"/>
		<line class="st9" x1="315" y1="0" x2="315" y2="378"/>
		<line class="st9" x1="306" y1="0" x2="306" y2="378"/>
		<line class="st9" x1="297" y1="0" x2="297" y2="378"/>
		<line class="st9" x1="288" y1="0" x2="288" y2="378"/>
		<line class="st9" x1="279" y1="0" x2="279" y2="378"/>
		<line class="st9" x1="270" y1="0" x2="270" y2="378"/>
		<line class="st9" x1="261" y1="0" x2="261" y2="378"/>
		<line class="st9" x1="252" y1="0" x2="252" y2="378"/>
		<line class="st9" x1="243" y1="0" x2="243" y2="378"/>
		<line class="st9" x1="234" y1="0" x2="234" y2="378"/>
		<line class="st9" x1="225" y1="0" x2="225" y2="378"/>
		<line class="st9" x1="216" y1="0" x2="216" y2="378"/>
		<line class="st9" x1="207" y1="0" x2="207" y2="378"/>
		<line class="st9" x1="198" y1="0" x2="198" y2="378"/>
		<line class="st9" x1="189" y1="0" x2="189" y2="378"/>
		<line class="st9" x1="180" y1="0" x2="180" y2="378"/>
		<line class="st9" x1="171" y1="0" x2="171" y2="378"/>
		<line class="st9" x1="162" y1="0" x2="162" y2="378"/>
		<line class="st9" x1="153" y1="0" x2="153" y2="378"/>
		<line class="st9" x1="144" y1="0" x2="144" y2="378"/>
		<line class="st9" x1="135" y1="0" x2="135" y2="378"/>
		<line class="st9" x1="126" y1="0" x2="126" y2="378"/>
		<line class="st9" x1="117" y1="0" x2="117" y2="378"/>
		<line class="st9" x1="108" y1="0" x2="108" y2="378"/>
		<line class="st9" x1="99" y1="0" x2="99" y2="378"/>
		<line class="st9" x1="90" y1="0" x2="90" y2="378"/>
		<line class="st9" x1="81" y1="0" x2="81" y2="378"/>
		<line class="st9" x1="72" y1="0" x2="72" y2="378"/>
		<line class="st9" x1="63" y1="0" x2="63" y2="378"/>
		<line class="st9" x1="54" y1="0" x2="54" y2="378"/>
		<line class="st9" x1="45" y1="0" x2="45" y2="378"/>
		<line class="st9" x1="36" y1="0" x2="36" y2="378"/>
		<line class="st9" x1="27" y1="0" x2="27" y2="378"/>
		<line class="st9" x1="18" y1="0" x2="18" y2="378"/>
		<line class="st9" x1="9" y1="0" x2="9" y2="378"/>
	</g>
</g>
<g id="Spotlight_Grid_Lines" class="st7">
	<g id="Diagram_00000137849118694286997290000001203218628911067008_" class="st10">
		<g>
			<rect x="0" y="0" class="st11" width="378" height="378"/>
			<g>
				<line class="st11" x1="189" y1="0" x2="189" y2="378"/>
			</g>
			<g>
				<line class="st11" x1="378" y1="189" x2="0" y2="189"/>
			</g>
			<g>
				<line class="st11" x1="378" y1="0" x2="0" y2="378"/>
			</g>
			<g>
				<line class="st11" x1="378" y1="378" x2="0" y2="0"/>
			</g>
		</g>
		<rect x="9" y="9" class="st11" width="360" height="360"/>
		<circle class="st11" cx="189" cy="189" r="180"/>
		<circle class="st11" cx="189" cy="189" r="135"/>
	</g>
	<path id="Margin_00000099633284839032102580000015138029385937453715_" class="st12" d="M378,0H0v378h378l0,0l0,0V0z M9,369V9h360
		v360H9z"/>
</g>
</svg>
