<?xml version="1.0" encoding="utf-8"?>
<!-- Generator: Adobe Illustrator 27.1.1, SVG Export Plug-In . SVG Version: 6.00 Build 0)  -->
<svg version="1.1" xmlns="http://www.w3.org/2000/svg" xmlns:xlink="http://www.w3.org/1999/xlink" x="0px" y="0px"
	 viewBox="0 0 378 378" style="enable-background:new 0 0 378 378;" xml:space="preserve">
<style type="text/css">
	.st0{fill:#EDEDEE;}
	.st1{fill:#FFFFFF;}
	.st2{fill-rule:evenodd;clip-rule:evenodd;fill:#00A0DF;}
	.st3{fill:#0068B8;}
	.st4{fill:#002E75;}
	.st5{display:none;}
	.st6{display:inline;opacity:0.14;}
	.st7{fill:none;stroke:#FE01FE;stroke-width:0.35;stroke-miterlimit:10;}
	.st8{display:inline;}
	.st9{fill:none;stroke:#9F9F9F;stroke-width:0.35;stroke-miterlimit:10;}
	.st10{display:inline;fill:#75DDFD;}
</style>
<g id="Spotlight">
	<circle id="Circle_00000039125941342212647010000004078827508447382426_" class="st0" cx="189" cy="189" r="180"/>
</g>
<g id="Icon_Art">
	<rect x="85.1" y="121.6" class="st1" width="207.8" height="135.5"/>
	<polygon class="st2" points="89.6,158.1 139.8,126.1 89.7,126.1 	"/>
	<path class="st3" d="M175.1,144.1h-18.3c-2.5,0-4.5,2-4.5,4.5s2,4.5,4.5,4.5h6.9l-16.9,17l-9.7-9.4c-1.8-1.7-4.5-1.7-6.3,0
		l-21.6,21.2c-1.8,1.7-1.8,4.6-0.1,6.4c0.9,0.9,2,1.3,3.2,1.3c1.1,0,2.3-0.4,3.2-1.3l18.5-18.1l9.8,9.5c1.8,1.7,4.6,1.7,6.3-0.1
		l20.6-20.7v8.3c0,2.5,2,4.5,4.5,4.5s4.5-2,4.5-4.5v-18.6C179.6,146.1,177.6,144.1,175.1,144.1z"/>
	<polygon class="st3" points="252.6,234.6 252.6,143.9 243.6,143.9 243.6,234.6 226.1,234.6 226.1,162.2 217,162.2 217,234.6 
		199.1,234.6 199.1,180.5 189.9,180.5 189.9,234.6 172,234.6 172,198.3 162.8,198.3 162.8,234.6 144.9,234.6 144.9,216.1 
		135.7,216.1 135.7,234.6 125.6,234.6 125.6,243.6 261.5,243.6 261.5,234.6 	"/>
	<path class="st4" d="M293,261.6H85.2c-2.5,0-4.5-2-4.5-4.5l0-135.5c0-1.2,0.5-2.3,1.3-3.2c0.8-0.8,2-1.3,3.2-1.3h207.8
		c2.5,0,4.5,2,4.5,4.5l0,135.5c0,1.2-0.5,2.3-1.3,3.2C295.3,261.1,294.2,261.6,293,261.6z M89.7,252.6h198.8l0-126.5H89.6
		L89.7,252.6z"/>
</g>
<g id="Grounding_Arc">
</g>
<g id="Artboard_Grid" class="st5">
	<g id="Grid_00000007397482959547430510000005892966736186893501_" class="st6">
		<rect y="0" class="st7" width="378" height="378"/>
		<line class="st7" x1="0" y1="369" x2="378" y2="369"/>
		<line class="st7" x1="0" y1="360" x2="378" y2="360"/>
		<line class="st7" x1="0" y1="351" x2="378" y2="351"/>
		<line class="st7" x1="0" y1="342" x2="378" y2="342"/>
		<line class="st7" x1="0" y1="333" x2="378" y2="333"/>
		<line class="st7" x1="0" y1="324" x2="378" y2="324"/>
		<line class="st7" x1="0" y1="315" x2="378" y2="315"/>
		<line class="st7" x1="0" y1="306" x2="378" y2="306"/>
		<line class="st7" x1="0" y1="297" x2="378" y2="297"/>
		<line class="st7" x1="0" y1="288" x2="378" y2="288"/>
		<line class="st7" x1="0" y1="279" x2="378" y2="279"/>
		<line class="st7" x1="0" y1="270" x2="378" y2="270"/>
		<line class="st7" x1="0" y1="261" x2="378" y2="261"/>
		<line class="st7" x1="0" y1="252" x2="378" y2="252"/>
		<line class="st7" x1="0" y1="243" x2="378" y2="243"/>
		<line class="st7" x1="0" y1="234" x2="378" y2="234"/>
		<line class="st7" x1="0" y1="225" x2="378" y2="225"/>
		<line class="st7" x1="0" y1="216" x2="378" y2="216"/>
		<line class="st7" x1="0" y1="207" x2="378" y2="207"/>
		<line class="st7" x1="0" y1="198" x2="378" y2="198"/>
		<line class="st7" x1="0" y1="189" x2="378" y2="189"/>
		<line class="st7" x1="0" y1="180" x2="378" y2="180"/>
		<line class="st7" x1="0" y1="171" x2="378" y2="171"/>
		<line class="st7" x1="0" y1="162" x2="378" y2="162"/>
		<line class="st7" x1="0" y1="153" x2="378" y2="153"/>
		<line class="st7" x1="0" y1="144" x2="378" y2="144"/>
		<line class="st7" x1="0" y1="135" x2="378" y2="135"/>
		<line class="st7" x1="0" y1="126" x2="378" y2="126"/>
		<line class="st7" x1="0" y1="117" x2="378" y2="117"/>
		<line class="st7" x1="0" y1="108" x2="378" y2="108"/>
		<line class="st7" x1="0" y1="99" x2="378" y2="99"/>
		<line class="st7" x1="0" y1="90" x2="378" y2="90"/>
		<line class="st7" x1="0" y1="81" x2="378" y2="81"/>
		<line class="st7" x1="0" y1="72" x2="378" y2="72"/>
		<line class="st7" x1="0" y1="63" x2="378" y2="63"/>
		<line class="st7" x1="0" y1="54" x2="378" y2="54"/>
		<line class="st7" x1="0" y1="45" x2="378" y2="45"/>
		<line class="st7" x1="0" y1="36" x2="378" y2="36"/>
		<line class="st7" x1="0" y1="27" x2="378" y2="27"/>
		<line class="st7" x1="0" y1="18" x2="378" y2="18"/>
		<line class="st7" x1="0" y1="9" x2="378" y2="9"/>
		<line class="st7" x1="369" y1="0" x2="369" y2="378"/>
		<line class="st7" x1="360" y1="0" x2="360" y2="378"/>
		<line class="st7" x1="351" y1="0" x2="351" y2="378"/>
		<line class="st7" x1="342" y1="0" x2="342" y2="378"/>
		<line class="st7" x1="333" y1="0" x2="333" y2="378"/>
		<line class="st7" x1="324" y1="0" x2="324" y2="378"/>
		<line class="st7" x1="315" y1="0" x2="315" y2="378"/>
		<line class="st7" x1="306" y1="0" x2="306" y2="378"/>
		<line class="st7" x1="297" y1="0" x2="297" y2="378"/>
		<line class="st7" x1="288" y1="0" x2="288" y2="378"/>
		<line class="st7" x1="279" y1="0" x2="279" y2="378"/>
		<line class="st7" x1="270" y1="0" x2="270" y2="378"/>
		<line class="st7" x1="261" y1="0" x2="261" y2="378"/>
		<line class="st7" x1="252" y1="0" x2="252" y2="378"/>
		<line class="st7" x1="243" y1="0" x2="243" y2="378"/>
		<line class="st7" x1="234" y1="0" x2="234" y2="378"/>
		<line class="st7" x1="225" y1="0" x2="225" y2="378"/>
		<line class="st7" x1="216" y1="0" x2="216" y2="378"/>
		<line class="st7" x1="207" y1="0" x2="207" y2="378"/>
		<line class="st7" x1="198" y1="0" x2="198" y2="378"/>
		<line class="st7" x1="189" y1="0" x2="189" y2="378"/>
		<line class="st7" x1="180" y1="0" x2="180" y2="378"/>
		<line class="st7" x1="171" y1="0" x2="171" y2="378"/>
		<line class="st7" x1="162" y1="0" x2="162" y2="378"/>
		<line class="st7" x1="153" y1="0" x2="153" y2="378"/>
		<line class="st7" x1="144" y1="0" x2="144" y2="378"/>
		<line class="st7" x1="135" y1="0" x2="135" y2="378"/>
		<line class="st7" x1="126" y1="0" x2="126" y2="378"/>
		<line class="st7" x1="117" y1="0" x2="117" y2="378"/>
		<line class="st7" x1="108" y1="0" x2="108" y2="378"/>
		<line class="st7" x1="99" y1="0" x2="99" y2="378"/>
		<line class="st7" x1="90" y1="0" x2="90" y2="378"/>
		<line class="st7" x1="81" y1="0" x2="81" y2="378"/>
		<line class="st7" x1="72" y1="0" x2="72" y2="378"/>
		<line class="st7" x1="63" y1="0" x2="63" y2="378"/>
		<line class="st7" x1="54" y1="0" x2="54" y2="378"/>
		<line class="st7" x1="45" y1="0" x2="45" y2="378"/>
		<line class="st7" x1="36" y1="0" x2="36" y2="378"/>
		<line class="st7" x1="27" y1="0" x2="27" y2="378"/>
		<line class="st7" x1="18" y1="0" x2="18" y2="378"/>
		<line class="st7" x1="9" y1="0" x2="9" y2="378"/>
	</g>
</g>
<g id="Spotlight_Grid_Lines" class="st5">
	<g id="Diagram_00000015341953866590416000000014416060495154287547_" class="st8">
		<g>
			<rect y="0" class="st9" width="378" height="378"/>
			<g>
				<line class="st9" x1="189" y1="0" x2="189" y2="378"/>
			</g>
			<g>
				<line class="st9" x1="378" y1="189" x2="0" y2="189"/>
			</g>
			<g>
				<line class="st9" x1="378" y1="0" x2="0" y2="378"/>
			</g>
			<g>
				<line class="st9" x1="378" y1="378" x2="0" y2="0"/>
			</g>
		</g>
		<rect x="9" y="9" class="st9" width="360" height="360"/>
		<circle class="st9" cx="189" cy="189" r="180"/>
		<circle class="st9" cx="189" cy="189" r="135"/>
	</g>
	<path id="Margin_00000076588249611349638510000006929567997642535870_" class="st10" d="M378,0H0v378h378l0,0l0,0V0z M9,369V9h360
		v360H9z"/>
</g>
</svg>
