<?xml version="1.0" encoding="utf-8"?>
<!-- Generator: Adobe Illustrator 27.1.1, SVG Export Plug-In . SVG Version: 6.00 Build 0)  -->
<svg version="1.1" xmlns="http://www.w3.org/2000/svg" xmlns:xlink="http://www.w3.org/1999/xlink" x="0px" y="0px"
	 viewBox="0 0 378 378" style="enable-background:new 0 0 378 378;" xml:space="preserve">
<style type="text/css">
	.st0{fill:#EDEDEE;}
	.st1{fill:#243671;}
	.st2{fill:none;}
	.st3{fill:#FFFFFF;}
	.st4{fill:#134B95;}
	.st5{fill-rule:evenodd;clip-rule:evenodd;fill:#119FDA;}
	.st6{fill:#119FDA;}
	.st7{display:none;}
	.st8{display:inline;opacity:0.14;}
	.st9{fill:none;stroke:#B9529F;stroke-width:0.35;stroke-miterlimit:10;}
	.st10{display:inline;}
	.st11{fill:none;stroke:#9F9E9E;stroke-width:0.35;stroke-miterlimit:10;}
	.st12{display:inline;fill:#81D3F2;}
</style>
<g id="background">
	<circle id="Circle_00000103228728326562013480000001495515367342780041_" class="st0" cx="189" cy="189" r="180"/>
</g>
<g id="artwork">
	<g>
		<g>
			<rect x="49.99" y="169.33" class="st1" width="68.54" height="39.35"/>
		</g>
		<g>
			<g>
				<g>
					<path class="st0" d="M57.6,172.24c0,16.98,7.93,40.74,26.64,40.74s26.64-23.75,26.64-40.74H57.6z"/>
				</g>
				<g>
					<rect x="49.61" y="218.12" class="st1" width="13.35" height="19.82"/>
				</g>
				<g>
					<rect x="105.53" y="218.12" class="st1" width="13.35" height="19.82"/>
				</g>
				<g>
					<g>
						<path class="st1" d="M53.15,307.23v-17.4c0-1.8-1.46-3.26-3.27-3.26c-1.8,0-3.26,1.46-3.26,3.26v9.31
							C47.91,301.29,52.47,306.56,53.15,307.23z"/>
					</g>
				</g>
				<g>
					<path class="st1" d="M144.81,265.97c0-0.82-0.07-9.74-2.04-19.53c-0.39-1.91-1.09-4.4-1.74-6.53
						c-0.86-2.84-1.95-5.59-3.25-8.25c-0.77-1.58-1.75-3.04-2.92-4.34c-2.1-2.34-5.54-5.86-8.11-6.86c-2.04-0.79-3.97-1.51-5.8-2.19
						c-10.93-4.06-15.94-6.16-17.37-11.87c7.35-9.27,10.46-23.25,10.55-33.69l5.83,0c1,0,1.82-0.82,1.82-1.82
						c-0.01-4.34-0.03-8.68-0.04-13.01c0-1-0.81-1.8-1.8-1.81l-1.68-0.01c-0.28-2.77-1.33-9.42-6.35-15.84
						c-5.54-7.09-12.58-9.63-15.19-10.43c0.01-1.61,0.01-3.23,0.02-4.84c0-1.19-0.96-2.15-2.15-2.15l-20.72,0
						c-1.19,0-2.15,0.96-2.15,2.15c0,1.63,0,3.26,0,4.89c-2.63,0.84-9.51,3.42-14.98,10.39c-5.05,6.43-6.14,13.08-6.44,15.87
						l-1.71,0c-1,0-1.81,0.81-1.82,1.81l-0.05,13.03c0,1.01,0.81,1.82,1.82,1.82c1.94,0,3.88,0,5.82,0
						c0.09,10.48,3.22,24.51,10.63,33.78c-2.22,5.99-9.57,8.81-20.65,13.08l-2.25,0.86c-2.09,0.81-4.13,2.24-6.05,4.15
						c-1.48,1.47-2.73,3.16-3.83,4.93l-0.73,1.18c-2.58,4.18-4.46,8.75-5.59,13.52c-0.63,2.66-1.26,4.45-1.84,16.9
						c0.93,2.09,4.99,10.68,6.09,12.56c0.69-16.67,1.42-25.3,2.05-27.98c2.46-10.47,8.02-17.6,12.24-19.23l2.23-0.86
						c6.49-2.5,12.02-4.64,16.29-7.38l11.16,11.16l4.61-4.61l-10.77-10.77c0.72-0.83,1.36-1.72,1.91-2.69
						c3.93,3.04,8.69,4.9,14.39,4.9c5.67,0,10.4-1.84,14.32-4.84c0.53,1.08,1.17,2.06,1.91,2.95L90.03,224.8l4.61,4.61l10.85-10.85
						c3.57,2.18,8.06,3.86,13.21,5.77c1.8,0.67,3.7,1.37,5.71,2.16c11.45,4.45,13.94,30.04,13.93,39.52l1.37,49.96
						c2.16-1.01,4.29-2.08,6.38-3.21L144.81,265.97z M84.24,209.72c-15.95,0-23.22-21.46-23.37-36.98
						c15.58-0.01,31.16-0.01,46.73-0.02C107.46,188.24,100.2,209.72,84.24,209.72z"/>
				</g>
				<g>
					<path class="st2" d="M121.77,170.18l-0.04-11.6c0-1.38-1.12-2.51-2.51-2.52l-0.98-0.01c-0.28-2.77-1.33-9.42-6.35-15.84
						c-5.54-7.09-12.58-9.63-15.19-10.43c0-1.37,0.01-2.74,0.01-4.11c0.01-1.59-1.28-2.89-2.88-2.89l-19.26,0
						c-1.59,0-2.88,1.29-2.88,2.88l0,4.16c-2.63,0.84-9.51,3.42-14.98,10.39c-5.05,6.43-6.14,13.08-6.44,15.87l-1.01,0
						c-1.39,0-2.52,1.12-2.53,2.52c-0.01,3.87-0.03,7.74-0.04,11.61c-0.01,1.4,1.13,2.53,2.53,2.53l70.01-0.03
						C120.65,172.71,121.78,171.58,121.77,170.18z"/>
				</g>
			</g>
			<g>
				<g>
					<path class="st1" d="M356.92,253.95c0,0-0.06-0.22-0.09-0.33c-2.6-9.25-6.97-15.76-13.18-19.65c-2.92-1.83-6.15-2.98-9.26-4.09
						c-5.45-1.95-10.6-3.78-15.34-9.12c-2.39-2.69-4.29-5.87-5.66-9.44l-8.41,3.22c1.76,4.59,4.22,8.69,7.33,12.19
						c6.27,7.06,13.35,9.59,19.04,11.62c2.91,1.04,5.42,1.93,7.51,3.25c6.34,3.97,10.16,12.87,11.41,26.5
						c0.02,0.19,0.05,0.84,0.05,0.84l3.6-7.74L356.92,253.95z"/>
				</g>
				<g>
					<path class="st1" d="M246.81,319.8l-9-0.06l0.26-40.23c0.13-23.82,5.57-38.73,16.63-45.58c2.88-1.78,6.04-2.92,9.1-4.02
						c5.4-1.94,10.5-3.78,14.91-9.05c2.29-2.75,4.04-6.01,5.18-9.7l8.59,2.67c-1.5,4.83-3.81,9.13-6.87,12.79
						c-5.97,7.15-13.07,9.71-18.77,11.76c-2.74,0.99-5.33,1.92-7.41,3.21c-8.1,5.01-12.26,17.79-12.37,37.98L246.81,319.8z"/>
				</g>
				<g>
					<g>
						<path class="st1" d="M336.3,292.42v-0.65c0-1.74-1.41-3.15-3.15-3.15s-3.15,1.41-3.15,3.15v9.14
							C331.39,298.85,335.6,293.51,336.3,292.42z"/>
					</g>
				</g>
				<path class="st1" d="M333.66,162.02c0-0.42,0.35-1.63,0.58-2.43c0.74-2.58,1.65-5.8,0.47-8.91c-1.02-2.67-3.6-4.57-6.1-6.4
					c-1.15-0.84-2.72-1.99-3.17-2.62c-0.52-0.71-0.93-1.32-1.29-1.87c-1.84-2.74-3.19-4.53-7.71-6.63c-2.57-1.2-5.19-1.21-7.49-1.21
					c-1.16,0-2.26-0.01-3.12-0.17c-0.31-0.06-0.91-0.19-1.95-0.47c-3.22-0.85-6.73-0.84-9.87,0.04c-0.68,0.19-1.25,0.33-1.78,0.43
					c-0.86,0.17-1.95,0.17-3.12,0.17c-2.31,0.01-4.92,0.02-7.49,1.21c-4.52,2.1-5.88,3.89-7.71,6.63c-0.36,0.54-0.77,1.16-1.29,1.87
					c-0.46,0.63-2.03,1.78-3.17,2.62c-2.5,1.83-5.08,3.72-6.1,6.4c-1.19,3.11-0.27,6.32,0.47,8.91c0.23,0.8,0.58,2.01,0.58,2.43
					c-0.01,0.54-0.26,1.41-0.51,2.24c-0.6,2.06-1.43,4.88-0.2,7.89c1.27,3.1,3.42,4.79,5.32,6.28c0.71,0.56,1.39,1.09,2.01,1.68
					c0.42,0.41,0.82,1.15,1.27,2c1.48,2.79,3.97,7.47,12.38,8.06c2.33,0.17,26.2,0.01,28.4,0.01c0.11,0,0.21,0,0.32-0.01
					c8.41-0.59,10.9-5.27,12.38-8.06c0.46-0.86,0.85-1.6,1.27-2c0.62-0.6,1.3-1.12,2.01-1.68c1.9-1.49,4.06-3.18,5.33-6.28
					c1.23-3.01,0.41-5.83-0.2-7.89C333.92,163.43,333.67,162.57,333.66,162.02z"/>
				<g>
					<path class="st0" d="M325.24,181c-0.03,15.31-11.34,33.73-26.33,33.73c-14.99,0-26.28-18.42-26.33-33.73
						c-0.03-9.33,4.11-16.45,6.55-19.97c2.33-1.69,9.47-6.41,19.76-6.39c10.32,0.01,17.47,4.78,19.79,6.47
						C321.13,164.62,325.26,171.71,325.24,181z"/>
					<path class="st1" d="M298.91,219.22L298.91,219.22c-8.41,0-16.37-4.61-22.42-12.99c-5.24-7.26-8.38-16.69-8.41-25.22
						c-0.03-7.78,2.52-15.57,7.36-22.55l0.44-0.63l0.62-0.45c3.74-2.71,11.61-7.25,22.36-7.25c0.02,0,0.03,0,0.05,0
						c10.8,0.01,18.69,4.6,22.44,7.34l0.61,0.45l0.43,0.62c4.83,6.95,7.37,14.72,7.35,22.47l0,0c-0.02,8.53-3.16,17.96-8.41,25.23
						C315.29,214.61,307.33,219.22,298.91,219.22z M282.4,164.23c-2.54,3.83-5.34,9.67-5.32,16.75
						c0.04,13.24,9.79,29.24,21.83,29.24c12.06,0,21.8-15.99,21.83-29.23l4.5,0.01l-4.5-0.01c0.01-7.05-2.79-12.87-5.32-16.69
						c-3.06-2.11-8.82-5.16-16.53-5.17c-0.01,0-0.02,0-0.04,0C291.21,159.13,285.46,162.15,282.4,164.23z"/>
				</g>
				<g>
					<path class="st1" d="M302.36,249.22h-5.95l-8.05-12.93c-4.12-0.68-11.48-2.21-15-4.92l5.49-7.13c1.6,1.23,7.94,2.78,12.84,3.45
						l2.09,0.29l5.34,8.57l4.78-8.56l2.22-0.3c4.91-0.67,11.24-2.22,12.84-3.45l5.48,7.14c-3.48,2.67-10.72,4.2-14.87,4.89
						L302.36,249.22z"/>
				</g>
			</g>
		</g>
	</g>
	<g>
		<g>
			<g>
				<rect x="173.69" y="185.69" class="st1" width="29.93" height="9"/>
			</g>
			<g>
				<path class="st3" d="M127,358.01c8.34,2.69,56.66,10.7,62.85,11.05c8.38-0.02,53.98-1.3,94.05-26.97l-0.23-71.99
					c0-36.09-23.63-41.06-31.68-45.09c-18-9-28.49-5.23-39.79-18.77c-4.87-5.83-5.59-18.04-5.59-18.04h-35.93
					c0,0-0.72,12.2-5.59,18.04C153.8,219.77,144.28,216,126,225c-7.83,3.85-31.09,9-31.09,45.09l-0.22,72.26
					C101.56,347.36,124.38,357.16,127,358.01z"/>
				<path class="st1" d="M99.41,270.09c0-29.02,15.74-35.61,25.15-39.54c1.3-0.54,2.42-1.01,3.43-1.51
					c6.58-3.24,12.05-4.75,16.87-6.09c8.48-2.35,15.8-4.37,23.7-13.84c3.83-4.59,5.48-11.81,6.16-16.42h27.87
					c0.69,4.61,2.33,11.82,6.16,16.42c7.85,9.41,15.75,11.54,24.11,13.79c5.2,1.4,10.58,2.85,17.12,6.12
					c1.1,0.55,2.33,1.06,3.76,1.66c9.51,3.97,25.43,10.62,25.43,39.41l0.23,74.59c0.28-0.14,8.99-5.59,8.99-5.59l-0.22-69.01
					c0-34.77-20.91-43.51-30.96-47.7c-1.28-0.53-2.38-0.99-3.2-1.41c-7.35-3.68-13.44-5.32-18.81-6.76
					c-8.14-2.19-13.51-3.64-19.54-10.87c-3.19-3.83-4.37-12.43-4.55-15.42l-0.25-4.23h-44.42l-0.25,4.24
					c-0.16,2.78-1.35,11.58-4.55,15.42c-6.1,7.31-11.31,8.75-19.19,10.93c-5.2,1.44-11.1,3.07-18.44,6.69
					c-0.76,0.37-1.76,0.79-2.92,1.28c-9.96,4.16-30.68,12.83-30.68,47.83l-0.22,69.41l8.99,5.65L99.41,270.09z"/>
			</g>
			<g>
				<path class="st3" d="M226.5,145.3c-0.05,21.83-16.16,48.08-37.53,48.08c-21.37,0-37.46-26.26-37.53-48.08
					c-0.04-13.29,1.86-23.45,5.34-28.47c3.32-2.41,17.5-9.13,32.17-9.12c14.72,0.02,28.91,6.81,32.21,9.23
					C224.65,121.95,226.53,132.07,226.5,145.3z"/>
				<path class="st1" d="M188.97,197.88C188.97,197.88,188.97,197.88,188.97,197.88c-11.36,0-22.16-6.3-30.4-17.73
					c-7.24-10.04-11.59-23.06-11.63-34.83c-0.03-10.08,1.01-23.64,6.14-31.05l0.44-0.63l0.62-0.45c3.68-2.67,18.74-9.97,34.76-9.97
					c0.02,0,0.04,0,0.06,0c16.09,0.02,31.18,7.4,34.86,10.09l0.61,0.45l0.43,0.62c5.11,7.36,6.16,20.88,6.14,30.94
					c-0.02,11.77-4.37,24.8-11.62,34.85C211.13,191.58,200.33,197.88,188.97,197.88z M160.06,120.06
					c-2.62,4.46-4.16,13.77-4.12,25.23c0.07,19.74,14.81,43.59,33.03,43.59c18.25,0,32.99-23.84,33.03-43.58v0
					c0.02-11.43-1.5-20.7-4.11-25.13c-3.62-2.24-16.03-7.93-28.93-7.94c-0.02,0-0.04,0-0.05,0
					C176.06,112.22,163.69,117.83,160.06,120.06z"/>
			</g>
			<g>
				<path class="st1" d="M192.76,240.63h-6.29l-11.38-18.28c-5.13-0.81-16.43-2.97-21.37-6.77l5.49-7.13
					c2.92,2.24,12.99,4.45,19.22,5.3l2.09,0.29l8.85,14.21l7.93-14.2l2.23-0.3c6.22-0.85,16.3-3.06,19.22-5.3l5.49,7.13
					c-4.9,3.77-16.06,5.92-21.24,6.75L192.76,240.63z"/>
			</g>
			<g>
				<path class="st1" d="M239,135H139c-2.21,0-4-1.79-4-4v-14.9c0-2.21,1.79-4,4-4h100c2.21,0,4,1.79,4,4V131
					C243,133.21,241.21,135,239,135z"/>
			</g>
			<g>
				<path class="st1" d="M197.68,77.18h-17.37c-20.06,0-36.32,16.26-36.32,36.32v0h90v0C234,93.44,217.74,77.18,197.68,77.18z"/>
			</g>
			<g>
				<path class="st1" d="M203.18,93.45H175c-2.21,0-4-1.79-4-4V76c0-2.21,1.79-4,4-4h28.18c2.21,0,4,1.79,4,4v13.45
					C207.18,91.66,205.39,93.45,203.18,93.45z"/>
			</g>
		</g>
		<g>
			<path class="st4" d="M247.2,359.36v-61.32c-13.8-32.7-5.53-71.44,3.8-81.28C243,211.52,226.62,211.15,216,203
				c5.66,8.4-8.49,66.61-27,80.15l0,85.86C189.33,369.02,214.21,370.26,247.2,359.36z"/>
			<path class="st1" d="M193.5,368.94l0-83.65c11.7-10.23,19.48-33.14,22.38-42.87c1.18-3.95,5.56-19.42,5.87-30.98
				c4.67,2.02,9.58,3.34,14.12,4.57c3,0.81,5.9,1.59,8.37,2.49c-4.02,7-7.07,17.8-8.29,29.88c-1.78,17.67,0.62,35.58,6.75,50.56
				v61.93c2.95-1.3,5.95-1.98,9-3.09v-59.74c0-0.6-0.12-1.2-0.35-1.75c-5.82-13.78-8.1-30.48-6.44-47.02
				c1.51-15.02,5.91-25.78,9.36-29.42c0.92-0.97,1.36-2.29,1.21-3.62c-0.15-1.32-0.89-2.51-2-3.24c-4.06-2.66-9.5-4.13-15.25-5.68
				c-6.96-1.88-14.16-3.82-19.47-7.89c-1.75-1.34-4.23-1.25-5.84,0.27c-1.61,1.51-1.9,3.94-0.66,5.77
				c1.16,2.19,0.83,15.11-5.19,35.06c-5.69,18.87-13.63,33.81-20.71,38.99c-1.16,0.85-1.84,2.2-1.84,3.63l0,85.72
				C186.3,368.99,192.3,368.96,193.5,368.94z"/>
		</g>
		<g>
			<path class="st4" d="M130.8,298.04v61.34c30.77,10.08,52.3,9.27,58.2,9.62l0-85.86c-18.51-13.53-32.66-71.75-27-80.15
				c-10.62,8.15-27,8.53-34.99,13.77C136.33,226.6,144.6,265.34,130.8,298.04z"/>
			<path class="st1" d="M133.1,249.28c1.66,16.53-0.63,33.23-6.44,47.02c-0.23,0.55-0.35,1.15-0.35,1.75c0,0,0.47,59.89,0.7,59.96
				c2.75,0.89,5.52,2.12,8.3,2.9v-61.96c6.13-14.98,8.53-32.89,6.75-50.56c-1.21-12.08-4.26-22.88-8.29-29.88
				c2.46-0.9,5.36-1.68,8.37-2.49c4.54-1.22,9.45-2.55,14.12-4.57c0.31,11.57,4.69,27.03,5.87,30.98
				c2.9,9.73,10.68,32.64,22.38,42.87l0,83.56c1.8,0.13,7.8,0.1,9,0.08l0-85.8c0-1.44-0.68-2.79-1.84-3.63
				c-7.08-5.18-15.01-20.12-20.71-38.99c-6.02-19.95-6.35-32.87-5.22-35.01c1.23-1.83,0.96-4.28-0.65-5.79
				c-1.61-1.51-4.07-1.64-5.82-0.29c-5.31,4.08-12.51,6.02-19.47,7.89c-5.75,1.55-11.19,3.02-15.25,5.68
				c-1.12,0.73-1.85,1.92-2,3.24c-0.15,1.32,0.29,2.65,1.21,3.62C127.19,223.5,131.59,234.25,133.1,249.28z"/>
		</g>
		<g>
			<path class="st1" d="M135.35,360.95l-0.27-86.55c0-2.49-2.01-4.5-4.5-4.5s-4.5,2.01-4.5,4.5v83.27c0,0.1,0.02-0.07,0.03,0.03
				C126.41,357.8,135.35,360.95,135.35,360.95z"/>
		</g>
		<g>
			<path class="st1" d="M251.75,304.37v-29.9c0-2.49-2.01-4.5-4.5-4.5s-4.5,2.01-4.5,4.5L251.75,304.37z"/>
		</g>
		<g>
			<path class="st5" d="M196.63,84.21L153,112.04c0,0,0.23-11.64,10.19-20.43C175.46,80.77,196.63,84.21,196.63,84.21z"/>
		</g>
		<g>
			<rect x="135.45" y="324" class="st3" width="48.93" height="9"/>
		</g>
		<g>
			<rect x="135.45" y="342" class="st3" width="48.93" height="9"/>
		</g>
		<g>
			<rect x="193.59" y="324" class="st3" width="48.93" height="9"/>
		</g>
		<g>
			<rect x="193.59" y="342" class="st3" width="48.93" height="9"/>
		</g>
		<g>
			<rect x="135.45" y="324" class="st3" width="48.93" height="9"/>
		</g>
		<g>
			<rect x="135.45" y="342" class="st3" width="48.93" height="9"/>
		</g>
		<g>
			<rect x="193.59" y="324" class="st3" width="48.93" height="9"/>
		</g>
		<g>
			<rect x="193.59" y="342" class="st3" width="48.93" height="9"/>
		</g>
	</g>
	<g>
		<polygon class="st6" points="220,273.35 209.57,269.96 209.57,284.64 209.58,284.64 220,288.04 230.42,284.64 230.42,269.96 
			220,273.36 		"/>
	</g>
</g>
<g id="grid" class="st7">
	<g id="Grid_00000135689311940356372540000014122576450601647784_" class="st8">
		<rect class="st9" width="378" height="378"/>
		<line class="st9" x1="0" y1="369" x2="378" y2="369"/>
		<line class="st9" x1="0" y1="360" x2="378" y2="360"/>
		<line class="st9" x1="0" y1="351" x2="378" y2="351"/>
		<line class="st9" x1="0" y1="342" x2="378" y2="342"/>
		<line class="st9" x1="0" y1="333" x2="378" y2="333"/>
		<line class="st9" x1="0" y1="324" x2="378" y2="324"/>
		<line class="st9" x1="0" y1="315" x2="378" y2="315"/>
		<line class="st9" x1="0" y1="306" x2="378" y2="306"/>
		<line class="st9" x1="0" y1="297" x2="378" y2="297"/>
		<line class="st9" x1="0" y1="288" x2="378" y2="288"/>
		<line class="st9" x1="0" y1="279" x2="378" y2="279"/>
		<line class="st9" x1="0" y1="270" x2="378" y2="270"/>
		<line class="st9" x1="0" y1="261" x2="378" y2="261"/>
		<line class="st9" x1="0" y1="252" x2="378" y2="252"/>
		<line class="st9" x1="0" y1="243" x2="378" y2="243"/>
		<line class="st9" x1="0" y1="234" x2="378" y2="234"/>
		<line class="st9" x1="0" y1="225" x2="378" y2="225"/>
		<line class="st9" x1="0" y1="216" x2="378" y2="216"/>
		<line class="st9" x1="0" y1="207" x2="378" y2="207"/>
		<line class="st9" x1="0" y1="198" x2="378" y2="198"/>
		<line class="st9" x1="0" y1="189" x2="378" y2="189"/>
		<line class="st9" x1="0" y1="180" x2="378" y2="180"/>
		<line class="st9" x1="0" y1="171" x2="378" y2="171"/>
		<line class="st9" x1="0" y1="162" x2="378" y2="162"/>
		<line class="st9" x1="0" y1="153" x2="378" y2="153"/>
		<line class="st9" x1="0" y1="144" x2="378" y2="144"/>
		<line class="st9" x1="0" y1="135" x2="378" y2="135"/>
		<line class="st9" x1="0" y1="126" x2="378" y2="126"/>
		<line class="st9" x1="0" y1="117" x2="378" y2="117"/>
		<line class="st9" x1="0" y1="108" x2="378" y2="108"/>
		<line class="st9" x1="0" y1="99" x2="378" y2="99"/>
		<line class="st9" x1="0" y1="90" x2="378" y2="90"/>
		<line class="st9" x1="0" y1="81" x2="378" y2="81"/>
		<line class="st9" x1="0" y1="72" x2="378" y2="72"/>
		<line class="st9" x1="0" y1="63" x2="378" y2="63"/>
		<line class="st9" x1="0" y1="54" x2="378" y2="54"/>
		<line class="st9" x1="0" y1="45" x2="378" y2="45"/>
		<line class="st9" x1="0" y1="36" x2="378" y2="36"/>
		<line class="st9" x1="0" y1="27" x2="378" y2="27"/>
		<line class="st9" x1="0" y1="18" x2="378" y2="18"/>
		<line class="st9" x1="0" y1="9" x2="378" y2="9"/>
		<line class="st9" x1="369" y1="0" x2="369" y2="378"/>
		<line class="st9" x1="360" y1="0" x2="360" y2="378"/>
		<line class="st9" x1="351" y1="0" x2="351" y2="378"/>
		<line class="st9" x1="342" y1="0" x2="342" y2="378"/>
		<line class="st9" x1="333" y1="0" x2="333" y2="378"/>
		<line class="st9" x1="324" y1="0" x2="324" y2="378"/>
		<line class="st9" x1="315" y1="0" x2="315" y2="378"/>
		<line class="st9" x1="306" y1="0" x2="306" y2="378"/>
		<line class="st9" x1="297" y1="0" x2="297" y2="378"/>
		<line class="st9" x1="288" y1="0" x2="288" y2="378"/>
		<line class="st9" x1="279" y1="0" x2="279" y2="378"/>
		<line class="st9" x1="270" y1="0" x2="270" y2="378"/>
		<line class="st9" x1="261" y1="0" x2="261" y2="378"/>
		<line class="st9" x1="252" y1="0" x2="252" y2="378"/>
		<line class="st9" x1="243" y1="0" x2="243" y2="378"/>
		<line class="st9" x1="234" y1="0" x2="234" y2="378"/>
		<line class="st9" x1="225" y1="0" x2="225" y2="378"/>
		<line class="st9" x1="216" y1="0" x2="216" y2="378"/>
		<line class="st9" x1="207" y1="0" x2="207" y2="378"/>
		<line class="st9" x1="198" y1="0" x2="198" y2="378"/>
		<line class="st9" x1="189" y1="0" x2="189" y2="378"/>
		<line class="st9" x1="180" y1="0" x2="180" y2="378"/>
		<line class="st9" x1="171" y1="0" x2="171" y2="378"/>
		<line class="st9" x1="162" y1="0" x2="162" y2="378"/>
		<line class="st9" x1="153" y1="0" x2="153" y2="378"/>
		<line class="st9" x1="144" y1="0" x2="144" y2="378"/>
		<line class="st9" x1="135" y1="0" x2="135" y2="378"/>
		<line class="st9" x1="126" y1="0" x2="126" y2="378"/>
		<line class="st9" x1="117" y1="0" x2="117" y2="378"/>
		<line class="st9" x1="108" y1="0" x2="108" y2="378"/>
		<line class="st9" x1="99" y1="0" x2="99" y2="378"/>
		<line class="st9" x1="90" y1="0" x2="90" y2="378"/>
		<line class="st9" x1="81" y1="0" x2="81" y2="378"/>
		<line class="st9" x1="72" y1="0" x2="72" y2="378"/>
		<line class="st9" x1="63" y1="0" x2="63" y2="378"/>
		<line class="st9" x1="54" y1="0" x2="54" y2="378"/>
		<line class="st9" x1="45" y1="0" x2="45" y2="378"/>
		<line class="st9" x1="36" y1="0" x2="36" y2="378"/>
		<line class="st9" x1="27" y1="0" x2="27" y2="378"/>
		<line class="st9" x1="18" y1="0" x2="18" y2="378"/>
		<line class="st9" x1="9" y1="0" x2="9" y2="378"/>
	</g>
	<g id="Diagram_00000003099694154095441230000004738535957403656874_" class="st10">
		<g>
			<rect y="0" class="st11" width="378" height="378"/>
			<g>
				<line class="st11" x1="189" y1="0" x2="189" y2="378"/>
			</g>
			<g>
				<line class="st11" x1="378" y1="189" x2="0" y2="189"/>
			</g>
			<g>
				<line class="st11" x1="378" y1="0" x2="0" y2="378"/>
			</g>
			<g>
				<line class="st11" x1="378" y1="378" x2="0" y2="0"/>
			</g>
		</g>
		<rect x="9" y="9" class="st11" width="360" height="360"/>
		<circle class="st11" cx="189" cy="189" r="180"/>
		<circle class="st11" cx="189" cy="189" r="135"/>
	</g>
	<path id="Margin_00000163793769835085836070000017786815915549273785_" class="st12" d="M378,0H0v378h378l0,0l0,0V0z M9,369V9h360
		v360H9z"/>
</g>
</svg>
