<?xml version="1.0" encoding="utf-8"?>
<!-- Generator: Adobe Illustrator 27.1.1, SVG Export Plug-In . SVG Version: 6.00 Build 0)  -->
<svg version="1.1" xmlns="http://www.w3.org/2000/svg" xmlns:xlink="http://www.w3.org/1999/xlink" x="0px" y="0px"
	 viewBox="0 0 378 378" style="enable-background:new 0 0 378 378;" xml:space="preserve">
<style type="text/css">
	.st0{fill:#EDEDEE;}
	.st1{fill:#002E75;}
	.st2{fill:#0068B8;}
	.st3{fill:none;}
	.st4{fill:#FFFFFF;}
	.st5{fill:#00A0DF;}
	.st6{display:none;}
	.st7{display:inline;opacity:0.14;}
	.st8{fill:none;stroke:#FE01FE;stroke-width:0.35;stroke-miterlimit:10;}
	.st9{display:inline;}
	.st10{fill:none;stroke:#9F9F9F;stroke-width:0.35;stroke-miterlimit:10;}
	.st11{display:inline;fill:#75DDFD;}
</style>
<g id="background">
	<circle id="Circle_00000021085964926068802830000008103766877091176120_" class="st0" cx="189" cy="189" r="180"/>
</g>
<g id="artwork">
	<g>
		<g>
			<path class="st1" d="M278.97,247.64c-0.29,0-0.59,0-0.88-0.01c-5.33-0.17-10.35-1.8-14.9-4.86l5.01-7.48
				c3.13,2.1,6.56,3.22,10.18,3.34c4.12,0.13,8.03-1.05,11.62-3.5l5.07,7.44C290.19,245.9,284.64,247.64,278.97,247.64z"/>
		</g>
		<g>
			<path class="st2" d="M313.44,252.13c0,0-3.27-3.95-6.78-8.99c-2.63-3.78-5.95-8.52-1.92-16.5c3.67-6.53,5.83-14.55,5.83-23.22
				c0-21.73-13.56-39.38-30.39-39.7h-2.36c-16.83,0.32-30.39,17.97-30.39,39.7c0,8.67,2.17,16.69,5.83,23.22
				c4.02,7.98,0.71,12.72-1.92,16.5c-3.51,5.04-6.78,8.99-6.78,8.99s12.1,11.06,33.26,11.32h2.36
				C301.34,263.19,313.44,252.13,313.44,252.13z"/>
			<path class="st1" d="M277.82,267.95c-22.67-0.27-35.75-12-36.3-12.5l-3.16-2.89l2.73-3.3c0.03-0.04,3.2-3.88,6.56-8.69
				c2.45-3.52,4.39-6.3,1.64-11.82c-4.16-7.45-6.36-16.21-6.36-25.33c0-24.41,15.29-43.82,34.8-44.2l2.45,0
				c19.6,0.38,34.89,19.79,34.89,44.2c0,9.12-2.2,17.88-6.36,25.33c-2.75,5.52-0.82,8.3,1.63,11.81c3.36,4.82,6.53,8.66,6.56,8.7
				l2.73,3.3l-3.16,2.89c-0.55,0.5-13.62,12.22-36.24,12.5L277.82,267.95z M250.98,251.25c4.66,2.95,13.95,7.54,26.89,7.7l2.31,0
				c12.89-0.16,22.17-4.74,26.83-7.7c-1.17-1.53-2.58-3.44-4.05-5.54c-2.8-4.02-7.48-10.73-2.25-21.1l0.09-0.18
				c3.44-6.13,5.26-13.4,5.26-21.02c0-19.13-11.65-34.92-25.98-35.2l-2.28,0c-14.24,0.27-25.89,16.06-25.89,35.2
				c0,7.62,1.82,14.89,5.26,21.02l0.09,0.18c5.23,10.37,0.55,17.08-2.24,21.09C253.57,247.8,252.16,249.72,250.98,251.25z"/>
		</g>
		<g>
			<g>
				<path class="st0" d="M279,228.2c-10.14,0-18.39-11.2-18.39-24.96c0-5.77,1.46-11.27,4.15-15.72h28.48
					c2.69,4.45,4.15,9.95,4.15,15.72C297.39,217,289.14,228.2,279,228.2z"/>
			</g>
			<g>
				<path class="st1" d="M290.54,192.02c1.53,3.32,2.35,7.18,2.35,11.22c0,11.09-6.36,20.46-13.89,20.46
					c-7.53,0-13.89-9.37-13.89-20.46c0-4.04,0.82-7.9,2.35-11.22H290.54 M295.65,183.02h-33.29c-3.87,5.28-6.25,12.39-6.25,20.22
					c0,16.27,10.25,29.46,22.89,29.46c12.64,0,22.89-13.19,22.89-29.46C301.89,195.41,299.52,188.3,295.65,183.02L295.65,183.02z"/>
			</g>
		</g>
		<g>
			<path class="st1" d="M302.04,256.87c-7.73,0-15.51-0.58-22.96-3.27c-9.51-3.43-20.38-8.83-28.87-22.85l7.7-4.66
				c7.02,11.59,15.79,16,24.23,19.04c8.69,3.13,18.75,2.85,28.48,2.57l2.71-0.08l0.23,9l-2.68,0.07
				C307.95,256.78,305,256.87,302.04,256.87z"/>
		</g>
	</g>
	<g>
		<path class="st1" d="M115.54,231.05c0.64,3.03,17.13,16.62,21.14,15.5c0-0.92-0.03-38.18-0.15-39.71
			c-0.41-5.36-1.67-21.72-14.01-31.49c-2.12-1.68-8.81-6.82-18.55-6.86c-10.32-0.04-17.36,5.68-19.21,7.23
			c-11.36,9.51-12.48,24.92-12.94,31.23c-0.12,1.6-0.14,38.91-0.14,39.85c4.16,1.65,17.59-10.79,20.64-15.74l-8.75-18.37
			c-1.06-5.48-0.4-11.16,1.89-16.25l1.93-4.3l12.56,2.12c2.79,0.47,5.64,0.51,8.44,0.11l12.16-1.72l0,0
			c3.91,5.1,5.58,11.58,4.61,17.94L115.54,231.05z"/>
		<path class="st1" d="M72.39,251.41c-0.84,0-1.63-0.14-2.37-0.43l-2.84-1.13l0-3.34c0.01-17.42,0.05-38.49,0.15-39.89
			c0.47-6.46,1.71-23.62,14.54-34.36c6.38-5.34,14.19-8.27,21.99-8.27c0.04,0,0.08,0,0.12,0c7.63,0.03,14.81,2.66,21.33,7.83
			c13.88,10.99,15.25,28.81,15.7,34.67c0.04,0.49,0.12,1.5,0.16,37.93l0.02,5.54l-3.3,0.92c-2.49,0.7-5.42-0.13-9.77-2.77
			c-3.44-2.09-15.92-11.06-16.99-16.13l-0.31-1.48l9.97-21.21c0.49-4.08-0.38-8.24-2.41-11.79l-9.37,1.32
			c-3.27,0.46-6.57,0.42-9.82-0.13l-9.13-1.54l-0.51,1.13c-1.84,4.1-2.42,8.59-1.67,13.01l9.54,20.04l-1.29,2.08
			C94.42,236.22,81.21,251.4,72.39,251.41z M103.86,172.99c-7.3,0-12.84,3.35-16.21,6.18c-9.9,8.29-10.91,22.17-11.34,28.1
			c-0.05,1.12-0.1,13.95-0.12,33.24c3.52-2.44,8.25-6.68,10.93-9.93l-7.85-16.48l-0.11-0.56c-1.24-6.43-0.48-12.98,2.2-18.95
			l3.36-7.47l15.99,2.7c2.34,0.4,4.71,0.43,7.06,0.1l14.77-2.08l1.6,2.08c4.63,6.04,6.63,13.82,5.49,21.35l-0.1,0.65l-8.84,18.79
			c2.3,2.56,7.54,6.83,11.5,9.37c-0.04-27.01-0.1-32.27-0.13-32.94c-0.37-4.83-1.52-19.7-12.32-28.25
			c-4.91-3.89-10.21-5.87-15.78-5.89C103.92,172.99,103.89,172.99,103.86,172.99z"/>
	</g>
	<g>
		<ellipse class="st0" cx="105.18" cy="200.31" rx="23.37" ry="30.08"/>
		<path class="st1" d="M105.18,234.39c-15.09,0-27.37-15.29-27.37-34.08s12.28-34.08,27.37-34.08s27.37,15.29,27.37,34.08
			S120.27,234.39,105.18,234.39z M105.18,174.23c-10.68,0-19.37,11.7-19.37,26.08s8.69,26.08,19.37,26.08s19.37-11.7,19.37-26.08
			S115.86,174.23,105.18,174.23z"/>
	</g>
	<g>
		<path class="st1" d="M123.55,181.93c-4.99,5.14-16.86,11-40.24,8.07l0.9-2.25c1.34-3.34,3.27-6.42,5.7-9.07l1.55-1.7
			c2.15-2.35,4.85-4.11,7.87-5.12l0.45-0.15c2.81-0.94,5.83-1.08,8.72-0.4l0.6,0.14c2.25,0.53,4.38,1.49,6.27,2.82l0,0
			c0.98,0.69,1.9,1.46,2.75,2.3L123.55,181.93z"/>
		<path class="st1" d="M95.24,195.29c-3.76,0-7.91-0.25-12.49-0.83c-1.38-0.17-2.61-0.98-3.32-2.18c-0.71-1.2-0.82-2.66-0.3-3.96
			l0.9-2.25c1.54-3.86,3.75-7.37,6.56-10.44l1.55-1.7c2.65-2.9,6.03-5.09,9.75-6.34l0.44-0.15c3.61-1.21,7.48-1.39,11.19-0.52
			l0.61,0.14c2.82,0.66,5.46,1.85,7.83,3.52c1.18,0.83,2.3,1.77,3.32,2.78l5.42,5.36c1.76,1.74,1.78,4.56,0.06,6.34
			C122.77,189.19,113.71,195.29,95.24,195.29z M89.99,186.12c14.2,0.91,22.34-1.9,26.77-4.57l-1.81-1.79
			c-0.67-0.66-1.4-1.28-2.18-1.82c-1.43-1-3.01-1.72-4.71-2.12l-0.61-0.14c-2.07-0.49-4.24-0.39-6.26,0.29l-0.44,0.15
			c-2.29,0.77-4.35,2.11-5.98,3.89l-1.55,1.7C91.99,183.06,90.91,184.54,89.99,186.12z"/>
	</g>
	<g>
		<g>
			<path class="st1" d="M151.94,327.28L151.67,291c0.08-18.31-3.57-29.89-10.85-34.45c-1.92-1.2-4.3-2.05-6.83-2.95
				c-5.1-1.82-11.44-4.08-17.04-10.39c-2.78-3.13-4.98-6.8-6.55-10.9l7-2.68c1.25,3.25,2.98,6.15,5.16,8.6
				c4.32,4.87,9.22,6.62,13.95,8.31c2.79,1,5.68,2.03,8.29,3.66c9.77,6.12,14.47,19.46,14.37,40.79l0.27,36.24L151.94,327.28z"/>
		</g>
		<g>
			<path class="st1" d="M69.92,256.83l-3.95-6.38c2.42-1.5,4.97-2.52,7.43-3.51c4.67-1.87,9.08-3.64,13.25-8.64
				c2.09-2.5,3.68-5.48,4.73-8.85l7.16,2.23c-1.34,4.32-3.41,8.16-6.13,11.43c-5.38,6.45-11.13,8.75-16.21,10.79
				C73.94,254.82,71.8,255.67,69.92,256.83z"/>
		</g>
		<g>
			<path class="st1" d="M104.76,248.01c-0.29,0-0.57,0-0.86-0.01c-5.21-0.17-10.11-1.76-14.56-4.75l4.17-6.23
				c3.27,2.19,6.84,3.36,10.63,3.48c4.31,0.13,8.38-1.09,12.13-3.64l4.22,6.2C115.72,246.31,110.3,248.01,104.76,248.01z"/>
		</g>
	</g>
	<g>
		<path class="st3" d="M154.94,305.62v39.9c-2.53-0.61-5.03-1.29-7.5-2.04v-37.86c0-2.07,1.68-3.75,3.75-3.75
			C153.26,301.88,154.94,303.55,154.94,305.62z"/>
	</g>
	<g>
		<path class="st1" d="M305.1,290.19c-2.25,0-4.08,1.83-4.08,4.08v35.65c3.1-2.54,4.91-4.11,8.16-6.96v-28.7
			C309.18,292.02,307.36,290.19,305.1,290.19z"/>
	</g>
	<g>
		<path class="st1" d="M325.63,260.61c-2.02-4.91-7.45-7.76-12.28-10.08c-0.39,2.71-1.47,5.26-3.05,7.47
			c3.45,1.55,6.76,3.23,7.78,5.71c1.54,3.76,2.32,26.77,2.36,47.91c0,0.12,0,0.35,0,0.35l4.15-4.59l3.84-4.55c0,0,0-0.24-0.01-0.36
			C328.06,284.61,327.18,264.38,325.63,260.61z"/>
	</g>
	<g>
		<path class="st1" d="M27.11,253.41c2.22-2.33,4.1-4.96,5.5-7.85c0.24-0.49,0.44-0.93,0.57-1.3c-0.33-0.1-0.64-0.22-0.95-0.34
			c-1.57-0.49-2.79-1.73-4.11-2.65c-0.35,0.1-0.58-0.09-0.93,0.01c-0.69,1.89-1.97,4.81-3.8,6.85c-1.01,1.13-2.09,2.06-3.18,2.82
			c-0.07,0.05-0.2,0.14-0.2,0.14l2.48,6.44c0,0,0.12-0.1,0.18-0.14c0.45-0.36,0.88-0.7,1.26-1c0.93-0.74,1.8-1.54,2.62-2.39
			L27.11,253.41z"/>
	</g>
	<g>
		<path class="st1" d="M60.72,253.76c-5.2-2.74-10.12-5.36-12.31-13.33c-0.27,0.19-0.55,0.36-0.83,0.54
			c-1.48,1.24-3.17,2.22-4.96,2.91c0.13,0.4,0.31,0.83,0.5,1.27c1.19,2.76,2.9,5.26,4.93,7.47h0c1.36,1.48,2.91,2.78,4.6,3.87
			c1.66,1.07,3.73,2.37,5.03,3.05c1.42,0.75,2.73,1.44,3.87,2.18c1.14-1.89,2.67-3.55,4.45-4.89
			C64.32,255.66,62.51,254.7,60.72,253.76z"/>
	</g>
	<g>
		<path class="st1" d="M358.03,251.03l-0.17-0.11l-1.57-1.02l-4.09-6.21c1.8-1.5,3.49-3.36,5.01-5.57c3.95-5.72,6.21-12.9,6.21-19.7
			c0-14.18-10.1-25.72-22.51-25.72c-12.41,0-22.51,11.54-22.51,25.72c0,6.79,2.26,13.97,6.21,19.7c1.4,2.03,2.94,3.77,4.58,5.21
			l-4.32,6.31c-4.29,1.85-5.76,2.39-8.84,4.6c1.34,1.75,0.19,5.24,0.8,7.42c2.58-2.01,5.71-3.82,9.51-5.53l11.02,10.54v8.3
			c0,1.81,1.47,3.27,3.27,3.27c1.81,0,3.27-1.47,3.27-3.27v-7.82l10.48-10.69l1.06,0.69l0.16,0.1L358.03,251.03z M324.94,218.43
			c0-1.13,0.09-2.24,0.24-3.31c4.97,0.42,8.16-14.37,11.96-14.82c7.53-0.9,14.05,11.47,17.71,8.83c1.28,2.76,2.01,5.93,2.01,9.31
			c0,10.4-7.37,23.11-15.97,23.11C332.31,241.54,324.94,228.83,324.94,218.43z M340.84,260.95l-9.53-9.12l3.43-5.01
			c2,0.82,4.07,1.26,6.18,1.26c1.92,0,3.82-0.36,5.65-1.04l3.18,4.83L340.84,260.95z"/>
	</g>
	<g>
		<path class="st1" d="M63.49,202.98c0.02-0.26,0.24-1.01,0.38-1.51c0.56-1.95,1.32-4.63,0.31-7.28c0,0,0,0,0,0
			c-0.87-2.29-2.91-3.78-4.88-5.23c-0.67-0.49-1.79-1.31-2.06-1.66c-0.37-0.51-0.66-0.94-0.92-1.33c-1.47-2.19-2.61-3.64-6.14-5.28
			c-2.12-0.99-4.27-1-5.99-1c-0.79,0-1.54-0.01-2.06-0.11c-0.37-0.07-0.86-0.19-1.35-0.32c-2.6-0.69-5.32-0.67-7.87,0.03
			c-0.4,0.11-0.8,0.21-1.21,0.29c-0.52,0.1-1.27,0.1-2.06,0.11c-1.72,0.01-3.87,0.01-5.99,1c-3.53,1.64-4.68,3.09-6.15,5.28
			c-0.26,0.39-0.55,0.82-0.91,1.32c-0.28,0.36-1.4,1.18-2.07,1.67c-1.97,1.44-4.01,2.94-4.88,5.23c-0.2,0.53-0.32,1.19-0.39,1.71
			l0.07,3.67c0.15,0.66,0.48,1.34,0.63,1.9c0.14,0.5,0.36,1.25,0.38,1.43c0,0.24-0.19,0.87-0.32,1.33
			c-0.07,0.24-0.15,0.51-0.22,0.78l0.04,0.62l0.67,6.34c1.06,1.84,2.49,2.98,3.69,3.92c0.5,0.39,0.97,0.76,1.38,1.16
			c0.17,0.16,0.45,0.7,0.7,1.16c1.13,2.12,3.22,6.06,10.05,6.54c2.3,0.17,18.69,0.01,20.89,0.01c0.11,0,0.21,0,0.32-0.01
			c6.83-0.48,8.92-4.42,10.05-6.54c0.25-0.47,0.53-1,0.7-1.16c0.41-0.4,0.88-0.77,1.38-1.16c1.44-1.13,3.22-2.53,4.27-5.09
			c1.06-2.59,0.36-4.99-0.1-6.58C63.68,203.77,63.5,203.14,63.49,202.98z"/>
		<g>
			<path class="st0" d="M56.12,216.83c-0.02,11.22-8.31,24.71-19.29,24.71c-10.98,0-19.25-13.5-19.29-24.71
				c-0.02-6.83,3.01-12.06,4.8-14.63c1.71-1.24,6.94-4.7,14.48-4.69c7.57,0.01,12.8,3.5,14.5,4.74
				C53.11,204.83,56.14,210.03,56.12,216.83z"/>
			<path class="st1" d="M36.83,245.05C36.83,245.05,36.83,245.05,36.83,245.05c-6.23,0-12.12-3.41-16.59-9.6
				c-3.86-5.36-6.18-12.31-6.2-18.6c-0.02-5.74,1.86-11.49,5.43-16.64l0.34-0.49l0.48-0.35c2.76-2,8.57-5.35,16.5-5.35
				c0.01,0,0.02,0,0.03,0c7.97,0.01,13.8,3.4,16.56,5.42l0.47,0.35l0.34,0.48c3.56,5.13,5.44,10.86,5.42,16.58
				c-0.01,6.29-2.33,13.25-6.2,18.61C48.95,241.64,43.06,245.05,36.83,245.05z M24.88,204.69c-1.84,2.78-3.86,7.01-3.84,12.13
				c0.03,9.61,7.08,21.23,15.79,21.23c8.72,0,15.77-11.61,15.79-21.22l0,0c0.01-5.1-2.01-9.31-3.84-12.08
				c-2.23-1.53-6.4-3.73-11.96-3.73c-0.01,0-0.02,0-0.03,0C31.26,201.01,27.11,203.18,24.88,204.69z"/>
		</g>
	</g>
	<g>
		<path class="st1" d="M76.94,290.19c2.07,0,3.75,1.68,3.75,3.75v38.84c-2.86-2.38-4.74-3.52-7.5-5.95v-32.89
			C73.2,291.87,74.87,290.19,76.94,290.19z"/>
	</g>
	<g>
		<path class="st1" d="M55.52,260.53c2.32-5.64,6.96-8.32,11.59-10.77c1.41,2.2,3.3,4.1,5.48,5.58c-0.4,0.21-0.8,0.43-1.19,0.63
			c-4.21,2.22-7.53,3.97-8.95,7.41c-1.59,3.87-2.29,30-2.15,50.99c0,0.16,0,0.47,0,0.47l-4.26-4.52l-3.23-3.61c0,0,0-0.14,0.01-0.29
			C53.05,288.74,53.88,264.54,55.52,260.53z"/>
	</g>
	<g>
		<path class="st1" d="M335.67,210.83c6.21,4.48,13.91,6.87,21.57,6.68c0.52-0.01,1.06-0.04,1.5-0.32c1.02-0.65,0.89-2.17,0.54-3.33
			c-1.15-3.81-3.25-7.25-5.33-10.65c-0.89-1.45-1.81-2.94-3.22-3.9c-1.56-1.07-3.51-1.34-5.38-1.59c-2.16-0.28-4.34-0.57-6.52-0.45
			s-4.38,0.66-6.17,1.91c-2.37,1.65-3.78,4.32-5,6.94c-0.86,1.86-1.68,3.74-2.44,5.64c-0.73,1.81-1.74,3.8-2.11,5.72
			c-0.4,2.07,2.57,0.37,3.49-0.04c1.61-0.71,3.14-1.58,4.57-2.59C332.82,213.69,334.34,212.34,335.67,210.83z"/>
	</g>
	<g>
		<polygon class="st1" points="37.23,267.54 21.79,255.67 20.76,253.02 25.35,247.05 37.24,256.2 48.33,247.71 53.8,254.86 		"/>
	</g>
	<path class="st4" d="M202.06,196.74c11.02-6.69,18.69-21.52,18.69-38.75c0-23.5-14.25-42.55-31.84-42.55s-31.84,19.05-31.84,42.55
		c0,17.21,7.65,32.02,18.65,38.72l-4.7,11.81l-7.67,10.1l25.33,19.83l27.78-20.34l-13.11-16.36L202.06,196.74z"/>
	<g>
		<g>
			<g>
				<path class="st4" d="M189,369.05c25.38,0,48.73-4.76,70.55-14.41l-1.59-73.79c0,0,0.06-43.68-19.25-51.19
					c-17.83-6.93-22.25-11.54-22.25-11.54l-27.32,21.62l-25.79-21.11c0,0-6.46,4.37-23.69,11.03c-6.34,2.45-13.87,12.12-17.11,25.88
					c-1.51,6.42-3.17,69.05-4.1,99.12C140.43,364.16,162.29,369.05,189,369.05z"/>
			</g>
			<g>
				<path class="st1" d="M255.03,356.63l-0.35-75.01c0.11-25.54-5.04-41.74-15.32-48.18c-2.71-1.7-6.05-2.89-9.58-4.15
					c-7.33-2.62-15.65-5.58-23.27-14.17c-3.79-4.27-6.79-9.26-8.93-14.85l8.41-3.22c1.75,4.57,4.19,8.64,7.25,12.1
					c6.09,6.86,12.94,9.31,19.57,11.67c4,1.43,7.79,2.78,11.33,5c13.28,8.32,19.67,26.57,19.55,55.81l0.34,71.03L255.03,356.63z"/>
			</g>
			<g>
				<path class="st1" d="M122.95,356.45l-4.82-1.94l-4.18-1.86l0.33-71.02c0.16-29.27,6.76-47.54,20.2-55.86
					c3.5-2.16,7.38-3.56,11.13-4.91c6.57-2.36,13.37-4.81,19.05-11.61c2.95-3.53,5.19-7.73,6.66-12.47l8.59,2.67
					c-1.83,5.88-4.63,11.11-8.35,15.56c-7.25,8.68-15.57,11.67-22.91,14.32c-3.47,1.25-6.75,2.43-9.44,4.09
					c-10.44,6.46-15.8,22.69-15.94,48.25L122.95,356.45z"/>
			</g>
			<g>
				<g>
					<path class="st2" d="M228,348.49c-12.17,3.01-24.67,4.57-37.2,4.65c-13.12,0.1-26.5-1.53-39.23-4.65v16.56
						c-0.13-0.03,0.28,0.03,0.62,0.09c24.96,4.86,49.29,5.44,73.7,0.14c1.61-0.35,2.08-0.47,2.08-0.47L228,348.49z"/>
				</g>
				<g>
					<path class="st1" d="M151.57,324.88v-25.5c0-2.17-1.76-3.92-3.93-3.92c-2.17,0-3.92,1.76-3.92,3.92v63.84
						c0.99,0.3,6.22,1.44,7.86,1.84V324.88z"/>
				</g>
				<g>
					<path class="st1" d="M235.55,299.38c0-2.17-1.76-3.92-3.92-3.92c-2.17,0-3.92,1.76-3.92,3.92v25.42v40.08
						c1.89-0.48,7.11-1.74,7.85-1.97V299.38z"/>
				</g>
			</g>
			<g>
				<polygon class="st1" points="188.99,243.94 158.84,220.76 164.32,213.63 189,232.6 212.17,214.86 217.65,222.01 				"/>
			</g>
		</g>
		<g>
			<g>
				<path class="st1" d="M189,206.6c-21.43,0-38.87-21.86-38.87-48.73s17.44-48.73,38.87-48.73s38.87,21.86,38.87,48.73
					S210.43,206.6,189,206.6z M189,118.13c-16.47,0-29.87,17.82-29.87,39.73s13.4,39.73,29.87,39.73s29.87-17.82,29.87-39.73
					S205.47,118.13,189,118.13z"/>
			</g>
			<g>
				<path class="st1" d="M216.02,130.83c-7.35,7.56-24.8,16.17-59.18,11.86l1.33-3.31c1.97-4.92,4.81-9.43,8.38-13.34l2.28-2.49
					c3.15-3.45,7.14-6.04,11.57-7.52l0.65-0.22c4.14-1.39,8.58-1.59,12.83-0.59l0.89,0.21c3.31,0.78,6.44,2.19,9.22,4.14h0
					c1.44,1.01,2.79,2.14,4.04,3.38L216.02,130.83z"/>
				<path class="st1" d="M174.43,148.36c-5.45,0-11.48-0.37-18.15-1.2c-1.38-0.17-2.61-0.98-3.32-2.18s-0.82-2.66-0.3-3.96
					l1.33-3.31c2.18-5.44,5.29-10.38,9.24-14.7l2.28-2.49c3.66-4,8.31-7.03,13.46-8.75l0.66-0.22c4.94-1.66,10.22-1.9,15.29-0.71
					l0.89,0.21c3.89,0.92,7.52,2.54,10.78,4.84c1.64,1.15,3.19,2.45,4.62,3.86l7.98,7.89c1.76,1.74,1.78,4.56,0.06,6.34
					C213.59,139.78,200.78,148.36,174.43,148.36z M163.3,138.86c26.03,2.25,39.6-3.61,46.08-8.26l-4.51-4.46
					c-1.07-1.06-2.24-2.04-3.47-2.9c-2.32-1.63-4.9-2.79-7.67-3.44l-0.89-0.21c-3.44-0.81-7.02-0.64-10.37,0.48l-0.66,0.22
					c-3.7,1.24-7.05,3.42-9.68,6.29l-2.28,2.49C167.19,132.01,164.99,135.29,163.3,138.86z"/>
			</g>
		</g>
	</g>
	<g>
		<polygon class="st5" points="216,255.3 205.58,251.91 205.58,266.6 205.58,266.6 216,269.99 226.42,266.6 226.42,251.91 
			216,255.31 		"/>
	</g>
</g>
<g id="grid" class="st6">
	<g id="Grid_00000043456823262682711200000000773504779048806301_" class="st7">
		<rect class="st8" width="378" height="378"/>
		<line class="st8" x1="0" y1="369" x2="378" y2="369"/>
		<line class="st8" x1="0" y1="360" x2="378" y2="360"/>
		<line class="st8" x1="0" y1="351" x2="378" y2="351"/>
		<line class="st8" x1="0" y1="342" x2="378" y2="342"/>
		<line class="st8" x1="0" y1="333" x2="378" y2="333"/>
		<line class="st8" x1="0" y1="324" x2="378" y2="324"/>
		<line class="st8" x1="0" y1="315" x2="378" y2="315"/>
		<line class="st8" x1="0" y1="306" x2="378" y2="306"/>
		<line class="st8" x1="0" y1="297" x2="378" y2="297"/>
		<line class="st8" x1="0" y1="288" x2="378" y2="288"/>
		<line class="st8" x1="0" y1="279" x2="378" y2="279"/>
		<line class="st8" x1="0" y1="270" x2="378" y2="270"/>
		<line class="st8" x1="0" y1="261" x2="378" y2="261"/>
		<line class="st8" x1="0" y1="252" x2="378" y2="252"/>
		<line class="st8" x1="0" y1="243" x2="378" y2="243"/>
		<line class="st8" x1="0" y1="234" x2="378" y2="234"/>
		<line class="st8" x1="0" y1="225" x2="378" y2="225"/>
		<line class="st8" x1="0" y1="216" x2="378" y2="216"/>
		<line class="st8" x1="0" y1="207" x2="378" y2="207"/>
		<line class="st8" x1="0" y1="198" x2="378" y2="198"/>
		<line class="st8" x1="0" y1="189" x2="378" y2="189"/>
		<line class="st8" x1="0" y1="180" x2="378" y2="180"/>
		<line class="st8" x1="0" y1="171" x2="378" y2="171"/>
		<line class="st8" x1="0" y1="162" x2="378" y2="162"/>
		<line class="st8" x1="0" y1="153" x2="378" y2="153"/>
		<line class="st8" x1="0" y1="144" x2="378" y2="144"/>
		<line class="st8" x1="0" y1="135" x2="378" y2="135"/>
		<line class="st8" x1="0" y1="126" x2="378" y2="126"/>
		<line class="st8" x1="0" y1="117" x2="378" y2="117"/>
		<line class="st8" x1="0" y1="108" x2="378" y2="108"/>
		<line class="st8" x1="0" y1="99" x2="378" y2="99"/>
		<line class="st8" x1="0" y1="90" x2="378" y2="90"/>
		<line class="st8" x1="0" y1="81" x2="378" y2="81"/>
		<line class="st8" x1="0" y1="72" x2="378" y2="72"/>
		<line class="st8" x1="0" y1="63" x2="378" y2="63"/>
		<line class="st8" x1="0" y1="54" x2="378" y2="54"/>
		<line class="st8" x1="0" y1="45" x2="378" y2="45"/>
		<line class="st8" x1="0" y1="36" x2="378" y2="36"/>
		<line class="st8" x1="0" y1="27" x2="378" y2="27"/>
		<line class="st8" x1="0" y1="18" x2="378" y2="18"/>
		<line class="st8" x1="0" y1="9" x2="378" y2="9"/>
		<line class="st8" x1="369" y1="0" x2="369" y2="378"/>
		<line class="st8" x1="360" y1="0" x2="360" y2="378"/>
		<line class="st8" x1="351" y1="0" x2="351" y2="378"/>
		<line class="st8" x1="342" y1="0" x2="342" y2="378"/>
		<line class="st8" x1="333" y1="0" x2="333" y2="378"/>
		<line class="st8" x1="324" y1="0" x2="324" y2="378"/>
		<line class="st8" x1="315" y1="0" x2="315" y2="378"/>
		<line class="st8" x1="306" y1="0" x2="306" y2="378"/>
		<line class="st8" x1="297" y1="0" x2="297" y2="378"/>
		<line class="st8" x1="288" y1="0" x2="288" y2="378"/>
		<line class="st8" x1="279" y1="0" x2="279" y2="378"/>
		<line class="st8" x1="270" y1="0" x2="270" y2="378"/>
		<line class="st8" x1="261" y1="0" x2="261" y2="378"/>
		<line class="st8" x1="252" y1="0" x2="252" y2="378"/>
		<line class="st8" x1="243" y1="0" x2="243" y2="378"/>
		<line class="st8" x1="234" y1="0" x2="234" y2="378"/>
		<line class="st8" x1="225" y1="0" x2="225" y2="378"/>
		<line class="st8" x1="216" y1="0" x2="216" y2="378"/>
		<line class="st8" x1="207" y1="0" x2="207" y2="378"/>
		<line class="st8" x1="198" y1="0" x2="198" y2="378"/>
		<line class="st8" x1="189" y1="0" x2="189" y2="378"/>
		<line class="st8" x1="180" y1="0" x2="180" y2="378"/>
		<line class="st8" x1="171" y1="0" x2="171" y2="378"/>
		<line class="st8" x1="162" y1="0" x2="162" y2="378"/>
		<line class="st8" x1="153" y1="0" x2="153" y2="378"/>
		<line class="st8" x1="144" y1="0" x2="144" y2="378"/>
		<line class="st8" x1="135" y1="0" x2="135" y2="378"/>
		<line class="st8" x1="126" y1="0" x2="126" y2="378"/>
		<line class="st8" x1="117" y1="0" x2="117" y2="378"/>
		<line class="st8" x1="108" y1="0" x2="108" y2="378"/>
		<line class="st8" x1="99" y1="0" x2="99" y2="378"/>
		<line class="st8" x1="90" y1="0" x2="90" y2="378"/>
		<line class="st8" x1="81" y1="0" x2="81" y2="378"/>
		<line class="st8" x1="72" y1="0" x2="72" y2="378"/>
		<line class="st8" x1="63" y1="0" x2="63" y2="378"/>
		<line class="st8" x1="54" y1="0" x2="54" y2="378"/>
		<line class="st8" x1="45" y1="0" x2="45" y2="378"/>
		<line class="st8" x1="36" y1="0" x2="36" y2="378"/>
		<line class="st8" x1="27" y1="0" x2="27" y2="378"/>
		<line class="st8" x1="18" y1="0" x2="18" y2="378"/>
		<line class="st8" x1="9" y1="0" x2="9" y2="378"/>
	</g>
	<g id="Diagram_00000142167580138256863360000016861931541329795464_" class="st9">
		<g>
			<rect y="0" class="st10" width="378" height="378"/>
			<g>
				<line class="st10" x1="189" y1="0" x2="189" y2="378"/>
			</g>
			<g>
				<line class="st10" x1="378" y1="189" x2="0" y2="189"/>
			</g>
			<g>
				<line class="st10" x1="378" y1="0" x2="0" y2="378"/>
			</g>
			<g>
				<line class="st10" x1="378" y1="378" x2="0" y2="0"/>
			</g>
		</g>
		<rect x="9" y="9" class="st10" width="360" height="360"/>
		<circle class="st10" cx="189" cy="189" r="180"/>
		<circle class="st10" cx="189" cy="189" r="135"/>
	</g>
	<path id="Margin_00000021093299810534215200000010667111313960764044_" class="st11" d="M378,0H0v378h378l0,0l0,0V0z M9,369V9h360
		v360H9z"/>
</g>
</svg>
