<?xml version="1.0" encoding="utf-8"?>
<!-- Generator: Adobe Illustrator 27.1.1, SVG Export Plug-In . SVG Version: 6.00 Build 0)  -->
<svg version="1.1" xmlns="http://www.w3.org/2000/svg" xmlns:xlink="http://www.w3.org/1999/xlink" x="0px" y="0px"
	 viewBox="0 0 378 378" style="enable-background:new 0 0 378 378;" xml:space="preserve">
<style type="text/css">
	.st0{fill:#EDEDEE;}
	.st1{clip-path:url(#SVGID_00000022530107342451986570000009324196876204401063_);fill:#FFFFFF;}
	.st2{clip-path:url(#SVGID_00000022530107342451986570000009324196876204401063_);}
	.st3{fill:#0068B8;}
	.st4{fill:#0B2D71;}
	.st5{clip-path:url(#SVGID_00000022530107342451986570000009324196876204401063_);fill:#002E75;}
	.st6{fill:#002E75;}
	.st7{clip-path:url(#SVGID_00000022530107342451986570000009324196876204401063_);fill:#00A0DF;}
	.st8{clip-path:url(#SVGID_00000022530107342451986570000009324196876204401063_);fill:#0068B8;}
	.st9{fill:none;stroke:#002E75;stroke-width:9;stroke-miterlimit:10;}
	.st10{display:none;}
	.st11{display:inline;opacity:0.14;}
	.st12{fill:none;stroke:#B9529F;stroke-width:0.35;stroke-miterlimit:10;}
	.st13{display:inline;}
	.st14{fill:none;stroke:#9F9E9E;stroke-width:0.35;stroke-miterlimit:10;}
	.st15{display:inline;fill:#81D3F2;}
</style>
<g id="Spotlight">
	<circle id="Circle" class="st0" cx="189" cy="189" r="180"/>
</g>
<g id="Icon_Art">
	<g>
		<defs>
			<circle id="SVGID_1_" cx="189" cy="189" r="179.7"/>
		</defs>
		<clipPath id="SVGID_00000180329457068869382650000001617459508626746779_">
			<use xlink:href="#SVGID_1_"  style="overflow:visible;"/>
		</clipPath>
		<path style="clip-path:url(#SVGID_00000180329457068869382650000001617459508626746779_);fill:#FFFFFF;" d="M267.9,255.6
			c0,0,0.1-50-22-58.6c-13.2-5.1-20-9.2-23.1-11.4c-4.2-4.6-15.3-16.9-16-17.8c-0.4-0.6-2.8-5.7-4.9-10.4
			c13.7-6.4,23.5-22.5,23.5-41.5c0-24.5-16.3-44.4-36.4-44.4s-36.4,19.9-36.4,44.4c0,16.6,7.5,31.1,18.6,38.7
			c-1.1,7.7-3.3,19.9-3.3,20.5c0,0.7-8.7,7.8-12.3,11.6c-4.1,2.2-11.4,5.8-23,10.2c-7.3,2.8-15.9,13.9-19.6,29.6
			c-1.7,7.3-3.6,51.7-4.7,86.1c24.3,12.2,50.1,16.9,80.7,16.9c29,0,56.5-4.7,80.7-16.9L267.9,255.6z"/>
		<g style="clip-path:url(#SVGID_00000180329457068869382650000001617459508626746779_);">
			<path class="st3" d="M233.3,321c-13.9,3.4-28.2,5.2-42.6,5.3c-15,0.1-30-1.7-44.5-5.2v18.6c-1.9-0.5-3.7-0.9-5.6-1.5l0,0
				c5.8,1.6,11.8,3,17.8,4c10.3,1.6,20.7,2.4,31.2,2.4c0.4,0,0.9,0,1.3,0c6,0,12-0.4,18-0.9c10.6-1.2,20.9-3.2,30.8-6.2l0,0
				c-2.1,0.6-4.3,1.2-6.4,1.8V321z"/>
			<path class="st4" d="M146.2,321v-29.2c0-2.5-2-4.5-4.5-4.5c-2.5,0-4.5,2-4.5,4.5v45.4c1.1,0.3,2.3,0.7,3.4,1
				c1.8,0.5,3.7,1,5.6,1.5V321z"/>
			<path class="st4" d="M242.3,291.9c0-2.5-2-4.5-4.5-4.5c-2.5,0-4.5,2-4.5,4.5V321v18.4c2.2-0.5,4.3-1.1,6.4-1.8
				c0.8-0.2,1.7-0.5,2.5-0.8V291.9z"/>
		</g>
		<path style="clip-path:url(#SVGID_00000180329457068869382650000001617459508626746779_);fill:#002E75;" d="M189,167.8
			c-23.1,0-42-23.7-42-52.7s18.8-52.7,42-52.7S231,86,231,115S212.1,167.8,189,167.8z M189,71.3c-18.2,0-33,19.6-33,43.7
			s14.8,43.7,33,43.7c18.2,0,33-19.6,33-43.7S207.2,71.3,189,71.3z"/>
		<g style="clip-path:url(#SVGID_00000180329457068869382650000001617459508626746779_);">
			<path class="st6" d="M173.1,104.3c-5.9,0-12.5-0.4-19.8-1.3c-1.4-0.2-2.6-1-3.3-2.2s-0.8-2.7-0.3-4l1.4-3.6
				c2.4-5.9,5.7-11.2,10-15.9l2.5-2.7c3.9-4.3,9-7.6,14.5-9.4l0.7-0.2c5.3-1.8,11-2,16.4-0.8l1,0.2c4.2,1,8.1,2.7,11.6,5.2
				c1.8,1.2,3.4,2.6,5,4.2l8.7,8.6c1.8,1.7,1.8,4.6,0.1,6.3C215.6,95,201.7,104.3,173.1,104.3z"/>
		</g>
		<g style="clip-path:url(#SVGID_00000180329457068869382650000001617459508626746779_);">
			<path class="st6" d="M273.8,256.5c0.1-33.2-7.1-53.9-22.1-63.3c-4-2.5-8.3-4-12.8-5.7c-7.7-2.7-15.6-5.6-22.7-13.5
				c-3.6-4-6.4-8.7-8.4-14l-8.4,3.2c2.4,6.3,5.8,12,10.1,16.8c0.8,0.9,1.7,1.8,2.5,2.7l-11.9,10.7l6,6.7l13-11.6
				c5.7,3.7,11.4,5.8,16.7,7.7c4.1,1.5,7.9,2.8,11.1,4.8c12,7.5,18,26.2,17.8,55.7l0.4,57.4l9-0.1L273.8,256.5z"/>
			<path class="st6" d="M178,162.3l-8.6-2.7c-1.7,5.5-4.3,10.4-7.7,14.5c-6.6,7.9-14.5,10.7-22.1,13.5c-4.3,1.5-8.7,3.1-12.6,5.6
				c-15.2,9.4-22.6,30.1-22.8,63.4l-0.4,57.3l9,0.1l0.4-57.4c0.2-29.5,6.4-48.2,18.5-55.8c3.1-1.9,6.9-3.3,10.9-4.7
				c5.1-1.8,10.7-3.9,16.1-7.4l13,11.3l5.9-6.8l-11.9-10.3c0.9-0.9,1.8-1.9,2.7-3C172.8,174.9,175.9,169,178,162.3z"/>
		</g>
		<g style="clip-path:url(#SVGID_00000180329457068869382650000001617459508626746779_);">
			<path class="st3" d="M233.3,329c-13.9,3.4-28.2,5.2-42.6,5.3c-15,0.1-30-1.7-44.5-5.2v18.6c-1.9-0.5-3.7-0.9-5.6-1.5l0,0
				c5.8,1.6,11.8,3,17.8,4c10.3,1.6,20.7,2.4,31.2,2.4c0.4,0,0.9,0,1.3,0c6,0,12-0.4,18-0.9c10.6-1.2,20.9-3.2,30.8-6.2l0,0
				c-2.1,0.6-4.3,1.2-6.4,1.8V329z"/>
			<path class="st4" d="M146.2,329.1V300c0-2.5-2-4.5-4.5-4.5c-2.5,0-4.5,2-4.5,4.5v45.4c1.1,0.3,2.3,0.7,3.4,1
				c1.8,0.5,3.7,1,5.6,1.5V329.1z"/>
			<path class="st4" d="M242.3,300c0-2.5-2-4.5-4.5-4.5c-2.5,0-4.5,2-4.5,4.5V329v18.4c2.2-0.5,4.3-1.1,6.4-1.8
				c0.8-0.2,1.7-0.5,2.5-0.8V300z"/>
		</g>
		
			<rect x="76.5" y="279" style="clip-path:url(#SVGID_00000180329457068869382650000001617459508626746779_);fill:#002E75;" width="225" height="99"/>
		<g style="clip-path:url(#SVGID_00000180329457068869382650000001617459508626746779_);">
			<path class="st4" d="M241.5,279v-9.5c0-2.5-2-4.5-4.5-4.5c-2.5,0-4.5,2-4.5,4.5v9.5H241.5z"/>
		</g>
		<path style="clip-path:url(#SVGID_00000180329457068869382650000001617459508626746779_);fill:#00A0DF;" d="M181.7,279.2
			c-0.1,0-105.2-0.2-105.2-0.2l0,73.1L181.7,279.2z"/>
		
			<rect x="76.5" y="279" style="clip-path:url(#SVGID_00000180329457068869382650000001617459508626746779_);fill:#0068B8;" width="225" height="9"/>
	</g>
	<path class="st9" d="M130.4,279.1c0.1-13.3,0.9-28.1,8.6-38.2c7.7-10.1,15.1-13.3,26.5-13.1"/>
	<path class="st9" d="M180.3,234h-8.2c-3.5,0-6.3-2.8-6.3-6.3v0c0-3.5,2.8-6.3,6.3-6.3h8.2c3.5,0,6.3,2.8,6.3,6.3v0
		C186.6,231.2,183.8,234,180.3,234z"/>
	<line class="st9" x1="116.7" y1="274.5" x2="144" y2="274.5"/>
</g>
<g id="Artboard_Grid" class="st10">
	<g id="Grid_00000143595822045361663770000009822217746682588561_" class="st11">
		<rect y="0" class="st12" width="378" height="378"/>
		<line class="st12" x1="0" y1="369" x2="378" y2="369"/>
		<line class="st12" x1="0" y1="360" x2="378" y2="360"/>
		<line class="st12" x1="0" y1="351" x2="378" y2="351"/>
		<line class="st12" x1="0" y1="342" x2="378" y2="342"/>
		<line class="st12" x1="0" y1="333" x2="378" y2="333"/>
		<line class="st12" x1="0" y1="324" x2="378" y2="324"/>
		<line class="st12" x1="0" y1="315" x2="378" y2="315"/>
		<line class="st12" x1="0" y1="306" x2="378" y2="306"/>
		<line class="st12" x1="0" y1="297" x2="378" y2="297"/>
		<line class="st12" x1="0" y1="288" x2="378" y2="288"/>
		<line class="st12" x1="0" y1="279" x2="378" y2="279"/>
		<line class="st12" x1="0" y1="270" x2="378" y2="270"/>
		<line class="st12" x1="0" y1="261" x2="378" y2="261"/>
		<line class="st12" x1="0" y1="252" x2="378" y2="252"/>
		<line class="st12" x1="0" y1="243" x2="378" y2="243"/>
		<line class="st12" x1="0" y1="234" x2="378" y2="234"/>
		<line class="st12" x1="0" y1="225" x2="378" y2="225"/>
		<line class="st12" x1="0" y1="216" x2="378" y2="216"/>
		<line class="st12" x1="0" y1="207" x2="378" y2="207"/>
		<line class="st12" x1="0" y1="198" x2="378" y2="198"/>
		<line class="st12" x1="0" y1="189" x2="378" y2="189"/>
		<line class="st12" x1="0" y1="180" x2="378" y2="180"/>
		<line class="st12" x1="0" y1="171" x2="378" y2="171"/>
		<line class="st12" x1="0" y1="162" x2="378" y2="162"/>
		<line class="st12" x1="0" y1="153" x2="378" y2="153"/>
		<line class="st12" x1="0" y1="144" x2="378" y2="144"/>
		<line class="st12" x1="0" y1="135" x2="378" y2="135"/>
		<line class="st12" x1="0" y1="126" x2="378" y2="126"/>
		<line class="st12" x1="0" y1="117" x2="378" y2="117"/>
		<line class="st12" x1="0" y1="108" x2="378" y2="108"/>
		<line class="st12" x1="0" y1="99" x2="378" y2="99"/>
		<line class="st12" x1="0" y1="90" x2="378" y2="90"/>
		<line class="st12" x1="0" y1="81" x2="378" y2="81"/>
		<line class="st12" x1="0" y1="72" x2="378" y2="72"/>
		<line class="st12" x1="0" y1="63" x2="378" y2="63"/>
		<line class="st12" x1="0" y1="54" x2="378" y2="54"/>
		<line class="st12" x1="0" y1="45" x2="378" y2="45"/>
		<line class="st12" x1="0" y1="36" x2="378" y2="36"/>
		<line class="st12" x1="0" y1="27" x2="378" y2="27"/>
		<line class="st12" x1="0" y1="18" x2="378" y2="18"/>
		<line class="st12" x1="0" y1="9" x2="378" y2="9"/>
		<line class="st12" x1="369" y1="0" x2="369" y2="378"/>
		<line class="st12" x1="360" y1="0" x2="360" y2="378"/>
		<line class="st12" x1="351" y1="0" x2="351" y2="378"/>
		<line class="st12" x1="342" y1="0" x2="342" y2="378"/>
		<line class="st12" x1="333" y1="0" x2="333" y2="378"/>
		<line class="st12" x1="324" y1="0" x2="324" y2="378"/>
		<line class="st12" x1="315" y1="0" x2="315" y2="378"/>
		<line class="st12" x1="306" y1="0" x2="306" y2="378"/>
		<line class="st12" x1="297" y1="0" x2="297" y2="378"/>
		<line class="st12" x1="288" y1="0" x2="288" y2="378"/>
		<line class="st12" x1="279" y1="0" x2="279" y2="378"/>
		<line class="st12" x1="270" y1="0" x2="270" y2="378"/>
		<line class="st12" x1="261" y1="0" x2="261" y2="378"/>
		<line class="st12" x1="252" y1="0" x2="252" y2="378"/>
		<line class="st12" x1="243" y1="0" x2="243" y2="378"/>
		<line class="st12" x1="234" y1="0" x2="234" y2="378"/>
		<line class="st12" x1="225" y1="0" x2="225" y2="378"/>
		<line class="st12" x1="216" y1="0" x2="216" y2="378"/>
		<line class="st12" x1="207" y1="0" x2="207" y2="378"/>
		<line class="st12" x1="198" y1="0" x2="198" y2="378"/>
		<line class="st12" x1="189" y1="0" x2="189" y2="378"/>
		<line class="st12" x1="180" y1="0" x2="180" y2="378"/>
		<line class="st12" x1="171" y1="0" x2="171" y2="378"/>
		<line class="st12" x1="162" y1="0" x2="162" y2="378"/>
		<line class="st12" x1="153" y1="0" x2="153" y2="378"/>
		<line class="st12" x1="144" y1="0" x2="144" y2="378"/>
		<line class="st12" x1="135" y1="0" x2="135" y2="378"/>
		<line class="st12" x1="126" y1="0" x2="126" y2="378"/>
		<line class="st12" x1="117" y1="0" x2="117" y2="378"/>
		<line class="st12" x1="108" y1="0" x2="108" y2="378"/>
		<line class="st12" x1="99" y1="0" x2="99" y2="378"/>
		<line class="st12" x1="90" y1="0" x2="90" y2="378"/>
		<line class="st12" x1="81" y1="0" x2="81" y2="378"/>
		<line class="st12" x1="72" y1="0" x2="72" y2="378"/>
		<line class="st12" x1="63" y1="0" x2="63" y2="378"/>
		<line class="st12" x1="54" y1="0" x2="54" y2="378"/>
		<line class="st12" x1="45" y1="0" x2="45" y2="378"/>
		<line class="st12" x1="36" y1="0" x2="36" y2="378"/>
		<line class="st12" x1="27" y1="0" x2="27" y2="378"/>
		<line class="st12" x1="18" y1="0" x2="18" y2="378"/>
		<line class="st12" x1="9" y1="0" x2="9" y2="378"/>
	</g>
</g>
<g id="Spotlight_Grid_Lines" class="st10">
	<g id="Diagram_00000127027580324130167460000009902644355467492008_" class="st13">
		<g>
			<rect y="0" class="st14" width="378" height="378"/>
			<g>
				<line class="st14" x1="189" y1="0" x2="189" y2="378"/>
			</g>
			<g>
				<line class="st14" x1="378" y1="189" x2="0" y2="189"/>
			</g>
			<g>
				<line class="st14" x1="378" y1="0" x2="0" y2="378"/>
			</g>
			<g>
				<line class="st14" x1="378" y1="378" x2="0" y2="0"/>
			</g>
		</g>
		<rect x="9" y="9" class="st14" width="360" height="360"/>
		<circle class="st14" cx="189" cy="189" r="180"/>
		<circle class="st14" cx="189" cy="189" r="135"/>
	</g>
	<path id="Margin_00000009549688356649475420000016751980586218385060_" class="st15" d="M378,0H0v378h378l0,0l0,0V0z M9,369V9h360
		v360H9z"/>
</g>
</svg>
