<?xml version="1.0" encoding="utf-8"?>
<!-- Generator: Adobe Illustrator 27.0.1, SVG Export Plug-In . SVG Version: 6.00 Build 0)  -->
<svg version="1.1" id="Layer_1" xmlns="http://www.w3.org/2000/svg" xmlns:xlink="http://www.w3.org/1999/xlink" x="0px" y="0px"
	 viewBox="0 0 378 378" style="enable-background:new 0 0 378 378;" xml:space="preserve">
<style type="text/css">
	.st0{fill:#EDEDEE;}
	.st1{fill:none;}
	.st2{fill:#233670;}
	.st3{fill:#FFFFFF;}
	.st4{fill:#00A0DE;}
	.st5{display:none;}
	.st6{display:inline;}
	.st7{opacity:0.14;}
	.st8{fill:none;stroke:#B9529F;stroke-width:0.35;stroke-miterlimit:10;}
	.st9{fill:none;stroke:#9F9E9E;stroke-width:0.35;stroke-miterlimit:10;}
	.st10{fill:#81D3F2;}
</style>
<g id="Background">
	<g id="Circle_00000156570300777174252350000007178186824679620228_">
		<circle class="st0" cx="189" cy="189" r="180"/>
	</g>
</g>
<g>
	<rect x="170.9" y="269.7" class="st1" width="35.4" height="27.5"/>
	<path class="st2" d="M215.3,297.2v-27.5h75.2c12,0,22.1-8.7,24.1-20.2c0.2-0.6,0.4-1.2,0.4-1.8c0-0.2,0-0.5-0.1-0.7
		c0-0.6,0.1-1.2,0.1-1.8V123.8c0-13.5-11-24.5-24.5-24.5H88c-13.5,0-24.5,11-24.5,24.5v121.4c0,13.5,11,24.5,24.5,24.5h73.9v27.5
		H45.1c2.3,3.1,4.7,6.1,7.2,9h273.2c2.5-2.9,4.9-5.9,7.2-9H215.3z M88,108.3h32.8h169.7c8.5,0,15.5,7,15.5,15.5v119.4H72.5V139.6
		v-15.8C72.5,115.3,79.5,108.3,88,108.3z M304.3,252.2c-2.6,5-7.8,8.5-13.8,8.5H88c-6,0-11.2-3.5-13.8-8.5H304.3z M170.9,269.7h35.4
		v27.5h-35.4V269.7z"/>
	<path class="st2" d="M306,324.2h-9h-18h-9H108h-9H81h-9h-1.8c3.6,3.1,7.3,6.1,11.1,9H99v11.7c2.9,1.7,5.9,3.3,9,4.9v-16.6h162v16.6
		c3.1-1.5,6.1-3.2,9-4.9v-11.7h17.7c3.8-2.9,7.5-5.9,11.1-9H306z"/>
	<path class="st3" d="M88,260.7h202.5c6,0,11.2-3.5,13.8-8.5H74.2C76.8,257.2,82,260.7,88,260.7z"/>
	<path class="st3" d="M268,213.3v7.8c2.6-0.4,4-1.6,4-3.6v-0.1C272,215.6,271,214.5,268,213.3z"/>
	<path class="st3" d="M258.9,199.5v0.1c0,1.8,0.8,2.9,3.9,4V196C260,196.4,258.9,197.7,258.9,199.5z"/>
	<path class="st3" d="M112.2,216.3c-2.5,0-4.5-2-4.5-4.5v-12.6c-5.2,1.9-8.9,6.8-8.9,12.6c0,7.4,6,13.4,13.4,13.4
		c5.8,0,10.8-3.7,12.6-8.9H112.2z"/>
	<path class="st3" d="M72.5,243.2H306V123.8c0-8.5-7-15.5-15.5-15.5H120.8c-12.6,8.2-31.6,20.5-48.3,31.3V243.2z M112.2,234.2
		c-12.4,0-22.4-10-22.4-22.4s10-22.4,22.4-22.4s22.4,10,22.4,22.4S124.6,234.2,112.2,234.2z M171,234.2h-9v-18h9V234.2z M189,234.2
		h-9v-27h9V234.2z M207,234.2h-9v-36h9V234.2z M280.2,217.1c0,6.3-4.8,10.3-11.9,11v5.5h-5.8v-5.7c-4.8-0.6-9.5-2.5-13.2-5.3
		l4.4-6.4c3,2.3,5.8,3.9,9.1,4.5V212c-8.1-2.2-12-5.2-12-11.9V200c0-6.2,4.7-10.3,11.8-11v-3.2h5.8v3.4c4,0.5,7.3,2,10.4,4.1
		l-3.8,6.6c-2.2-1.5-4.7-2.7-6.9-3.3v8.5c8.5,2.3,12.2,5.7,12.2,12V217.1z M265,126.3l0.1,0.1l0.1-0.1l19.2,19.2l-6.4,6.4l-8.1-8.1
		v27.6h-9V143l-8.7,8.7l-6.4-6.4L265,126.3z M225,234.2h-9v-45h9V234.2z M90,135.2h117.2v9H90V135.2z M90,153.2h127.3v9H90V153.2z
		 M90,171.2h108v9H90V171.2z"/>
	<path class="st3" d="M116.7,207.3h8.1c-1.4-3.8-4.3-6.8-8.1-8.1V207.3z"/>
	<path class="st4" d="M72.5,139.6c16.7-10.8,35.7-23.1,48.3-31.3H88c-8.5,0-15.5,7-15.5,15.5V139.6z"/>
	<polygon class="st2" points="261,143 261,171.3 270,171.3 270,143.7 278,151.8 284.4,145.4 265.2,126.2 265.1,126.4 265,126.3 
		245.9,145.3 252.3,151.6 	"/>
	<path class="st2" d="M268,205v-8.5c2.3,0.6,4.7,1.8,6.9,3.3l3.8-6.6c-3.1-2.1-6.4-3.6-10.4-4.1v-3.4h-5.8v3.2
		c-7.1,0.7-11.8,4.8-11.8,11v0.1c0,6.7,4,9.7,12,11.9v8.9c-3.3-0.7-6.1-2.2-9.1-4.5l-4.4,6.4c3.7,2.8,8.4,4.7,13.2,5.3v5.7h5.8v-5.5
		c7.1-0.7,11.9-4.8,11.9-11V217C280.2,210.8,276.5,207.3,268,205z M262.8,203.6c-3.1-1.1-3.9-2.2-3.9-4v-0.1c0-1.8,1.1-3.1,3.9-3.5
		V203.6z M272,217.6c0,2-1.3,3.2-4,3.6v-7.8c3,1.1,4,2.3,4,4.1V217.6z"/>
	<rect x="90" y="153.2" class="st2" width="127.3" height="9"/>
	<rect x="90" y="135.2" class="st2" width="117.2" height="9"/>
	<rect x="90" y="171.2" class="st2" width="108" height="9"/>
	<path class="st2" d="M112.2,189.4c-12.4,0-22.4,10-22.4,22.4s10,22.4,22.4,22.4s22.4-10,22.4-22.4S124.6,189.4,112.2,189.4z
		 M124.8,207.3h-8.1v-8.1C120.5,200.5,123.5,203.5,124.8,207.3z M112.2,225.2c-7.4,0-13.4-6-13.4-13.4c0-5.8,3.7-10.8,8.9-12.6v12.6
		c0,2.5,2,4.5,4.5,4.5h12.6C123,221.5,118,225.2,112.2,225.2z"/>
	<rect x="180" y="207.2" class="st2" width="9" height="27"/>
	<rect x="162" y="216.2" class="st2" width="9" height="18"/>
	<rect x="198" y="198.2" class="st2" width="9" height="36"/>
	<rect x="216" y="189.2" class="st2" width="9" height="45"/>
</g>
<g id="Template_00000137826499921186087030000005737136165589515152_" class="st5">
	<g id="Margin" class="st6">
		<g id="Grid_00000025405613908455753680000013595087154757878659_" class="st7">
			<rect class="st8" width="378" height="378"/>
			<line class="st8" x1="0" y1="369" x2="378" y2="369"/>
			<line class="st8" x1="0" y1="360" x2="378" y2="360"/>
			<line class="st8" x1="0" y1="351" x2="378" y2="351"/>
			<line class="st8" x1="0" y1="342" x2="378" y2="342"/>
			<line class="st8" x1="0" y1="333" x2="378" y2="333"/>
			<line class="st8" x1="0" y1="324" x2="378" y2="324"/>
			<line class="st8" x1="0" y1="315" x2="378" y2="315"/>
			<line class="st8" x1="0" y1="306" x2="378" y2="306"/>
			<line class="st8" x1="0" y1="297" x2="378" y2="297"/>
			<line class="st8" x1="0" y1="288" x2="378" y2="288"/>
			<line class="st8" x1="0" y1="279" x2="378" y2="279"/>
			<line class="st8" x1="0" y1="270" x2="378" y2="270"/>
			<line class="st8" x1="0" y1="261" x2="378" y2="261"/>
			<line class="st8" x1="0" y1="252" x2="378" y2="252"/>
			<line class="st8" x1="0" y1="243" x2="378" y2="243"/>
			<line class="st8" x1="0" y1="234" x2="378" y2="234"/>
			<line class="st8" x1="0" y1="225" x2="378" y2="225"/>
			<line class="st8" x1="0" y1="216" x2="378" y2="216"/>
			<line class="st8" x1="0" y1="207" x2="378" y2="207"/>
			<line class="st8" x1="0" y1="198" x2="378" y2="198"/>
			<line class="st8" x1="0" y1="189" x2="378" y2="189"/>
			<line class="st8" x1="0" y1="180" x2="378" y2="180"/>
			<line class="st8" x1="0" y1="171" x2="378" y2="171"/>
			<line class="st8" x1="0" y1="162" x2="378" y2="162"/>
			<line class="st8" x1="0" y1="153" x2="378" y2="153"/>
			<line class="st8" x1="0" y1="144" x2="378" y2="144"/>
			<line class="st8" x1="0" y1="135" x2="378" y2="135"/>
			<line class="st8" x1="0" y1="126" x2="378" y2="126"/>
			<line class="st8" x1="0" y1="117" x2="378" y2="117"/>
			<line class="st8" x1="0" y1="108" x2="378" y2="108"/>
			<line class="st8" x1="0" y1="99" x2="378" y2="99"/>
			<line class="st8" x1="0" y1="90" x2="378" y2="90"/>
			<line class="st8" x1="0" y1="81" x2="378" y2="81"/>
			<line class="st8" x1="0" y1="72" x2="378" y2="72"/>
			<line class="st8" x1="0" y1="63" x2="378" y2="63"/>
			<line class="st8" x1="0" y1="54" x2="378" y2="54"/>
			<line class="st8" x1="0" y1="45" x2="378" y2="45"/>
			<line class="st8" x1="0" y1="36" x2="378" y2="36"/>
			<line class="st8" x1="0" y1="27" x2="378" y2="27"/>
			<line class="st8" x1="0" y1="18" x2="378" y2="18"/>
			<line class="st8" x1="0" y1="9" x2="378" y2="9"/>
			<line class="st8" x1="369" y1="0" x2="369" y2="378"/>
			<line class="st8" x1="360" y1="0" x2="360" y2="378"/>
			<line class="st8" x1="351" y1="0" x2="351" y2="378"/>
			<line class="st8" x1="342" y1="0" x2="342" y2="378"/>
			<line class="st8" x1="333" y1="0" x2="333" y2="378"/>
			<line class="st8" x1="324" y1="0" x2="324" y2="378"/>
			<line class="st8" x1="315" y1="0" x2="315" y2="378"/>
			<line class="st8" x1="306" y1="0" x2="306" y2="378"/>
			<line class="st8" x1="297" y1="0" x2="297" y2="378"/>
			<line class="st8" x1="288" y1="0" x2="288" y2="378"/>
			<line class="st8" x1="279" y1="0" x2="279" y2="378"/>
			<line class="st8" x1="270" y1="0" x2="270" y2="378"/>
			<line class="st8" x1="261" y1="0" x2="261" y2="378"/>
			<line class="st8" x1="252" y1="0" x2="252" y2="378"/>
			<line class="st8" x1="243" y1="0" x2="243" y2="378"/>
			<line class="st8" x1="234" y1="0" x2="234" y2="378"/>
			<line class="st8" x1="225" y1="0" x2="225" y2="378"/>
			<line class="st8" x1="216" y1="0" x2="216" y2="378"/>
			<line class="st8" x1="207" y1="0" x2="207" y2="378"/>
			<line class="st8" x1="198" y1="0" x2="198" y2="378"/>
			<line class="st8" x1="189" y1="0" x2="189" y2="378"/>
			<line class="st8" x1="180" y1="0" x2="180" y2="378"/>
			<line class="st8" x1="171" y1="0" x2="171" y2="378"/>
			<line class="st8" x1="162" y1="0" x2="162" y2="378"/>
			<line class="st8" x1="153" y1="0" x2="153" y2="378"/>
			<line class="st8" x1="144" y1="0" x2="144" y2="378"/>
			<line class="st8" x1="135" y1="0" x2="135" y2="378"/>
			<line class="st8" x1="126" y1="0" x2="126" y2="378"/>
			<line class="st8" x1="117" y1="0" x2="117" y2="378"/>
			<line class="st8" x1="108" y1="0" x2="108" y2="378"/>
			<line class="st8" x1="99" y1="0" x2="99" y2="378"/>
			<line class="st8" x1="90" y1="0" x2="90" y2="378"/>
			<line class="st8" x1="81" y1="0" x2="81" y2="378"/>
			<line class="st8" x1="72" y1="0" x2="72" y2="378"/>
			<line class="st8" x1="63" y1="0" x2="63" y2="378"/>
			<line class="st8" x1="54" y1="0" x2="54" y2="378"/>
			<line class="st8" x1="45" y1="0" x2="45" y2="378"/>
			<line class="st8" x1="36" y1="0" x2="36" y2="378"/>
			<line class="st8" x1="27" y1="0" x2="27" y2="378"/>
			<line class="st8" x1="18" y1="0" x2="18" y2="378"/>
			<line class="st8" x1="9" y1="0" x2="9" y2="378"/>
		</g>
		<g id="Diagram_00000116205305582871270980000000579715642606744713_">
			<g>
				<rect class="st9" width="378" height="378"/>
				<g>
					<line class="st9" x1="189" y1="0" x2="189" y2="378"/>
				</g>
				<g>
					<line class="st9" x1="378" y1="189" x2="0" y2="189"/>
				</g>
				<g>
					<line class="st9" x1="378" y1="0" x2="0" y2="378"/>
				</g>
				<g>
					<line class="st9" x1="378" y1="378" x2="0" y2="0"/>
				</g>
			</g>
			<rect x="9" y="9" class="st9" width="360" height="360"/>
			<circle class="st9" cx="189" cy="189" r="180"/>
			<circle class="st9" cx="189" cy="189" r="135"/>
		</g>
		<path id="Margin_00000076597246754779345710000001878603233358316456_" class="st10" d="M378,0H0v378h378l0,0l0,0V0z M9,369V9h360
			v360H9z"/>
	</g>
</g>
</svg>
