<?xml version="1.0" encoding="utf-8"?>
<!-- Generator: Adobe Illustrator 27.5.0, SVG Export Plug-In . SVG Version: 6.00 Build 0)  -->
<svg version="1.1" xmlns="http://www.w3.org/2000/svg" xmlns:xlink="http://www.w3.org/1999/xlink" x="0px" y="0px"
	 viewBox="0 0 378 378" style="enable-background:new 0 0 378 378;" xml:space="preserve">
<style type="text/css">
	.st0{fill:#EDEDEE;}
	.st1{fill:#FFFFFF;}
	.st2{fill:#0B2D71;stroke:#0B2D71;stroke-width:9;stroke-linecap:round;stroke-linejoin:round;stroke-miterlimit:10;}
	.st3{fill:#009DD9;}
	.st4{fill:#0B2D71;}
	.st5{display:none;}
	.st6{display:inline;opacity:0.14;}
	.st7{fill:none;stroke:#FE01FE;stroke-width:0.35;stroke-miterlimit:10;}
	.st8{display:inline;}
	.st9{fill:none;stroke:#9F9F9F;stroke-width:0.35;stroke-miterlimit:10;}
	.st10{display:inline;fill:#75DDFD;}
</style>
<g id="background">
	<circle id="Circle_00000040577034919365298740000002617163557974431654_" class="st0" cx="189" cy="189" r="180"/>
</g>
<g id="artwork">
	<path class="st1" d="M268.25,148.4h-20.54v-36.86c0-4.6-3.73-8.32-8.32-8.32H138.61c-4.6,0-8.32,3.73-8.32,8.32v36.86h-20.54
		c-8.36,0-15.14,6.78-15.14,15.14v86.33c0,8.36,6.78,15.14,15.14,15.14h158.51c8.36,0,15.14-6.78,15.14-15.14v-86.33
		C283.4,155.18,276.62,148.4,268.25,148.4z"/>
	<path class="st2" d="M117,150.7"/>
	<path class="st3" d="M134.73,111.14v32.92l57.92-37.44l-53.42,0.01C136.75,106.64,134.73,108.66,134.73,111.14z"/>
	<path class="st4" d="M203.33,174.47c-4.88,0-7.7-1.87-9.21-3.61c-2.05,1.87-5,3.61-8.91,3.61c-6.14,0-11.01-4.45-11.01-11.62
		c0-8.49,6.44-15.11,13.48-15.11c4.15,0,6.62,1.81,8.31,4.09l0.66-3.19l7.1,1.14l-2.83,16.19c-0.12,0.6-0.18,1.38-0.18,1.87
		c0,2.17,1.62,3.79,4.39,3.79c4.27,0,7.64-4.27,7.64-12.28c0-11.13-10.17-21.43-23.71-21.43c-13.6,0-23.84,10.77-23.84,23.96
		c0,13.24,10.11,23.84,24.32,23.84c5.96,0,10.23-1.38,14.75-4.03l1.2,1.93c-4.64,2.83-9.69,4.51-15.95,4.51
		c-15.41,0-26.85-11.86-26.85-26.24c0-14.39,11.62-26.36,26.36-26.36c14.75,0,26.24,11.5,26.24,23.84
		C215.3,169.41,209.95,174.47,203.33,174.47z M188.88,153.94c-3.91,0-7.22,3.67-7.22,8.49c0,3.73,2.35,5.84,5.66,5.84
		c3.79,0,7.16-3.73,7.16-8.67C194.48,156.17,192.13,153.94,188.88,153.94z M278.05,146.55c-0.13-0.13-0.24-0.27-0.38-0.38
		l-25.45-20.36v-14.26c0-7.07-5.75-12.82-12.82-12.82h-21.04l-17.87-14.29c-6.76-5.41-16.21-5.41-22.97,0l-17.87,14.29h-21.04
		c-7.07,0-12.82,5.75-12.82,12.82v14.26l-25.45,20.36c-0.14,0.11-0.26,0.25-0.38,0.38c-5.87,3.4-9.85,9.74-9.85,17v86.33
		c0,10.83,8.81,19.64,19.64,19.64h158.51c10.83,0,19.64-8.81,19.64-19.64v-86.33C287.9,156.29,283.93,149.95,278.05,146.55z
		 M142.47,189.49l-7.68-7.87v-70.08c0-2.11,1.71-3.82,3.82-3.82h100.79c2.11,0,3.82,1.71,3.82,3.82v70.19l-24.81,25.05h-58.8
		L142.47,189.49z M99.1,249.88v-86.33c0-1.48,0.31-2.9,0.86-4.18l36.09,36.44l14.64,15l-51.2,41.87
		C99.24,251.78,99.1,250.85,99.1,249.88z M268.25,260.52H109.75c-1.59,0-3.09-0.36-4.45-0.99l53.5-43.75h60.39l53.5,43.75
		C271.35,260.17,269.84,260.52,268.25,260.52z M278.9,249.88c0,0.97-0.14,1.9-0.38,2.79l-51.2-41.86l23.6-24.06l27.12-27.38
		c0.55,1.28,0.86,2.7,0.86,4.18V249.88z"/>
</g>
<g id="template" class="st5">
	<g id="Grid_00000039812007777484769360000002320821485416423834_" class="st6">
		<rect x="0" class="st7" width="378" height="378"/>
		<line class="st7" x1="0" y1="369" x2="378" y2="369"/>
		<line class="st7" x1="0" y1="360" x2="378" y2="360"/>
		<line class="st7" x1="0" y1="351" x2="378" y2="351"/>
		<line class="st7" x1="0" y1="342" x2="378" y2="342"/>
		<line class="st7" x1="0" y1="333" x2="378" y2="333"/>
		<line class="st7" x1="0" y1="324" x2="378" y2="324"/>
		<line class="st7" x1="0" y1="315" x2="378" y2="315"/>
		<line class="st7" x1="0" y1="306" x2="378" y2="306"/>
		<line class="st7" x1="0" y1="297" x2="378" y2="297"/>
		<line class="st7" x1="0" y1="288" x2="378" y2="288"/>
		<line class="st7" x1="0" y1="279" x2="378" y2="279"/>
		<line class="st7" x1="0" y1="270" x2="378" y2="270"/>
		<line class="st7" x1="0" y1="261" x2="378" y2="261"/>
		<line class="st7" x1="0" y1="252" x2="378" y2="252"/>
		<line class="st7" x1="0" y1="243" x2="378" y2="243"/>
		<line class="st7" x1="0" y1="234" x2="378" y2="234"/>
		<line class="st7" x1="0" y1="225" x2="378" y2="225"/>
		<line class="st7" x1="0" y1="216" x2="378" y2="216"/>
		<line class="st7" x1="0" y1="207" x2="378" y2="207"/>
		<line class="st7" x1="0" y1="198" x2="378" y2="198"/>
		<line class="st7" x1="0" y1="189" x2="378" y2="189"/>
		<line class="st7" x1="0" y1="180" x2="378" y2="180"/>
		<line class="st7" x1="0" y1="171" x2="378" y2="171"/>
		<line class="st7" x1="0" y1="162" x2="378" y2="162"/>
		<line class="st7" x1="0" y1="153" x2="378" y2="153"/>
		<line class="st7" x1="0" y1="144" x2="378" y2="144"/>
		<line class="st7" x1="0" y1="135" x2="378" y2="135"/>
		<line class="st7" x1="0" y1="126" x2="378" y2="126"/>
		<line class="st7" x1="0" y1="117" x2="378" y2="117"/>
		<line class="st7" x1="0" y1="108" x2="378" y2="108"/>
		<line class="st7" x1="0" y1="99" x2="378" y2="99"/>
		<line class="st7" x1="0" y1="90" x2="378" y2="90"/>
		<line class="st7" x1="0" y1="81" x2="378" y2="81"/>
		<line class="st7" x1="0" y1="72" x2="378" y2="72"/>
		<line class="st7" x1="0" y1="63" x2="378" y2="63"/>
		<line class="st7" x1="0" y1="54" x2="378" y2="54"/>
		<line class="st7" x1="0" y1="45" x2="378" y2="45"/>
		<line class="st7" x1="0" y1="36" x2="378" y2="36"/>
		<line class="st7" x1="0" y1="27" x2="378" y2="27"/>
		<line class="st7" x1="0" y1="18" x2="378" y2="18"/>
		<line class="st7" x1="0" y1="9" x2="378" y2="9"/>
		<line class="st7" x1="369" y1="0" x2="369" y2="378"/>
		<line class="st7" x1="360" y1="0" x2="360" y2="378"/>
		<line class="st7" x1="351" y1="0" x2="351" y2="378"/>
		<line class="st7" x1="342" y1="0" x2="342" y2="378"/>
		<line class="st7" x1="333" y1="0" x2="333" y2="378"/>
		<line class="st7" x1="324" y1="0" x2="324" y2="378"/>
		<line class="st7" x1="315" y1="0" x2="315" y2="378"/>
		<line class="st7" x1="306" y1="0" x2="306" y2="378"/>
		<line class="st7" x1="297" y1="0" x2="297" y2="378"/>
		<line class="st7" x1="288" y1="0" x2="288" y2="378"/>
		<line class="st7" x1="279" y1="0" x2="279" y2="378"/>
		<line class="st7" x1="270" y1="0" x2="270" y2="378"/>
		<line class="st7" x1="261" y1="0" x2="261" y2="378"/>
		<line class="st7" x1="252" y1="0" x2="252" y2="378"/>
		<line class="st7" x1="243" y1="0" x2="243" y2="378"/>
		<line class="st7" x1="234" y1="0" x2="234" y2="378"/>
		<line class="st7" x1="225" y1="0" x2="225" y2="378"/>
		<line class="st7" x1="216" y1="0" x2="216" y2="378"/>
		<line class="st7" x1="207" y1="0" x2="207" y2="378"/>
		<line class="st7" x1="198" y1="0" x2="198" y2="378"/>
		<line class="st7" x1="189" y1="0" x2="189" y2="378"/>
		<line class="st7" x1="180" y1="0" x2="180" y2="378"/>
		<line class="st7" x1="171" y1="0" x2="171" y2="378"/>
		<line class="st7" x1="162" y1="0" x2="162" y2="378"/>
		<line class="st7" x1="153" y1="0" x2="153" y2="378"/>
		<line class="st7" x1="144" y1="0" x2="144" y2="378"/>
		<line class="st7" x1="135" y1="0" x2="135" y2="378"/>
		<line class="st7" x1="126" y1="0" x2="126" y2="378"/>
		<line class="st7" x1="117" y1="0" x2="117" y2="378"/>
		<line class="st7" x1="108" y1="0" x2="108" y2="378"/>
		<line class="st7" x1="99" y1="0" x2="99" y2="378"/>
		<line class="st7" x1="90" y1="0" x2="90" y2="378"/>
		<line class="st7" x1="81" y1="0" x2="81" y2="378"/>
		<line class="st7" x1="72" y1="0" x2="72" y2="378"/>
		<line class="st7" x1="63" y1="0" x2="63" y2="378"/>
		<line class="st7" x1="54" y1="0" x2="54" y2="378"/>
		<line class="st7" x1="45" y1="0" x2="45" y2="378"/>
		<line class="st7" x1="36" y1="0" x2="36" y2="378"/>
		<line class="st7" x1="27" y1="0" x2="27" y2="378"/>
		<line class="st7" x1="18" y1="0" x2="18" y2="378"/>
		<line class="st7" x1="9" y1="0" x2="9" y2="378"/>
	</g>
	<g id="Diagram_00000001645787793720783580000009649749765942222993_" class="st8">
		<g>
			<rect x="0" y="0" class="st9" width="378" height="378"/>
			<g>
				<line class="st9" x1="189" y1="0" x2="189" y2="378"/>
			</g>
			<g>
				<line class="st9" x1="378" y1="189" x2="0" y2="189"/>
			</g>
			<g>
				<line class="st9" x1="378" y1="0" x2="0" y2="378"/>
			</g>
			<g>
				<line class="st9" x1="378" y1="378" x2="0" y2="0"/>
			</g>
		</g>
		<rect x="9" y="9" class="st9" width="360" height="360"/>
		<circle class="st9" cx="189" cy="189" r="180"/>
		<circle class="st9" cx="189" cy="189" r="135"/>
	</g>
	<path id="Margin_00000125583577628416335340000013945286368568508814_" class="st10" d="M378,0H0v378h378l0,0l0,0V0z M9,369V9h360
		v360H9z"/>
</g>
</svg>
