<?xml version="1.0" encoding="utf-8"?>
<!-- Generator: Adobe Illustrator 27.5.0, SVG Export Plug-In . SVG Version: 6.00 Build 0)  -->
<svg version="1.1" xmlns="http://www.w3.org/2000/svg" xmlns:xlink="http://www.w3.org/1999/xlink" x="0px" y="0px"
	 viewBox="0 0 378 378" style="enable-background:new 0 0 378 378;" xml:space="preserve">
<style type="text/css">
	.st0{fill:#EDEDEE;}
	.st1{fill:#FFFFFF;}
	.st2{fill:#009DD9;}
	.st3{fill:#0B2D71;}
	.st4{display:none;}
	.st5{display:inline;opacity:0.14;}
	.st6{fill:none;stroke:#FE01FE;stroke-width:0.35;stroke-miterlimit:10;}
	.st7{display:inline;}
	.st8{fill:none;stroke:#9F9F9F;stroke-width:0.35;stroke-miterlimit:10;}
	.st9{display:inline;fill:#75DDFD;}
</style>
<g id="Spotlight">
	<circle id="Circle_00000180331757452716537960000004223256057100810683_" class="st0" cx="189" cy="189" r="180"/>
</g>
<g id="Icon_Art">
	<path class="st1" d="M284,265.2H131.2v-189h124.6c11,11,17.2,17.2,28.2,28.2V265.2z"/>
	<path class="st2" d="M130,121.8c24.8-16,57.8-37.4,73.1-47.3H130V121.8z"/>
	<path class="st3" d="M233.6,116.2c0,2.5-2,4.5-4.5,4.5h-71.7c-2.5,0-4.5-2-4.5-4.5s2-4.5,4.5-4.5h71.7
		C231.6,111.7,233.6,113.7,233.6,116.2z M193.3,161.7H256c2.5,0,4.5-2,4.5-4.5s-2-4.5-4.5-4.5h-62.7c-2.5,0-4.5,2-4.5,4.5
		S190.8,161.7,193.3,161.7z M188.8,139.3c0-2.5,2-4.5,4.5-4.5H229c2.5,0,4.5,2,4.5,4.5s-2,4.5-4.5,4.5h-35.8
		C190.8,143.8,188.8,141.8,188.8,139.3z M260.5,198.3c0,2.5-2,4.5-4.5,4.5h-62.7c-2.5,0-4.5-2-4.5-4.5s2-4.5,4.5-4.5H256
		C258.4,193.8,260.5,195.8,260.5,198.3z M188.8,180.3c0-2.5,2-4.5,4.5-4.5H229c2.5,0,4.5,2,4.5,4.5s-2,4.5-4.5,4.5h-35.8
		C190.8,184.8,188.8,182.8,188.8,180.3z M260.5,238.2c0,2.5-2,4.5-4.5,4.5h-62.7c-2.5,0-4.5-2-4.5-4.5s2-4.5,4.5-4.5H256
		C258.4,233.7,260.5,235.7,260.5,238.2z M188.8,220.3c0-2.5,2-4.5,4.5-4.5H229c2.5,0,4.5,2,4.5,4.5s-2,4.5-4.5,4.5h-35.8
		C190.8,224.8,188.8,222.7,188.8,220.3z M180.5,148.1c0-7.5-6.1-13.5-13.5-13.5s-13.5,6.1-13.5,13.5s6.1,13.5,13.5,13.5
		S180.5,155.5,180.5,148.1z M171.5,148.1c0,2.5-2,4.5-4.5,4.5s-4.5-2-4.5-4.5s2-4.5,4.5-4.5S171.5,145.6,171.5,148.1z M180.5,189.1
		c0-7.5-6.1-13.5-13.5-13.5s-13.5,6.1-13.5,13.5s6.1,13.5,13.5,13.5S180.5,196.6,180.5,189.1z M171.5,189.1c0,2.5-2,4.5-4.5,4.5
		s-4.5-2-4.5-4.5s2-4.5,4.5-4.5S171.5,186.6,171.5,189.1z M180.5,229.4c0-7.5-6.1-13.5-13.5-13.5s-13.5,6.1-13.5,13.5
		s6.1,13.5,13.5,13.5S180.5,236.9,180.5,229.4z M171.5,229.4c0,2.5-2,4.5-4.5,4.5s-4.5-2-4.5-4.5s2-4.5,4.5-4.5
		S171.5,226.9,171.5,229.4z M288.5,102.5l-30.9-30.9H126.7v17.9h-17.9v18.3H90.6v198h161.8v-18.3h18.3v-17.9h17.9V102.5z
		 M243.4,296.8H99.6v-180h9.3v170.7h134.5V296.8z M261.6,278.6H117.8v-180h8.9v171.1h134.9V278.6z M279.5,260.7H135.7v-180h118.2
		l25.6,25.6V260.7z"/>
</g>
<g id="Artboard_Grid" class="st4">
	<g id="Grid_00000018195850048784610520000013983578513610405546_" class="st5">
		<rect class="st6" width="378" height="378"/>
		<line class="st6" x1="0" y1="369" x2="378" y2="369"/>
		<line class="st6" x1="0" y1="360" x2="378" y2="360"/>
		<line class="st6" x1="0" y1="351" x2="378" y2="351"/>
		<line class="st6" x1="0" y1="342" x2="378" y2="342"/>
		<line class="st6" x1="0" y1="333" x2="378" y2="333"/>
		<line class="st6" x1="0" y1="324" x2="378" y2="324"/>
		<line class="st6" x1="0" y1="315" x2="378" y2="315"/>
		<line class="st6" x1="0" y1="306" x2="378" y2="306"/>
		<line class="st6" x1="0" y1="297" x2="378" y2="297"/>
		<line class="st6" x1="0" y1="288" x2="378" y2="288"/>
		<line class="st6" x1="0" y1="279" x2="378" y2="279"/>
		<line class="st6" x1="0" y1="270" x2="378" y2="270"/>
		<line class="st6" x1="0" y1="261" x2="378" y2="261"/>
		<line class="st6" x1="0" y1="252" x2="378" y2="252"/>
		<line class="st6" x1="0" y1="243" x2="378" y2="243"/>
		<line class="st6" x1="0" y1="234" x2="378" y2="234"/>
		<line class="st6" x1="0" y1="225" x2="378" y2="225"/>
		<line class="st6" x1="0" y1="216" x2="378" y2="216"/>
		<line class="st6" x1="0" y1="207" x2="378" y2="207"/>
		<line class="st6" x1="0" y1="198" x2="378" y2="198"/>
		<line class="st6" x1="0" y1="189" x2="378" y2="189"/>
		<line class="st6" x1="0" y1="180" x2="378" y2="180"/>
		<line class="st6" x1="0" y1="171" x2="378" y2="171"/>
		<line class="st6" x1="0" y1="162" x2="378" y2="162"/>
		<line class="st6" x1="0" y1="153" x2="378" y2="153"/>
		<line class="st6" x1="0" y1="144" x2="378" y2="144"/>
		<line class="st6" x1="0" y1="135" x2="378" y2="135"/>
		<line class="st6" x1="0" y1="126" x2="378" y2="126"/>
		<line class="st6" x1="0" y1="117" x2="378" y2="117"/>
		<line class="st6" x1="0" y1="108" x2="378" y2="108"/>
		<line class="st6" x1="0" y1="99" x2="378" y2="99"/>
		<line class="st6" x1="0" y1="90" x2="378" y2="90"/>
		<line class="st6" x1="0" y1="81" x2="378" y2="81"/>
		<line class="st6" x1="0" y1="72" x2="378" y2="72"/>
		<line class="st6" x1="0" y1="63" x2="378" y2="63"/>
		<line class="st6" x1="0" y1="54" x2="378" y2="54"/>
		<line class="st6" x1="0" y1="45" x2="378" y2="45"/>
		<line class="st6" x1="0" y1="36" x2="378" y2="36"/>
		<line class="st6" x1="0" y1="27" x2="378" y2="27"/>
		<line class="st6" x1="0" y1="18" x2="378" y2="18"/>
		<line class="st6" x1="0" y1="9" x2="378" y2="9"/>
		<line class="st6" x1="369" y1="0" x2="369" y2="378"/>
		<line class="st6" x1="360" y1="0" x2="360" y2="378"/>
		<line class="st6" x1="351" y1="0" x2="351" y2="378"/>
		<line class="st6" x1="342" y1="0" x2="342" y2="378"/>
		<line class="st6" x1="333" y1="0" x2="333" y2="378"/>
		<line class="st6" x1="324" y1="0" x2="324" y2="378"/>
		<line class="st6" x1="315" y1="0" x2="315" y2="378"/>
		<line class="st6" x1="306" y1="0" x2="306" y2="378"/>
		<line class="st6" x1="297" y1="0" x2="297" y2="378"/>
		<line class="st6" x1="288" y1="0" x2="288" y2="378"/>
		<line class="st6" x1="279" y1="0" x2="279" y2="378"/>
		<line class="st6" x1="270" y1="0" x2="270" y2="378"/>
		<line class="st6" x1="261" y1="0" x2="261" y2="378"/>
		<line class="st6" x1="252" y1="0" x2="252" y2="378"/>
		<line class="st6" x1="243" y1="0" x2="243" y2="378"/>
		<line class="st6" x1="234" y1="0" x2="234" y2="378"/>
		<line class="st6" x1="225" y1="0" x2="225" y2="378"/>
		<line class="st6" x1="216" y1="0" x2="216" y2="378"/>
		<line class="st6" x1="207" y1="0" x2="207" y2="378"/>
		<line class="st6" x1="198" y1="0" x2="198" y2="378"/>
		<line class="st6" x1="189" y1="0" x2="189" y2="378"/>
		<line class="st6" x1="180" y1="0" x2="180" y2="378"/>
		<line class="st6" x1="171" y1="0" x2="171" y2="378"/>
		<line class="st6" x1="162" y1="0" x2="162" y2="378"/>
		<line class="st6" x1="153" y1="0" x2="153" y2="378"/>
		<line class="st6" x1="144" y1="0" x2="144" y2="378"/>
		<line class="st6" x1="135" y1="0" x2="135" y2="378"/>
		<line class="st6" x1="126" y1="0" x2="126" y2="378"/>
		<line class="st6" x1="117" y1="0" x2="117" y2="378"/>
		<line class="st6" x1="108" y1="0" x2="108" y2="378"/>
		<line class="st6" x1="99" y1="0" x2="99" y2="378"/>
		<line class="st6" x1="90" y1="0" x2="90" y2="378"/>
		<line class="st6" x1="81" y1="0" x2="81" y2="378"/>
		<line class="st6" x1="72" y1="0" x2="72" y2="378"/>
		<line class="st6" x1="63" y1="0" x2="63" y2="378"/>
		<line class="st6" x1="54" y1="0" x2="54" y2="378"/>
		<line class="st6" x1="45" y1="0" x2="45" y2="378"/>
		<line class="st6" x1="36" y1="0" x2="36" y2="378"/>
		<line class="st6" x1="27" y1="0" x2="27" y2="378"/>
		<line class="st6" x1="18" y1="0" x2="18" y2="378"/>
		<line class="st6" x1="9" y1="0" x2="9" y2="378"/>
	</g>
</g>
<g id="Spotlight_Grid_Lines" class="st4">
	<g id="Diagram_00000146462139091834629160000017767886920880581016_" class="st7">
		<g>
			<rect y="0" class="st8" width="378" height="378"/>
			<g>
				<line class="st8" x1="189" y1="0" x2="189" y2="378"/>
			</g>
			<g>
				<line class="st8" x1="378" y1="189" x2="0" y2="189"/>
			</g>
			<g>
				<line class="st8" x1="378" y1="0" x2="0" y2="378"/>
			</g>
			<g>
				<line class="st8" x1="378" y1="378" x2="0" y2="0"/>
			</g>
		</g>
		<rect x="9" y="9" class="st8" width="360" height="360"/>
		<circle class="st8" cx="189" cy="189" r="180"/>
		<circle class="st8" cx="189" cy="189" r="135"/>
	</g>
	<path id="Margin_00000091702621469796009990000015960060953282434998_" class="st9" d="M378,0H0v378h378l0,0l0,0V0z M9,369V9h360
		v360H9z"/>
</g>
</svg>
