<?xml version="1.0" encoding="utf-8"?>
<!-- Generator: Adobe Illustrator 27.5.0, SVG Export Plug-In . SVG Version: 6.00 Build 0)  -->
<svg version="1.1" xmlns="http://www.w3.org/2000/svg" xmlns:xlink="http://www.w3.org/1999/xlink" x="0px" y="0px"
	 viewBox="0 0 378 378" style="enable-background:new 0 0 378 378;" xml:space="preserve">
<style type="text/css">
	.st0{fill:#EDEDEE;}
	.st1{fill:#FFFFFF;}
	.st2{fill:#0B2D71;}
	.st3{fill:none;}
	.st4{fill:#009DD9;}
	.st5{fill:#0066B2;}
	.st6{display:none;}
	.st7{display:inline;opacity:0.14;}
	.st8{fill:none;stroke:#B9529F;stroke-width:0.35;stroke-miterlimit:10;}
	.st9{display:inline;}
	.st10{fill:none;stroke:#9F9E9E;stroke-width:0.35;stroke-miterlimit:10;}
	.st11{display:inline;fill:#81D3F2;}
</style>
<g id="Spotlight">
	<circle id="Circle" class="st0" cx="189" cy="189" r="180"/>
</g>
<g id="Icon_Art">
	<path class="st1" d="M267.9,255.6c0,0,0.1-50-22-58.6c-13.2-5.1-20-9.2-23.1-11.4c-4.2-4.6-15.3-16.9-16-17.8
		c-0.4-0.6-2.8-5.7-4.9-10.4c13.7-6.4,23.5-22.5,23.5-41.5c0-24.5-16.3-44.4-36.4-44.4s-36.4,19.9-36.4,44.4
		c0,16.6,7.5,31.1,18.6,38.7c-1.1,7.7-3.3,19.9-3.3,20.5c0,0.7-8.7,7.8-12.3,11.6c-4.1,2.2-11.4,5.8-23,10.2
		c-7.3,2.8-15.9,13.9-19.6,29.6c-1.7,7.3-3.6,51.7-4.7,86.1c24.3,12.2,50.1,16.9,80.7,16.9c29,0,56.5-4.7,80.7-16.9L267.9,255.6z"/>
	<path class="st2" d="M76.5,329.1c30.8,24.8,69.9,39.6,112.5,39.6s81.7-14.8,112.5-39.6V279h-225V329.1z"/>
	<path class="st2" d="M273.8,256.5c0.1-33.2-7.1-53.9-22.1-63.3c-4-2.5-8.3-4-12.8-5.7c-7.7-2.7-15.6-5.6-22.7-13.5
		c-3.2-3.6-5.8-7.7-7.7-12.3c13.3-8.8,22.4-26.4,22.4-46.6c0-29.1-18.8-52.7-42-52.7S147,86,147,115c0,19.9,8.8,37.3,21.8,46.3
		c-1.7,4.8-4.1,9.2-7.2,12.8c-6.6,7.9-14.5,10.7-22.1,13.5c-4.3,1.5-8.7,3.1-12.6,5.6c-15.2,9.4-22.6,30.1-22.8,63.4l-0.4,57.3
		l9,0.1l0.4-57.4c0.2-29.5,6.4-48.2,18.5-55.8c3.1-1.9,6.9-3.3,10.9-4.7c5.1-1.8,10.7-3.9,16.1-7.4l13,11.3l5.9-6.8l-11.9-10.3
		c0.9-0.9,1.8-1.9,2.7-3c3.5-4.2,6.3-9,8.3-14.4c3.8,1.5,7.9,2.2,12.1,2.2c4,0,7.8-0.7,11.5-2c2.3,5.3,5.4,10.1,9.1,14.3
		c0.8,0.9,1.7,1.8,2.5,2.7l-11.9,10.7l6,6.7l13-11.6c5.7,3.7,11.4,5.8,16.7,7.7c4.1,1.5,7.9,2.8,11.1,4.8c12,7.5,18,26.2,17.8,55.7
		l0.4,57.4l9-0.1L273.8,256.5z M156,115c0-4,0.4-7.9,1.2-11.6c5.7,0.6,11,0.9,15.9,0.9c23.1,0,36.6-6.1,44.1-11.7
		c3,6.6,4.7,14.3,4.7,22.5c0,24.1-14.8,43.7-33,43.7C170.8,158.8,156,139.2,156,115z"/>
	<path class="st2" d="M241.5,279v-9.5c0-2.5-2-4.5-4.5-4.5c-2.5,0-4.5,2-4.5,4.5v9.5H241.5z"/>
	<circle class="st3" cx="189" cy="189" r="179.7"/>
	<path class="st2" d="M180.3,217h-8.2c-4.4,0-8.1,2.6-9.8,6.3c-11.4,0.5-19.4,4.9-27,14.8c-6.8,8.9-8.7,20.5-9.3,31.9h-9.4v9h9.7
		l8.5,0c0,0,0,0,0,0h9.2v-9h-8.9c0.5-9.8,2.2-19.5,7.4-26.4c5.9-7.7,11.4-10.9,19.9-11.3c1.7,3.7,5.4,6.2,9.8,6.2h8.2
		c5.9,0,10.8-4.8,10.8-10.8C191.1,221.8,186.3,217,180.3,217z M180.3,229.5h-8.2c-1,0-1.8-0.8-1.8-1.8s0.8-1.8,1.8-1.8h8.2
		c1,0,1.8,0.8,1.8,1.8S181.3,229.5,180.3,229.5z"/>
	<path class="st4" d="M76.5,329.1c5.2,4.2,10.7,8.1,16.4,11.7l88.8-61.6c-0.1,0-105.2-0.2-105.2-0.2L76.5,329.1z"/>
	<rect x="76.5" y="279" class="st5" width="225" height="9"/>
</g>
<g id="Artboard_Grid" class="st6">
	<g id="Grid_00000143595822045361663770000009822217746682588561_" class="st7">
		<rect y="0" class="st8" width="378" height="378"/>
		<line class="st8" x1="0" y1="369" x2="378" y2="369"/>
		<line class="st8" x1="0" y1="360" x2="378" y2="360"/>
		<line class="st8" x1="0" y1="351" x2="378" y2="351"/>
		<line class="st8" x1="0" y1="342" x2="378" y2="342"/>
		<line class="st8" x1="0" y1="333" x2="378" y2="333"/>
		<line class="st8" x1="0" y1="324" x2="378" y2="324"/>
		<line class="st8" x1="0" y1="315" x2="378" y2="315"/>
		<line class="st8" x1="0" y1="306" x2="378" y2="306"/>
		<line class="st8" x1="0" y1="297" x2="378" y2="297"/>
		<line class="st8" x1="0" y1="288" x2="378" y2="288"/>
		<line class="st8" x1="0" y1="279" x2="378" y2="279"/>
		<line class="st8" x1="0" y1="270" x2="378" y2="270"/>
		<line class="st8" x1="0" y1="261" x2="378" y2="261"/>
		<line class="st8" x1="0" y1="252" x2="378" y2="252"/>
		<line class="st8" x1="0" y1="243" x2="378" y2="243"/>
		<line class="st8" x1="0" y1="234" x2="378" y2="234"/>
		<line class="st8" x1="0" y1="225" x2="378" y2="225"/>
		<line class="st8" x1="0" y1="216" x2="378" y2="216"/>
		<line class="st8" x1="0" y1="207" x2="378" y2="207"/>
		<line class="st8" x1="0" y1="198" x2="378" y2="198"/>
		<line class="st8" x1="0" y1="189" x2="378" y2="189"/>
		<line class="st8" x1="0" y1="180" x2="378" y2="180"/>
		<line class="st8" x1="0" y1="171" x2="378" y2="171"/>
		<line class="st8" x1="0" y1="162" x2="378" y2="162"/>
		<line class="st8" x1="0" y1="153" x2="378" y2="153"/>
		<line class="st8" x1="0" y1="144" x2="378" y2="144"/>
		<line class="st8" x1="0" y1="135" x2="378" y2="135"/>
		<line class="st8" x1="0" y1="126" x2="378" y2="126"/>
		<line class="st8" x1="0" y1="117" x2="378" y2="117"/>
		<line class="st8" x1="0" y1="108" x2="378" y2="108"/>
		<line class="st8" x1="0" y1="99" x2="378" y2="99"/>
		<line class="st8" x1="0" y1="90" x2="378" y2="90"/>
		<line class="st8" x1="0" y1="81" x2="378" y2="81"/>
		<line class="st8" x1="0" y1="72" x2="378" y2="72"/>
		<line class="st8" x1="0" y1="63" x2="378" y2="63"/>
		<line class="st8" x1="0" y1="54" x2="378" y2="54"/>
		<line class="st8" x1="0" y1="45" x2="378" y2="45"/>
		<line class="st8" x1="0" y1="36" x2="378" y2="36"/>
		<line class="st8" x1="0" y1="27" x2="378" y2="27"/>
		<line class="st8" x1="0" y1="18" x2="378" y2="18"/>
		<line class="st8" x1="0" y1="9" x2="378" y2="9"/>
		<line class="st8" x1="369" y1="0" x2="369" y2="378"/>
		<line class="st8" x1="360" y1="0" x2="360" y2="378"/>
		<line class="st8" x1="351" y1="0" x2="351" y2="378"/>
		<line class="st8" x1="342" y1="0" x2="342" y2="378"/>
		<line class="st8" x1="333" y1="0" x2="333" y2="378"/>
		<line class="st8" x1="324" y1="0" x2="324" y2="378"/>
		<line class="st8" x1="315" y1="0" x2="315" y2="378"/>
		<line class="st8" x1="306" y1="0" x2="306" y2="378"/>
		<line class="st8" x1="297" y1="0" x2="297" y2="378"/>
		<line class="st8" x1="288" y1="0" x2="288" y2="378"/>
		<line class="st8" x1="279" y1="0" x2="279" y2="378"/>
		<line class="st8" x1="270" y1="0" x2="270" y2="378"/>
		<line class="st8" x1="261" y1="0" x2="261" y2="378"/>
		<line class="st8" x1="252" y1="0" x2="252" y2="378"/>
		<line class="st8" x1="243" y1="0" x2="243" y2="378"/>
		<line class="st8" x1="234" y1="0" x2="234" y2="378"/>
		<line class="st8" x1="225" y1="0" x2="225" y2="378"/>
		<line class="st8" x1="216" y1="0" x2="216" y2="378"/>
		<line class="st8" x1="207" y1="0" x2="207" y2="378"/>
		<line class="st8" x1="198" y1="0" x2="198" y2="378"/>
		<line class="st8" x1="189" y1="0" x2="189" y2="378"/>
		<line class="st8" x1="180" y1="0" x2="180" y2="378"/>
		<line class="st8" x1="171" y1="0" x2="171" y2="378"/>
		<line class="st8" x1="162" y1="0" x2="162" y2="378"/>
		<line class="st8" x1="153" y1="0" x2="153" y2="378"/>
		<line class="st8" x1="144" y1="0" x2="144" y2="378"/>
		<line class="st8" x1="135" y1="0" x2="135" y2="378"/>
		<line class="st8" x1="126" y1="0" x2="126" y2="378"/>
		<line class="st8" x1="117" y1="0" x2="117" y2="378"/>
		<line class="st8" x1="108" y1="0" x2="108" y2="378"/>
		<line class="st8" x1="99" y1="0" x2="99" y2="378"/>
		<line class="st8" x1="90" y1="0" x2="90" y2="378"/>
		<line class="st8" x1="81" y1="0" x2="81" y2="378"/>
		<line class="st8" x1="72" y1="0" x2="72" y2="378"/>
		<line class="st8" x1="63" y1="0" x2="63" y2="378"/>
		<line class="st8" x1="54" y1="0" x2="54" y2="378"/>
		<line class="st8" x1="45" y1="0" x2="45" y2="378"/>
		<line class="st8" x1="36" y1="0" x2="36" y2="378"/>
		<line class="st8" x1="27" y1="0" x2="27" y2="378"/>
		<line class="st8" x1="18" y1="0" x2="18" y2="378"/>
		<line class="st8" x1="9" y1="0" x2="9" y2="378"/>
	</g>
</g>
<g id="Spotlight_Grid_Lines" class="st6">
	<g id="Diagram_00000127027580324130167460000009902644355467492008_" class="st9">
		<g>
			<rect y="0" class="st10" width="378" height="378"/>
			<g>
				<line class="st10" x1="189" y1="0" x2="189" y2="378"/>
			</g>
			<g>
				<line class="st10" x1="378" y1="189" x2="0" y2="189"/>
			</g>
			<g>
				<line class="st10" x1="378" y1="0" x2="0" y2="378"/>
			</g>
			<g>
				<line class="st10" x1="378" y1="378" x2="0" y2="0"/>
			</g>
		</g>
		<rect x="9" y="9" class="st10" width="360" height="360"/>
		<circle class="st10" cx="189" cy="189" r="180"/>
		<circle class="st10" cx="189" cy="189" r="135"/>
	</g>
	<path id="Margin_00000009549688356649475420000016751980586218385060_" class="st11" d="M378,0H0v378h378l0,0l0,0V0z M9,369V9h360
		v360H9z"/>
</g>
</svg>
