<?xml version="1.0" encoding="utf-8"?>
<!-- Generator: Adobe Illustrator 27.5.0, SVG Export Plug-In . SVG Version: 6.00 Build 0)  -->
<svg version="1.1" xmlns="http://www.w3.org/2000/svg" xmlns:xlink="http://www.w3.org/1999/xlink" x="0px" y="0px"
	 viewBox="0 0 378 378" style="enable-background:new 0 0 378 378;" xml:space="preserve">
<style type="text/css">
	.st0{fill:#EDEDEE;}
	.st1{fill:#FFFFFF;}
	.st2{fill:#0B2D71;}
	.st3{fill-rule:evenodd;clip-rule:evenodd;fill:#009DD9;}
	.st4{display:none;}
	.st5{display:inline;opacity:0.14;}
	.st6{fill:none;stroke:#FE01FE;stroke-width:0.35;stroke-miterlimit:10;}
	.st7{display:inline;}
	.st8{fill:none;stroke:#9F9F9F;stroke-width:0.35;stroke-miterlimit:10;}
	.st9{display:inline;fill:#75DDFD;}
</style>
<g id="background">
	<circle id="Circle_00000062162311427848726210000010773172398127867834_" class="st0" cx="189" cy="189" r="180"/>
</g>
<g id="artwork">
	<path class="st1" d="M255.93,103.99h-31.75v-6.94c0-3.92-3.18-7.09-7.09-7.09h-56.17c-3.92,0-7.09,3.18-7.09,7.09v6.94h-31.75
		c-3.95,0-7.14,3.2-7.14,7.14V284.5c0,3.95,3.2,7.14,7.14,7.14h133.86c3.95,0,7.14-3.2,7.14-7.14V111.13
		C263.08,107.19,259.88,103.99,255.93,103.99z"/>
	<g>
		<path class="st2" d="M189,147.86"/>
	</g>
	<path class="st2" d="M305.26,133.79c-0.81-1.56-2.42-2.5-4.15-2.5c-1.75,0.02-3.32,1.02-4.09,2.61c-0.53,1.11-3.38,7.05-6.08,12.72
		c-1.36,2.84-2.67,5.61-3.65,7.68c-1.6,3.4-2.29,4.84-2.03,6.19l-0.21,113.8c0,4.8,3.9,8.7,8.7,8.7h15.35c4.79,0,8.7-3.9,8.7-8.69
		l0.13-115.77L305.26,133.79z M301.3,145.81l6.87,13.44h-13.27C296.21,156.48,298.63,151.4,301.3,145.81z M308.91,168.25l-0.1,89.26
		h-14.73l0.17-89.26H308.91z M294.04,274l0.01-7.49h14.74l-0.01,7.49H294.04z M189,197.82h44.45c0,24.55-19.9,44.45-44.45,44.45
		s-44.45-19.9-44.45-44.45c0-24.55,19.9-44.45,44.45-44.45V197.82z M198.88,187.94h44.45c0-24.55-19.9-44.45-44.45-44.45V187.94z
		 M267.58,111.13V284.5c0,6.42-5.22,11.64-11.64,11.64H122.07c-6.42,0-11.64-5.22-11.64-11.64V111.13c0-6.42,5.22-11.64,11.64-11.64
		h27.25v-2.44c0-6.39,5.2-11.59,11.59-11.59h56.17c6.39,0,11.59,5.2,11.59,11.59v2.44h27.25
		C262.35,99.49,267.58,104.71,267.58,111.13z M158.32,109.91c0,1.43,1.16,2.59,2.59,2.59h56.17c1.43,0,2.59-1.16,2.59-2.59V97.05
		c0-1.43-1.16-2.59-2.59-2.59h-56.17c-1.43,0-2.59,1.16-2.59,2.59V109.91z M258.58,111.13c0-1.46-1.19-2.64-2.64-2.64h-27.25v1.42
		c0,6.39-5.2,11.59-11.59,11.59h-56.17c-6.39,0-11.59-5.2-11.59-11.59v-1.42h-27.25c-1.46,0-2.64,1.19-2.64,2.64V284.5
		c0,1.46,1.19,2.64,2.64,2.64h133.86c1.46,0,2.64-1.19,2.64-2.64V111.13z"/>
	<g>
		<path class="st3" d="M160.91,121.5c-6.39,0-11.59-5.2-11.59-11.59v-1.42h-27.25c-1.07,0-1.98,0.64-2.4,1.55
			c-0.12,0.3-0.19,0.62-0.19,0.96v54.34l69.42-43.85H160.91z"/>
	</g>
</g>
<g id="grid" class="st4">
	<g id="Grid_00000023998478983623018460000011523183599983996046_" class="st5">
		<rect class="st6" width="378" height="378"/>
		<line class="st6" x1="0" y1="369" x2="378" y2="369"/>
		<line class="st6" x1="0" y1="360" x2="378" y2="360"/>
		<line class="st6" x1="0" y1="351" x2="378" y2="351"/>
		<line class="st6" x1="0" y1="342" x2="378" y2="342"/>
		<line class="st6" x1="0" y1="333" x2="378" y2="333"/>
		<line class="st6" x1="0" y1="324" x2="378" y2="324"/>
		<line class="st6" x1="0" y1="315" x2="378" y2="315"/>
		<line class="st6" x1="0" y1="306" x2="378" y2="306"/>
		<line class="st6" x1="0" y1="297" x2="378" y2="297"/>
		<line class="st6" x1="0" y1="288" x2="378" y2="288"/>
		<line class="st6" x1="0" y1="279" x2="378" y2="279"/>
		<line class="st6" x1="0" y1="270" x2="378" y2="270"/>
		<line class="st6" x1="0" y1="261" x2="378" y2="261"/>
		<line class="st6" x1="0" y1="252" x2="378" y2="252"/>
		<line class="st6" x1="0" y1="243" x2="378" y2="243"/>
		<line class="st6" x1="0" y1="234" x2="378" y2="234"/>
		<line class="st6" x1="0" y1="225" x2="378" y2="225"/>
		<line class="st6" x1="0" y1="216" x2="378" y2="216"/>
		<line class="st6" x1="0" y1="207" x2="378" y2="207"/>
		<line class="st6" x1="0" y1="198" x2="378" y2="198"/>
		<line class="st6" x1="0" y1="189" x2="378" y2="189"/>
		<line class="st6" x1="0" y1="180" x2="378" y2="180"/>
		<line class="st6" x1="0" y1="171" x2="378" y2="171"/>
		<line class="st6" x1="0" y1="162" x2="378" y2="162"/>
		<line class="st6" x1="0" y1="153" x2="378" y2="153"/>
		<line class="st6" x1="0" y1="144" x2="378" y2="144"/>
		<line class="st6" x1="0" y1="135" x2="378" y2="135"/>
		<line class="st6" x1="0" y1="126" x2="378" y2="126"/>
		<line class="st6" x1="0" y1="117" x2="378" y2="117"/>
		<line class="st6" x1="0" y1="108" x2="378" y2="108"/>
		<line class="st6" x1="0" y1="99" x2="378" y2="99"/>
		<line class="st6" x1="0" y1="90" x2="378" y2="90"/>
		<line class="st6" x1="0" y1="81" x2="378" y2="81"/>
		<line class="st6" x1="0" y1="72" x2="378" y2="72"/>
		<line class="st6" x1="0" y1="63" x2="378" y2="63"/>
		<line class="st6" x1="0" y1="54" x2="378" y2="54"/>
		<line class="st6" x1="0" y1="45" x2="378" y2="45"/>
		<line class="st6" x1="0" y1="36" x2="378" y2="36"/>
		<line class="st6" x1="0" y1="27" x2="378" y2="27"/>
		<line class="st6" x1="0" y1="18" x2="378" y2="18"/>
		<line class="st6" x1="0" y1="9" x2="378" y2="9"/>
		<line class="st6" x1="369" y1="0" x2="369" y2="378"/>
		<line class="st6" x1="360" y1="0" x2="360" y2="378"/>
		<line class="st6" x1="351" y1="0" x2="351" y2="378"/>
		<line class="st6" x1="342" y1="0" x2="342" y2="378"/>
		<line class="st6" x1="333" y1="0" x2="333" y2="378"/>
		<line class="st6" x1="324" y1="0" x2="324" y2="378"/>
		<line class="st6" x1="315" y1="0" x2="315" y2="378"/>
		<line class="st6" x1="306" y1="0" x2="306" y2="378"/>
		<line class="st6" x1="297" y1="0" x2="297" y2="378"/>
		<line class="st6" x1="288" y1="0" x2="288" y2="378"/>
		<line class="st6" x1="279" y1="0" x2="279" y2="378"/>
		<line class="st6" x1="270" y1="0" x2="270" y2="378"/>
		<line class="st6" x1="261" y1="0" x2="261" y2="378"/>
		<line class="st6" x1="252" y1="0" x2="252" y2="378"/>
		<line class="st6" x1="243" y1="0" x2="243" y2="378"/>
		<line class="st6" x1="234" y1="0" x2="234" y2="378"/>
		<line class="st6" x1="225" y1="0" x2="225" y2="378"/>
		<line class="st6" x1="216" y1="0" x2="216" y2="378"/>
		<line class="st6" x1="207" y1="0" x2="207" y2="378"/>
		<line class="st6" x1="198" y1="0" x2="198" y2="378"/>
		<line class="st6" x1="189" y1="0" x2="189" y2="378"/>
		<line class="st6" x1="180" y1="0" x2="180" y2="378"/>
		<line class="st6" x1="171" y1="0" x2="171" y2="378"/>
		<line class="st6" x1="162" y1="0" x2="162" y2="378"/>
		<line class="st6" x1="153" y1="0" x2="153" y2="378"/>
		<line class="st6" x1="144" y1="0" x2="144" y2="378"/>
		<line class="st6" x1="135" y1="0" x2="135" y2="378"/>
		<line class="st6" x1="126" y1="0" x2="126" y2="378"/>
		<line class="st6" x1="117" y1="0" x2="117" y2="378"/>
		<line class="st6" x1="108" y1="0" x2="108" y2="378"/>
		<line class="st6" x1="99" y1="0" x2="99" y2="378"/>
		<line class="st6" x1="90" y1="0" x2="90" y2="378"/>
		<line class="st6" x1="81" y1="0" x2="81" y2="378"/>
		<line class="st6" x1="72" y1="0" x2="72" y2="378"/>
		<line class="st6" x1="63" y1="0" x2="63" y2="378"/>
		<line class="st6" x1="54" y1="0" x2="54" y2="378"/>
		<line class="st6" x1="45" y1="0" x2="45" y2="378"/>
		<line class="st6" x1="36" y1="0" x2="36" y2="378"/>
		<line class="st6" x1="27" y1="0" x2="27" y2="378"/>
		<line class="st6" x1="18" y1="0" x2="18" y2="378"/>
		<line class="st6" x1="9" y1="0" x2="9" y2="378"/>
	</g>
	<g id="Diagram_00000124868214658648507920000004005406544163799958_" class="st7">
		<g>
			<rect y="0" class="st8" width="378" height="378"/>
			<g>
				<line class="st8" x1="189" y1="0" x2="189" y2="378"/>
			</g>
			<g>
				<line class="st8" x1="378" y1="189" x2="0" y2="189"/>
			</g>
			<g>
				<line class="st8" x1="378" y1="0" x2="0" y2="378"/>
			</g>
			<g>
				<line class="st8" x1="378" y1="378" x2="0" y2="0"/>
			</g>
		</g>
		<rect x="9" y="9" class="st8" width="360" height="360"/>
		<circle class="st8" cx="189" cy="189" r="180"/>
		<circle class="st8" cx="189" cy="189" r="135"/>
	</g>
	<path id="Margin_00000041279408035335051150000012278757072861424544_" class="st9" d="M378,0H0v378h378l0,0l0,0V0z M9,369V9h360
		v360H9z"/>
</g>
</svg>
